<svg xmlns="http://www.w3.org/2000/svg" viewBox="0 0 800 500" preserveAspectRatio="xMidYMid slice" width="100%" height="100%">
<defs>
  <linearGradient id="sky" x1="0" y1="0" x2="0" y2="1">
    <stop offset="0%" stop-color="#020817"/>
    <stop offset="60%" stop-color="#0c1d3a"/>
    <stop offset="100%" stop-color="#020617"/>
  </linearGradient>
  <linearGradient id="aurora1" x1="0" y1="0" x2="0" y2="1">
    <stop offset="0%" stop-color="#10b981" stop-opacity="0"/>
    <stop offset="50%" stop-color="#10b981" stop-opacity="0.7"/>
    <stop offset="100%" stop-color="#22d3ee" stop-opacity="0"/>
  </linearGradient>
  <linearGradient id="aurora2" x1="0" y1="0" x2="0" y2="1">
    <stop offset="0%" stop-color="#a855f7" stop-opacity="0"/>
    <stop offset="50%" stop-color="#a855f7" stop-opacity="0.5"/>
    <stop offset="100%" stop-color="#10b981" stop-opacity="0"/>
  </linearGradient>
</defs>
<rect width="800" height="500" fill="url(#sky)"/>
<circle cx="699.654576044341" cy="248.3441189139531" r="0.4861094402501233" fill="#fff" opacity="0.898446823032343"/><circle cx="351.8519999071672" cy="172.2337644390574" r="1.0293365415444047" fill="#fff" opacity="0.8599953014316883"/><circle cx="610.3356924217111" cy="225.8002254722703" r="0.4818098041320256" fill="#fff" opacity="0.62612688979181"/><circle cx="545.8511393555707" cy="84.0874809237511" r="0.4536785132377496" fill="#fff" opacity="0.7382131471578361"/><circle cx="465.0141750961595" cy="7.692974523822004" r="0.6223508302337799" fill="#fff" opacity="0.3794399114170338"/><circle cx="701.5542578389384" cy="3.9501700694928865" r="0.7648360711847779" fill="#fff" opacity="0.6372621758691945"/><circle cx="251.776472305216" cy="147.30011114472381" r="1.201491021700615" fill="#fff" opacity="0.6459853673987337"/><circle cx="515.5931300186277" cy="188.00205910411236" r="1.1181736273165772" fill="#fff" opacity="0.6774140462562213"/><circle cx="776.3428241396869" cy="80.89088598756433" r="0.6883309206014061" fill="#fff" opacity="0.5349123186438"/><circle cx="205.73256258871888" cy="82.70460564898661" r="0.5623093446603906" fill="#fff" opacity="0.392001781693364"/><circle cx="713.0191327262648" cy="146.50110282107755" r="0.5647269791564871" fill="#fff" opacity="0.6508216144737797"/><circle cx="765.8993985330968" cy="92.57070239189675" r="0.8893931598588993" fill="#fff" opacity="0.678128133329132"/><circle cx="731.5404763911197" cy="173.98373622549192" r="0.32757054261471036" fill="#fff" opacity="0.4899769134258923"/><circle cx="692.0716805252565" cy="260.6966014097997" r="0.9646797252633073" fill="#fff" opacity="0.5656247391486118"/><circle cx="220.6780068119869" cy="260.6358973718963" r="0.7092146084716664" fill="#fff" opacity="0.415602030596374"/><circle cx="467.87202811195635" cy="279.2473301233606" r="0.5479664406420615" fill="#fff" opacity="0.4562909300316662"/><circle cx="482.70205543861147" cy="123.6347684661192" r="0.9980665033963461" fill="#fff" opacity="0.8520920412796622"/><circle cx="663.8246109127031" cy="7.512482098481421" r="0.7449059534246172" fill="#fff" opacity="0.6506041204852231"/><circle cx="205.9931418284454" cy="183.15762098136372" r="0.7000816027587486" fill="#fff" opacity="0.6213981949744978"/><circle cx="51.74274435892077" cy="292.97348461338197" r="0.3212480947361485" fill="#fff" opacity="0.8884205115479857"/><circle cx="533.0035526078773" cy="11.293900404890357" r="0.8989784274613752" fill="#fff" opacity="0.440387153740294"/><circle cx="288.2060045509634" cy="238.00480395242835" r="0.4170504739682916" fill="#fff" opacity="0.6173793066822424"/><circle cx="417.3676606555255" cy="219.63939874430892" r="0.3733460393474152" fill="#fff" opacity="0.6409704367122666"/><circle cx="708.5853938054189" cy="188.6683282300072" r="0.8471379525578466" fill="#fff" opacity="0.8409540502709887"/><circle cx="533.2083465531063" cy="53.31760808861243" r="0.8876466118193413" fill="#fff" opacity="0.5645265910277067"/><circle cx="609.8185679082047" cy="287.4723414021644" r="1.019932503136937" fill="#fff" opacity="0.7575424114829081"/><circle cx="100.35022325777857" cy="180.55313134908621" r="1.0186971967785885" fill="#fff" opacity="0.3987360499258254"/><circle cx="608.0186049157306" cy="239.2220373335403" r="0.7904130041714448" fill="#fff" opacity="0.7907296212731654"/><circle cx="738.8289691996698" cy="265.11926192625293" r="1.0633807422755417" fill="#fff" opacity="0.3949363974344237"/><circle cx="458.59951718803427" cy="114.30458516743793" r="0.8331303454896388" fill="#fff" opacity="0.7868311035296265"/><circle cx="721.7793111540242" cy="168.60189380608588" r="1.2622885731500013" fill="#fff" opacity="0.6625715652132326"/><circle cx="435.41230251757605" cy="269.87439277681744" r="0.8163003100069208" fill="#fff" opacity="0.449441626010444"/><circle cx="482.8753595854824" cy="257.9129746173845" r="0.5541965281196906" fill="#fff" opacity="0.737969552685505"/><circle cx="509.9508616631466" cy="210.0704550773645" r="0.7302787176767211" fill="#fff" opacity="0.6124614246771856"/><circle cx="381.5135543733217" cy="283.6684960868117" r="1.2367549902720767" fill="#fff" opacity="0.30384844145210743"/><circle cx="18.371479044413253" cy="206.47246974344137" r="0.5339584297525148" fill="#fff" opacity="0.6611450721772756"/><circle cx="750.2249069048232" cy="225.54916140380266" r="1.1289776911594958" fill="#fff" opacity="0.3363728362422935"/><circle cx="15.224063181503844" cy="75.10118344390553" r="0.6075346995383888" fill="#fff" opacity="0.5336149281827564"/><circle cx="106.81171984242752" cy="32.041502767224124" r="0.6678093437652795" fill="#fff" opacity="0.5740159888533527"/><circle cx="265.9988879687215" cy="174.475039507052" r="1.1439217926773315" fill="#fff" opacity="0.7219530324116317"/><circle cx="667.1414112669061" cy="93.37016998554115" r="0.48761475888998546" fill="#fff" opacity="0.7556810432414479"/><circle cx="16.145989022088347" cy="255.06245329240687" r="0.7526760202996838" fill="#fff" opacity="0.8482054184111298"/><circle cx="532.844752269537" cy="84.43297307123616" r="0.7801783079211082" fill="#fff" opacity="0.7712291467744439"/><circle cx="435.50845841809894" cy="160.55043849048826" r="0.760690673302103" fill="#fff" opacity="0.5375889730702353"/><circle cx="539.9105774088576" cy="210.23763944233806" r="0.9639437332530427" fill="#fff" opacity="0.38554052679145556"/><circle cx="174.20146250175702" cy="214.4724956862298" r="0.5267490302744422" fill="#fff" opacity="0.7572401265016147"/><circle cx="226.28294879621197" cy="105.72687926902503" r="1.297720948063603" fill="#fff" opacity="0.7696702070192949"/><circle cx="736.9113790831593" cy="24.500127406353034" r="0.4880992422827593" fill="#fff" opacity="0.47077398935478776"/><circle cx="535.7236696699177" cy="133.61783871133852" r="1.0521436335067058" fill="#fff" opacity="0.3685410752105549"/><circle cx="772.5235143788376" cy="244.76241695319118" r="1.0030492518443963" fill="#fff" opacity="0.6204817714932227"/><circle cx="609.5114679266688" cy="37.89859133025237" r="0.7113568710506681" fill="#fff" opacity="0.8872056985948185"/><circle cx="162.19660048849914" cy="21.634442420971897" r="0.5913815281478016" fill="#fff" opacity="0.8072570444683549"/><circle cx="695.064668569819" cy="274.3931623352227" r="0.40145642501581885" fill="#fff" opacity="0.5399756373104363"/><circle cx="216.5006856858941" cy="283.06710086665873" r="1.0443118143131471" fill="#fff" opacity="0.3058777787321724"/><circle cx="146.42663703144575" cy="19.56625835755803" r="1.0022816602287878" fill="#fff" opacity="0.4685566587086465"/><circle cx="769.0079697276975" cy="0.6369600243909201" r="1.1537243809911562" fill="#fff" opacity="0.80146165339622"/><circle cx="686.4189940943356" cy="99.92953619283635" r="1.239315378004256" fill="#fff" opacity="0.768408779123866"/><circle cx="620.8087865335883" cy="89.14712556309297" r="0.34802722062070485" fill="#fff" opacity="0.7136717990456973"/><circle cx="631.6905461487647" cy="88.27179163230832" r="0.40251374323210215" fill="#fff" opacity="0.8672366837247607"/><circle cx="758.6110581146042" cy="110.06394292874013" r="0.5665135762960309" fill="#fff" opacity="0.61487743543499"/><circle cx="359.78648113512344" cy="252.04368118448753" r="1.1910291493672527" fill="#fff" opacity="0.8740028701392772"/><circle cx="622.4284022570538" cy="296.9066193231464" r="0.8632886487344023" fill="#fff" opacity="0.8994326286050329"/><circle cx="467.31624397664433" cy="208.26494190000003" r="0.7488819049936328" fill="#fff" opacity="0.7668592942073018"/><circle cx="338.31175327462563" cy="229.12074601739815" r="0.6641453920840357" fill="#fff" opacity="0.8018032038539769"/><circle cx="482.52859759677983" cy="133.9126554620481" r="1.2362320934915854" fill="#fff" opacity="0.6158917741429031"/><circle cx="77.25882001991691" cy="63.291752033957636" r="1.2905013829305265" fill="#fff" opacity="0.45296484534103776"/><circle cx="285.343256449636" cy="49.68428095956836" r="0.9056823628735293" fill="#fff" opacity="0.7194785366498783"/><circle cx="146.21410639670688" cy="41.40221170230104" r="0.3028970302673036" fill="#fff" opacity="0.7526348509721628"/><circle cx="213.0066415469071" cy="179.8801342425857" r="0.6370067528750742" fill="#fff" opacity="0.4178192846900374"/><circle cx="633.4343607331092" cy="61.54474491950335" r="0.7890243425154126" fill="#fff" opacity="0.8676453160655277"/><circle cx="88.77778776564415" cy="27.250563134731177" r="0.9419432980441407" fill="#fff" opacity="0.8988222812523599"/><circle cx="642.3100078989435" cy="73.97099927756065" r="0.3304048011855513" fill="#fff" opacity="0.6657544358214074"/><circle cx="272.02337264727123" cy="183.2414510717184" r="0.6099618572894066" fill="#fff" opacity="0.6681726912235149"/><circle cx="732.1780413440189" cy="295.0874644211617" r="0.5437254413490833" fill="#fff" opacity="0.8716918381645964"/><circle cx="250.00063090028527" cy="266.02393103518597" r="0.30463982773652126" fill="#fff" opacity="0.689441676092442"/><circle cx="247.25367896295555" cy="35.43638152021039" r="0.41960581677774506" fill="#fff" opacity="0.4606792163597433"/><circle cx="647.2374517668194" cy="155.56780313989606" r="0.8421251957694542" fill="#fff" opacity="0.8926199160935795"/><circle cx="457.39096563210404" cy="51.217398772255684" r="0.903407637946219" fill="#fff" opacity="0.8050468254900667"/><circle cx="165.13542899007686" cy="176.47023646723676" r="0.7993034440911873" fill="#fff" opacity="0.7845034472601936"/><circle cx="736.8993143150519" cy="280.5291934984181" r="1.0367454432953211" fill="#fff" opacity="0.46247764267076164"/><circle cx="743.0687978892109" cy="171.49183379467277" r="1.1072976699149082" fill="#fff" opacity="0.43297923028136254"/><circle cx="748.6404514045068" cy="65.09359637116727" r="1.2949122847351058" fill="#fff" opacity="0.32256501333796167"/><circle cx="401.60860701233025" cy="297.7274703571748" r="1.2714428811495029" fill="#fff" opacity="0.40284956769113267"/><circle cx="607.4970309503489" cy="107.45482550178434" r="0.709577839567066" fill="#fff" opacity="0.43102905877318476"/><circle cx="194.78915982294166" cy="114.84980895674705" r="1.026353752263193" fill="#fff" opacity="0.4820223989956868"/><circle cx="413.42510583390447" cy="215.32253600305154" r="1.0205477410533152" fill="#fff" opacity="0.6931671850475258"/><circle cx="708.5472095898143" cy="191.45907994053573" r="0.30523880149470156" fill="#fff" opacity="0.8136533598759284"/><circle cx="23.296247812599802" cy="134.26203785494312" r="1.1994787426810771" fill="#fff" opacity="0.8474697224603949"/><circle cx="433.7332267679643" cy="290.49441508164904" r="1.1366139731451756" fill="#fff" opacity="0.7748913945593193"/><circle cx="447.518689753166" cy="82.80426305857276" r="1.1920632813865526" fill="#fff" opacity="0.3857120650988949"/><circle cx="176.80225088194436" cy="121.39154015008845" r="1.0843176833355705" fill="#fff" opacity="0.46660708718716926"/><circle cx="250.57090580483168" cy="229.20270060435269" r="0.9981256161830727" fill="#fff" opacity="0.6755675423171907"/><circle cx="629.614149028687" cy="138.4151144904764" r="0.6618839847639626" fill="#fff" opacity="0.500966155257923"/><circle cx="773.5831255345622" cy="272.03333220820986" r="1.0056871257056927" fill="#fff" opacity="0.36030737904201177"/><circle cx="188.99856261896534" cy="289.37347501308653" r="0.8173094640383298" fill="#fff" opacity="0.6273297052356397"/><circle cx="778.8263287368934" cy="215.50389902579542" r="0.4408609649291317" fill="#fff" opacity="0.46074355901198083"/><circle cx="686.7460948764365" cy="266.94633317330073" r="0.6779973205184817" fill="#fff" opacity="0.4339096589515916"/><circle cx="98.04060709684394" cy="5.710320542831615" r="0.43715818180353855" fill="#fff" opacity="0.5187338933060225"/><circle cx="190.25948147381763" cy="42.577002275753635" r="0.618007741996331" fill="#fff" opacity="0.5168835756477652"/><circle cx="382.7536074832482" cy="146.49500939126503" r="0.7021298147427446" fill="#fff" opacity="0.7602807192786152"/><circle cx="312.13481479983056" cy="138.70145629955516" r="0.5297805768524961" fill="#fff" opacity="0.5364890211551648"/><circle cx="265.6516116899132" cy="241.02687783838803" r="1.0746764863810483" fill="#fff" opacity="0.33715560552186546"/><circle cx="355.6442947204516" cy="88.77733505807444" r="0.5431468983143646" fill="#fff" opacity="0.4572895441822922"/><circle cx="472.54523414312183" cy="193.40205581024478" r="0.48198205375264974" fill="#fff" opacity="0.48644119018919657"/><circle cx="635.4970612590618" cy="211.0868522384313" r="1.1743283304657999" fill="#fff" opacity="0.8798900564929959"/><circle cx="252.13503542834647" cy="209.52165421010437" r="0.9823623537992443" fill="#fff" opacity="0.59972472587116"/><circle cx="69.25018109352212" cy="220.54248461233357" r="0.9606937661884658" fill="#fff" opacity="0.5124537213813549"/><circle cx="700.6744738962175" cy="248.37878682459987" r="1.0708076194827527" fill="#fff" opacity="0.7877755720385984"/><circle cx="322.8883214741704" cy="297.4020942841312" r="1.1870080083320456" fill="#fff" opacity="0.5306250920718374"/><circle cx="262.6260599100476" cy="77.37380700419989" r="0.6995466755085935" fill="#fff" opacity="0.8952587735941884"/><circle cx="789.0761759885348" cy="32.01917775380234" r="0.5182047143862512" fill="#fff" opacity="0.6739108585839122"/><circle cx="158.89583623157924" cy="127.29730931245084" r="0.9901382127924783" fill="#fff" opacity="0.7016725635417937"/><circle cx="249.0540819230792" cy="62.5708872987977" r="0.35350714521189913" fill="#fff" opacity="0.7993288227878209"/><circle cx="797.0213084324374" cy="94.89850331867237" r="0.4722297090572078" fill="#fff" opacity="0.7245492545298309"/><circle cx="109.20321783418858" cy="197.51916816659786" r="0.9530227872164023" fill="#fff" opacity="0.7585767600782912"/><circle cx="226.64376944716142" cy="110.73996424473034" r="0.637356716692981" fill="#fff" opacity="0.7025406818516688"/><circle cx="681.9255022943674" cy="228.28086734295843" r="1.0158976419577543" fill="#fff" opacity="0.4657814884176732"/><circle cx="420.59349693835895" cy="298.74959868747925" r="0.5885483734565848" fill="#fff" opacity="0.3585680499127055"/><circle cx="717.044516034541" cy="102.3553729342075" r="0.6184889423058832" fill="#fff" opacity="0.72554853203905"/><circle cx="338.97528960648947" cy="181.84891679777047" r="0.3934480283050749" fill="#fff" opacity="0.6680545856571272"/><circle cx="285.70364174924566" cy="135.19340901001968" r="1.0222145278114874" fill="#fff" opacity="0.6233327335560712"/><circle cx="519.902094933753" cy="81.64356043655764" r="0.787445786239513" fill="#fff" opacity="0.4164898420177962"/><circle cx="517.9845723259763" cy="98.90984596016135" r="0.9437969605503627" fill="#fff" opacity="0.6503219888955397"/><circle cx="729.2362752624299" cy="94.29741763081245" r="1.0987313816946127" fill="#fff" opacity="0.45678276091347536"/><circle cx="48.226023447347366" cy="118.44481796923566" r="1.1335815365893143" fill="#fff" opacity="0.36457905806018875"/><circle cx="548.4413509845558" cy="177.83278727031725" r="1.2936493365670105" fill="#fff" opacity="0.40876860245160895"/><circle cx="477.05481373650116" cy="95.78189507360244" r="0.3806888182340406" fill="#fff" opacity="0.4484694584161817"/><circle cx="325.74417732569276" cy="200.70408528579432" r="0.3384841908871144" fill="#fff" opacity="0.3214231732510134"/><circle cx="795.7405084204609" cy="222.57779684350342" r="0.8308446607825588" fill="#fff" opacity="0.7455277573624806"/><circle cx="789.8302813236447" cy="221.90026044169872" r="0.7182876548456631" fill="#fff" opacity="0.5632808195723009"/><circle cx="739.0383687796616" cy="100.82179747615447" r="0.4244689997614622" fill="#fff" opacity="0.6932973811700489"/><circle cx="34.178895870080694" cy="52.81586053660126" r="0.7813552334747524" fill="#fff" opacity="0.8207635067695163"/><circle cx="131.9848594128076" cy="109.53503830237703" r="0.9690110992641128" fill="#fff" opacity="0.6997814914255658"/><circle cx="544.6757017130415" cy="97.15083850312932" r="0.3483984876456156" fill="#fff" opacity="0.31466484165816294"/><circle cx="721.8139577088073" cy="166.2386093347674" r="0.3128579625943699" fill="#fff" opacity="0.43481989253674347"/><circle cx="224.53541647214576" cy="104.01642862050029" r="1.019759542191997" fill="#fff" opacity="0.44371546743941576"/><circle cx="336.0325748394511" cy="27.522298926250766" r="0.6312027641551754" fill="#fff" opacity="0.5384272204879805"/><circle cx="128.271779603111" cy="122.72011545326731" r="0.9240054210837301" fill="#fff" opacity="0.5523394068717837"/><circle cx="120.40508485378716" cy="105.00515988781592" r="1.106140266944833" fill="#fff" opacity="0.5659799266772438"/><circle cx="715.3662822321401" cy="124.82664706637506" r="0.936188885522665" fill="#fff" opacity="0.44814512490034253"/><circle cx="537.3120509451333" cy="243.53557905375882" r="0.893752978430878" fill="#fff" opacity="0.3950177548518233"/><circle cx="99.63642932729088" cy="11.068626972891071" r="0.8710741899132286" fill="#fff" opacity="0.8585597603775657"/><circle cx="604.9765340866006" cy="236.95174091813314" r="0.7675886016751723" fill="#fff" opacity="0.687764174756827"/><circle cx="109.60826345635937" cy="250.0509854877584" r="0.6796189536181869" fill="#fff" opacity="0.5241629305987134"/><circle cx="20.66538039191439" cy="244.247014634006" r="1.1585183682003801" fill="#fff" opacity="0.7582443796619862"/><circle cx="13.633738504277204" cy="42.74006685630418" r="0.38819463416814365" fill="#fff" opacity="0.8107963742060735"/><circle cx="286.5935880088789" cy="264.8396512113913" r="0.3949015179677396" fill="#fff" opacity="0.6428177419883789"/><circle cx="552.003214758581" cy="2.7149722950193245" r="1.2275713411626323" fill="#fff" opacity="0.6284825840068445"/><circle cx="511.36214842649366" cy="201.7740195158133" r="0.785273653506962" fill="#fff" opacity="0.813117674080359"/><circle cx="530.2397785616204" cy="118.56912687888368" r="0.9938280449798851" fill="#fff" opacity="0.34719069615980425"/><circle cx="97.3442772795285" cy="117.4725807124311" r="0.7912477763616621" fill="#fff" opacity="0.4365626434945531"/><circle cx="631.1081463272819" cy="287.714625271697" r="0.911561611758662" fill="#fff" opacity="0.8178125889684702"/><circle cx="450.9973347888237" cy="201.13051782178704" r="0.3890921564981816" fill="#fff" opacity="0.48255772158818255"/><circle cx="607.9823112687395" cy="174.42552238844237" r="0.8203771383630429" fill="#fff" opacity="0.4323567983494274"/><circle cx="428.1334118210293" cy="88.51211001154833" r="0.45893100675135295" fill="#fff" opacity="0.49019130674756684"/><circle cx="211.1359832166423" cy="153.46658023475254" r="1.2726887011916834" fill="#fff" opacity="0.7749760646482367"/><circle cx="8.103675112844133" cy="202.82579881693684" r="0.3351714671206341" fill="#fff" opacity="0.855870744182254"/><circle cx="139.24348676477152" cy="295.7644787310918" r="0.6661027612778208" fill="#fff" opacity="0.35785873349563063"/><circle cx="657.3905554746704" cy="27.41070504777807" r="1.0955302068024115" fill="#fff" opacity="0.4531739198474417"/><circle cx="32.99250619534906" cy="296.3113802095962" r="0.8679723504914854" fill="#fff" opacity="0.3890757533930744"/><circle cx="176.62492390167577" cy="187.5776676340643" r="0.5917781854710003" fill="#fff" opacity="0.8194625769767154"/><circle cx="544.8325370586987" cy="247.82862521310673" r="1.2191456541580914" fill="#fff" opacity="0.6231283446533574"/><circle cx="56.171555599904366" cy="104.04942346690133" r="0.729896253739412" fill="#fff" opacity="0.6466129764410453"/><circle cx="692.5798536490537" cy="206.9976209023676" r="1.156781686811306" fill="#fff" opacity="0.366746625926966"/><circle cx="288.6090857765404" cy="164.11989203312544" r="0.7946481804208387" fill="#fff" opacity="0.46671929663808764"/><circle cx="12.437937585517389" cy="15.47009785473934" r="0.8425624270807002" fill="#fff" opacity="0.700024450611676"/><circle cx="134.0589563100666" cy="228.94307120063834" r="1.1018810921114166" fill="#fff" opacity="0.368025761211853"/><circle cx="257.376433190082" cy="84.50882536530153" r="0.46860153591561543" fill="#fff" opacity="0.8471928506061583"/><circle cx="736.5903056756804" cy="193.4156175360371" r="0.7339651025971006" fill="#fff" opacity="0.733328636819469"/><circle cx="36.864934932684704" cy="59.74661733386834" r="1.1153487339342147" fill="#fff" opacity="0.6121628096635662"/><circle cx="725.0168552789233" cy="251.8289113182839" r="0.581034168358884" fill="#fff" opacity="0.6160835332574344"/><circle cx="134.50020995838213" cy="271.7657701938718" r="0.7132830673751167" fill="#fff" opacity="0.5590242059794104"/><circle cx="171.03340102439307" cy="202.0048125238965" r="0.49088598062486705" fill="#fff" opacity="0.7448769901209886"/><circle cx="614.2737662834473" cy="142.03026301031565" r="0.7120601214802516" fill="#fff" opacity="0.810184678218451"/><circle cx="566.9511816435057" cy="106.95530951811432" r="0.8142359051617101" fill="#fff" opacity="0.510836255852521"/><circle cx="385.78506750624024" cy="30.175360369618584" r="0.4492510163098676" fill="#fff" opacity="0.3714157199335976"/><circle cx="758.1365387294197" cy="268.61876386984034" r="0.49893194982272276" fill="#fff" opacity="0.5808628052475838"/><circle cx="694.4996457631233" cy="292.1219342414803" r="1.1302782717935738" fill="#fff" opacity="0.3599292901416418"/><circle cx="502.452605154314" cy="279.6300653058735" r="0.46300492357620765" fill="#fff" opacity="0.6882802523362581"/><circle cx="240.4176477335321" cy="230.81639451451179" r="0.6322973088519657" fill="#fff" opacity="0.8576983083260443"/><circle cx="405.64949258184396" cy="4.735794321430242" r="1.0563481649340871" fill="#fff" opacity="0.8694781219537595"/><circle cx="287.34001243833313" cy="264.62070766561834" r="0.45396197016515855" fill="#fff" opacity="0.33974889544247455"/><circle cx="495.68707086306205" cy="207.01197071025396" r="0.6265629399710184" fill="#fff" opacity="0.5557938019120856"/><circle cx="102.87696060486616" cy="181.42654324394064" r="0.3151085527121484" fill="#fff" opacity="0.4779590480639626"/><circle cx="341.1705155382866" cy="109.65694719828969" r="0.6930030260919207" fill="#fff" opacity="0.6912408560217386"/><circle cx="4.1481745044109175" cy="205.46747570663965" r="1.093714689655491" fill="#fff" opacity="0.8040205979941379"/><circle cx="35.44264712240679" cy="275.6096082910695" r="0.4494703023845416" fill="#fff" opacity="0.5121111340604491"/><circle cx="458.7407260522981" cy="175.66195688243536" r="0.5158959137396808" fill="#fff" opacity="0.7879882655790488"/><circle cx="138.43038500911354" cy="93.59177476387002" r="0.3652480661618838" fill="#fff" opacity="0.3338477838118332"/><circle cx="616.8528421339406" cy="33.83230601346625" r="0.6290998402624002" fill="#fff" opacity="0.5245006864400763"/><circle cx="533.076632539744" cy="164.00250774074806" r="0.7038157789167345" fill="#fff" opacity="0.3390430201482268"/><circle cx="79.09178083059646" cy="31.59581689189811" r="0.35020488025047053" fill="#fff" opacity="0.8991782364081486"/><circle cx="326.02459012933576" cy="176.31136200271058" r="0.5345791767243064" fill="#fff" opacity="0.48200296680888133"/><circle cx="628.7359925347572" cy="213.89584048790474" r="1.1367057636026636" fill="#fff" opacity="0.7648453225050591"/><circle cx="246.37321185030387" cy="29.063614500500634" r="0.780577370670025" fill="#fff" opacity="0.7853859669039984"/><circle cx="182.4016147293385" cy="10.074197948885331" r="0.778054438090489" fill="#fff" opacity="0.31132546388720733"/><circle cx="355.54380992374047" cy="39.519143011058866" r="0.8463914701819533" fill="#fff" opacity="0.6914917267804612"/><circle cx="152.20433338197256" cy="247.7721429651058" r="0.7815593476473222" fill="#fff" opacity="0.38260907244539893"/><circle cx="405.59099677818506" cy="27.59137304863638" r="1.0244891148170299" fill="#fff" opacity="0.6211729399810885"/><circle cx="714.7498923483887" cy="64.50338438998035" r="0.41624500827911765" fill="#fff" opacity="0.6488641077844557"/>
<!-- aurora curtains -->
<path d="M 0 380 Q 100 200 200 280 Q 300 360 400 220 Q 500 80 600 260 Q 700 380 800 280 L 800 500 L 0 500 Z" fill="url(#aurora1)" opacity="0.7"/>
<path d="M 0 420 Q 150 260 280 320 Q 400 200 520 320 Q 640 440 800 360 L 800 500 L 0 500 Z" fill="url(#aurora2)" opacity="0.6"/>
<!-- mountain silhouette -->
<path d="M 0 500 L 100 380 L 180 420 L 280 350 L 380 400 L 480 360 L 580 410 L 700 370 L 800 400 L 800 500 Z" fill="#020617"/>
<path d="M 0 500 L 80 440 L 160 470 L 240 420 L 320 450 L 400 430 L 480 460 L 560 420 L 640 450 L 720 430 L 800 460 L 800 500 Z" fill="#0a0e1f"/>
<!-- snow caps -->
<path d="M 100 380 L 130 395 L 90 395 Z" fill="#fff" opacity="0.6"/>
<path d="M 280 350 L 320 370 L 250 370 Z" fill="#fff" opacity="0.6"/>
<path d="M 480 360 L 520 380 L 450 380 Z" fill="#fff" opacity="0.6"/>
<!-- foreground tree -->
<g transform="translate(120,460)" fill="#020617">
  <path d="M 0 0 L -8 -30 L -3 -30 L -5 -50 L -2 -50 L -4 -65 L 4 -65 L 2 -50 L 5 -50 L 3 -30 L 8 -30 Z"/>
</g>
<g transform="translate(680,470)" fill="#020617">
  <path d="M 0 0 L -10 -35 L -4 -35 L -6 -58 L -2 -58 L -5 -75 L 5 -75 L 2 -58 L 6 -58 L 4 -35 L 10 -35 Z"/>
</g>
</svg>