<svg xmlns="http://www.w3.org/2000/svg" viewBox="0 0 800 500" preserveAspectRatio="xMidYMid slice" width="100%" height="100%">
<defs>
  <radialGradient id="earth" cx="50%" cy="50%" r="50%">
    <stop offset="0%" stop-color="#1d4ed8"/>
    <stop offset="60%" stop-color="#0c1d3a"/>
    <stop offset="100%" stop-color="#000"/>
  </radialGradient>
  <linearGradient id="bg" x1="0" y1="0" x2="1" y2="1">
    <stop offset="0%" stop-color="#020a18"/>
    <stop offset="100%" stop-color="#000"/>
  </linearGradient>
  <radialGradient id="belt" cx="50%" cy="50%" r="50%">
    <stop offset="60%" stop-color="#22d3ee" stop-opacity="0"/>
    <stop offset="75%" stop-color="#22d3ee" stop-opacity="0.6"/>
    <stop offset="90%" stop-color="#3b82f6" stop-opacity="0.4"/>
    <stop offset="100%" stop-color="#3b82f6" stop-opacity="0"/>
  </radialGradient>
</defs>
<rect width="800" height="500" fill="url(#bg)"/>
<circle cx="351.0237271456478" cy="168.36379053478262" r="0.6443904192485204" fill="#fff" opacity="0.23018398383930688"/><circle cx="587.8667702404294" cy="397.6318521858486" r="0.5854009795415259" fill="#fff" opacity="0.6527758637124115"/><circle cx="666.975346919117" cy="370.2932333505099" r="0.6840013571445396" fill="#fff" opacity="0.5927586708175514"/><circle cx="230.6975342859574" cy="426.6601416078585" r="0.7640200644225881" fill="#fff" opacity="0.2625915783489975"/><circle cx="213.10080895479473" cy="377.67670429077236" r="1.0069310573284889" fill="#fff" opacity="0.593461639551567"/><circle cx="371.6568342092739" cy="305.98194226704214" r="1.031568813460592" fill="#fff" opacity="0.30877408110782356"/><circle cx="228.26457791981875" cy="35.32531407496803" r="0.33121445882205114" fill="#fff" opacity="0.5331798132255448"/><circle cx="141.57786896359576" cy="179.81039634547417" r="0.3494684690760148" fill="#fff" opacity="0.3322204508961723"/><circle cx="506.60399737941543" cy="102.50752182510558" r="0.36190791340790296" fill="#fff" opacity="0.6208937847977929"/><circle cx="160.6624572902172" cy="180.16867157117912" r="0.7804690325957654" fill="#fff" opacity="0.677302682031628"/><circle cx="489.42765639639276" cy="141.02358389291535" r="1.029372905869284" fill="#fff" opacity="0.44691467714165"/><circle cx="769.4003467341565" cy="155.535088849152" r="0.5421419102394025" fill="#fff" opacity="0.5465024651293777"/><circle cx="740.8731523911032" cy="397.30468929995203" r="0.4153886804639456" fill="#fff" opacity="0.6241973885138483"/><circle cx="437.80264324226613" cy="367.4914783471831" r="0.45625724876243234" fill="#fff" opacity="0.29575574079820266"/><circle cx="547.6065159413482" cy="23.55434102858178" r="0.8433703477786028" fill="#fff" opacity="0.5323737410273763"/><circle cx="275.837933843499" cy="368.0222216110603" r="0.5434006369830927" fill="#fff" opacity="0.317893862962676"/><circle cx="680.7450921877676" cy="87.34004414652097" r="0.9051402288548733" fill="#fff" opacity="0.5429931557170454"/><circle cx="651.9852394635373" cy="290.4236269061667" r="0.31753466187012697" fill="#fff" opacity="0.6709587320829733"/><circle cx="281.57927343774804" cy="380.3337462015533" r="0.9773370027991259" fill="#fff" opacity="0.5440339961392602"/><circle cx="103.08173015661816" cy="259.4295786793223" r="0.4748652055323399" fill="#fff" opacity="0.4640701653612502"/><circle cx="85.48390105469448" cy="461.69158444943974" r="0.5369179475705744" fill="#fff" opacity="0.4822159062600855"/><circle cx="16.762244310753793" cy="139.7403969167104" r="0.9404864840757141" fill="#fff" opacity="0.6518766654987869"/><circle cx="639.7732641823262" cy="39.95402147355753" r="0.5835096845280693" fill="#fff" opacity="0.6193898794398096"/><circle cx="141.4780263890819" cy="397.8490345880626" r="0.3391932407364592" fill="#fff" opacity="0.5980515629422221"/><circle cx="30.601387676698266" cy="26.56124895904488" r="0.7731727194884971" fill="#fff" opacity="0.30162244340309713"/><circle cx="108.39572018305006" cy="257.4375619649777" r="0.3787593574535764" fill="#fff" opacity="0.6354391256461045"/><circle cx="145.4098616807527" cy="349.9396004164407" r="0.3813580064629072" fill="#fff" opacity="0.5797633301761174"/><circle cx="235.1276946331094" cy="318.4434869970014" r="1.0285963062433852" fill="#fff" opacity="0.37567849621920346"/><circle cx="130.55091838318393" cy="451.4626616310912" r="0.8120875765554476" fill="#fff" opacity="0.3217500853072669"/><circle cx="390.353382148539" cy="159.679298171697" r="0.6068332012845756" fill="#fff" opacity="0.5778341381383636"/><circle cx="498.8299702351766" cy="331.2295408751986" r="0.8466487500287352" fill="#fff" opacity="0.2278782866058111"/><circle cx="501.1782649143325" cy="73.47980414660155" r="0.7471729319186691" fill="#fff" opacity="0.5150892285234209"/><circle cx="496.98492931510384" cy="440.6731053655681" r="0.9135899286012366" fill="#fff" opacity="0.3110237308590958"/><circle cx="409.4219682781271" cy="173.78013653994202" r="0.47945088244540035" fill="#fff" opacity="0.5853534843875279"/><circle cx="467.68402216440836" cy="67.96434199504075" r="1.021738845692148" fill="#fff" opacity="0.28851170013976773"/><circle cx="514.1166147335097" cy="254.8494962238118" r="0.9701029720032832" fill="#fff" opacity="0.2321259657862827"/><circle cx="88.33788422747277" cy="450.26880007920397" r="0.4613901888608477" fill="#fff" opacity="0.4093159402790392"/><circle cx="569.2054683968503" cy="120.66148984833013" r="0.3244727657039389" fill="#fff" opacity="0.45415973183656827"/><circle cx="141.33688539717397" cy="89.58068554668807" r="0.6740288225346647" fill="#fff" opacity="0.20119950504529405"/><circle cx="785.7286022096606" cy="442.95549979934754" r="0.8346471498541441" fill="#fff" opacity="0.27293179178139754"/><circle cx="449.45411740639304" cy="198.0166919295106" r="0.6197737264949965" fill="#fff" opacity="0.340773611873412"/><circle cx="227.0259286819421" cy="393.77521191856425" r="0.9588697746160355" fill="#fff" opacity="0.4043393523975832"/><circle cx="765.9485158793125" cy="410.0733577368136" r="0.6405628472877245" fill="#fff" opacity="0.5049598413455457"/><circle cx="514.7100763107015" cy="426.3737729880123" r="0.8789186268020424" fill="#fff" opacity="0.4563615367519465"/><circle cx="597.3936577017548" cy="368.1998553065704" r="0.5305552759816885" fill="#fff" opacity="0.46188608709180895"/><circle cx="780.8214388998512" cy="284.77447806358407" r="0.9259494425217945" fill="#fff" opacity="0.6517907944546133"/><circle cx="119.33158849448411" cy="148.78637065044708" r="0.7196813510008733" fill="#fff" opacity="0.684418999960612"/><circle cx="739.3349240997935" cy="218.2324219463388" r="0.8119077805040666" fill="#fff" opacity="0.4039854312351605"/><circle cx="524.8873160353132" cy="18.083976294441417" r="0.41874881211438775" fill="#fff" opacity="0.626362154759428"/><circle cx="654.6644385171435" cy="162.7790537659048" r="0.5148378158309719" fill="#fff" opacity="0.3102250925097313"/><circle cx="484.04444687218114" cy="60.952647995668244" r="0.8146479731402911" fill="#fff" opacity="0.58383689502075"/><circle cx="285.7954246426682" cy="194.51224720005416" r="0.8367349219072409" fill="#fff" opacity="0.37176786802142586"/><circle cx="519.9029305697571" cy="248.95951497490077" r="0.7619255345219341" fill="#fff" opacity="0.23684550488327433"/><circle cx="284.37269775034997" cy="76.80555792608091" r="1.0806049840173202" fill="#fff" opacity="0.4604627226856666"/><circle cx="741.5721483031971" cy="111.56984070232673" r="0.9381562323885282" fill="#fff" opacity="0.26094079699843703"/><circle cx="611.2915100923274" cy="296.3006075246746" r="0.3771770762683679" fill="#fff" opacity="0.20218955010525896"/><circle cx="224.3859642667071" cy="334.91241505072014" r="0.9122956452354929" fill="#fff" opacity="0.3739246960737461"/><circle cx="480.78899503686534" cy="244.97316724948104" r="0.8709234543222784" fill="#fff" opacity="0.5849336539364571"/><circle cx="128.3573488577299" cy="375.9172662369216" r="1.0699631806581484" fill="#fff" opacity="0.3006459010792446"/><circle cx="455.2878693996853" cy="274.3190634693624" r="0.9992651708444196" fill="#fff" opacity="0.32694222184561733"/><circle cx="798.5848787022571" cy="226.50520795526663" r="0.46096007822479806" fill="#fff" opacity="0.2546138499774869"/><circle cx="655.8082556997421" cy="462.47733544819226" r="0.691629052255698" fill="#fff" opacity="0.5665919402066475"/><circle cx="292.4428871236076" cy="237.0594214669643" r="0.41256132155852815" fill="#fff" opacity="0.30927459100652577"/><circle cx="289.5726499585392" cy="453.6732144451426" r="1.0934984479174958" fill="#fff" opacity="0.4970436545389759"/><circle cx="674.4031616287782" cy="401.27626123757886" r="0.6816333177097806" fill="#fff" opacity="0.5634607823302092"/><circle cx="633.8595430792844" cy="466.4779077468473" r="0.3206897864540981" fill="#fff" opacity="0.3350092099376071"/><circle cx="454.6222519064225" cy="185.3565300136139" r="0.9626506908121277" fill="#fff" opacity="0.31776719769197204"/><circle cx="94.04658912624538" cy="227.88776992645765" r="0.4960382774686802" fill="#fff" opacity="0.42225095235264354"/><circle cx="375.90076596312133" cy="101.57854796962602" r="0.7500942097223828" fill="#fff" opacity="0.25773560552413877"/><circle cx="243.18225396715167" cy="296.57553311556927" r="0.3068430752394909" fill="#fff" opacity="0.31815516128873184"/><circle cx="300.43605507512126" cy="201.95247121871657" r="1.0143101587216887" fill="#fff" opacity="0.48206623056816345"/><circle cx="308.98705352842387" cy="450.9581374961779" r="0.8957031468446432" fill="#fff" opacity="0.4963563092051366"/><circle cx="278.7118375941965" cy="116.95414535381504" r="0.6124896053900353" fill="#fff" opacity="0.6907325290543296"/><circle cx="355.3622160243603" cy="230.10313491099072" r="0.373442561888431" fill="#fff" opacity="0.27551093515311353"/><circle cx="438.38670156191756" cy="144.3218521354957" r="0.40255936588786023" fill="#fff" opacity="0.2493203067358738"/><circle cx="477.93165496713436" cy="179.48119955337526" r="0.5621243063207901" fill="#fff" opacity="0.6407088108431385"/><circle cx="455.43233304189056" cy="40.16908363759148" r="1.0702175570018253" fill="#fff" opacity="0.590955279292062"/><circle cx="579.5999076853982" cy="466.4038195331659" r="0.49257034442252356" fill="#fff" opacity="0.44617729646864845"/><circle cx="135.48498657910625" cy="361.46053099861814" r="0.7822837859847698" fill="#fff" opacity="0.47300379623453365"/><circle cx="61.77063075574365" cy="491.0503857335001" r="0.7676569450773304" fill="#fff" opacity="0.45669902135516993"/><circle cx="168.01625603633354" cy="25.904281980621448" r="0.4192525024198477" fill="#fff" opacity="0.34579262626577434"/><circle cx="401.6106531252799" cy="234.4013867311407" r="0.7177293290101835" fill="#fff" opacity="0.6173569772399092"/><circle cx="268.72425302644035" cy="411.7285801588748" r="0.4580222806465736" fill="#fff" opacity="0.2523084389491334"/><circle cx="397.7876987596806" cy="175.8657245753169" r="0.43724232266413576" fill="#fff" opacity="0.5580311403330437"/><circle cx="426.3429719190172" cy="424.6875583934505" r="0.4262219881559967" fill="#fff" opacity="0.447425947275"/><circle cx="514.9911828437293" cy="304.29257491675577" r="0.8283954225802059" fill="#fff" opacity="0.42722973082042015"/><circle cx="225.39621195942462" cy="147.7684061677116" r="0.3944876781495063" fill="#fff" opacity="0.30484524821577724"/><circle cx="243.40375901901973" cy="494.5789290256186" r="0.8323695281538654" fill="#fff" opacity="0.5399745806707817"/><circle cx="703.7012001115841" cy="486.9449563401849" r="0.5608016293659158" fill="#fff" opacity="0.628994384013507"/><circle cx="400.8498223791447" cy="233.3581551449039" r="0.6834956696383121" fill="#fff" opacity="0.2975617906650248"/><circle cx="715.6456642871351" cy="390.8062048481233" r="0.4253578204824852" fill="#fff" opacity="0.29012578757946567"/><circle cx="119.04574637537024" cy="263.02495938579125" r="0.9160897633370833" fill="#fff" opacity="0.6266223073675343"/><circle cx="636.0387641011343" cy="307.06361234575485" r="1.097752825160527" fill="#fff" opacity="0.21542236785994617"/><circle cx="465.4583380801174" cy="85.51697267057817" r="0.733221836986822" fill="#fff" opacity="0.3145307188371473"/><circle cx="688.3021440004059" cy="97.87778132638225" r="0.36726713026044777" fill="#fff" opacity="0.5013562405983596"/><circle cx="529.0973806785985" cy="327.4806488037985" r="0.3394780167468424" fill="#fff" opacity="0.626223483213229"/><circle cx="784.2164205046502" cy="305.72162482479683" r="0.5243346339990494" fill="#fff" opacity="0.2662517535139652"/><circle cx="536.0876849601436" cy="85.0504417722256" r="1.0350100916631164" fill="#fff" opacity="0.3866597307798685"/><circle cx="371.0221060080594" cy="56.14281948251809" r="0.6362944608931396" fill="#fff" opacity="0.38189884210197855"/><circle cx="262.15166053668685" cy="384.4102495529657" r="0.5500343111119574" fill="#fff" opacity="0.28228079950218293"/><circle cx="741.3227644216861" cy="386.4027864323485" r="0.9398821727089777" fill="#fff" opacity="0.5911660167681211"/><circle cx="729.3738297703605" cy="192.91581304188006" r="0.6284439931535719" fill="#fff" opacity="0.32148131195609175"/><circle cx="717.35016802207" cy="185.36958222757204" r="0.6029817445459145" fill="#fff" opacity="0.38940552298350994"/><circle cx="471.56902213381625" cy="281.1209843350763" r="0.9636615564447475" fill="#fff" opacity="0.5742602998819084"/><circle cx="340.83681360536707" cy="195.8647199847759" r="0.660569617980054" fill="#fff" opacity="0.4610927565294972"/><circle cx="206.61513388876065" cy="227.76500582212432" r="0.7826912570606398" fill="#fff" opacity="0.5190458001790971"/><circle cx="214.34521590252595" cy="171.49154469654687" r="0.36789093274162593" fill="#fff" opacity="0.359709875400276"/><circle cx="496.14780944622055" cy="151.93864768259567" r="1.0473932490285243" fill="#fff" opacity="0.21366058832925705"/><circle cx="153.078636958835" cy="308.46713016016247" r="1.072912631285743" fill="#fff" opacity="0.4397812047263721"/><circle cx="315.7969387710725" cy="195.63296341266667" r="0.9623927901777394" fill="#fff" opacity="0.6787963188661239"/><circle cx="66.86848523601103" cy="157.68293956308764" r="1.0034667628901903" fill="#fff" opacity="0.33139480047389624"/><circle cx="724.306132496958" cy="128.3266481962672" r="0.39177691756795585" fill="#fff" opacity="0.5877944113687945"/><circle cx="792.9731510849809" cy="316.07697033216135" r="1.0182077146240214" fill="#fff" opacity="0.317266384896711"/><circle cx="290.0846976933531" cy="112.10181418273346" r="0.6880244350469261" fill="#fff" opacity="0.259345683822537"/><circle cx="329.2489093093291" cy="478.9048736107664" r="0.7593386704369494" fill="#fff" opacity="0.5320912005819254"/><circle cx="304.2020177977712" cy="418.0504151929108" r="0.491995862921749" fill="#fff" opacity="0.560721905666673"/><circle cx="185.98430091997216" cy="188.0350642506966" r="0.4501267834795475" fill="#fff" opacity="0.46191656811490767"/><circle cx="543.7927335738344" cy="395.9385684302549" r="0.8963222363635406" fill="#fff" opacity="0.43731065120426976"/><circle cx="327.9786764267514" cy="417.2407846966394" r="0.6282715634803587" fill="#fff" opacity="0.671220451857352"/><circle cx="354.8674500565481" cy="294.19380948605004" r="0.8325562764968641" fill="#fff" opacity="0.5378386237187736"/><circle cx="22.48849929372252" cy="264.8853166794702" r="1.000814664712669" fill="#fff" opacity="0.5781032949439193"/><circle cx="34.33610616592091" cy="347.1697258449294" r="0.3675296480311789" fill="#fff" opacity="0.42401385543127423"/><circle cx="535.7549474993839" cy="264.6167498854135" r="0.5796630343294732" fill="#fff" opacity="0.24919873345975674"/><circle cx="613.2621304876142" cy="211.49383142480826" r="1.0691896789981283" fill="#fff" opacity="0.619938880352306"/><circle cx="406.1770084723989" cy="195.81813801262226" r="0.9817196129330661" fill="#fff" opacity="0.618986881356502"/><circle cx="171.97010354833955" cy="280.25433025296815" r="0.72880680013506" fill="#fff" opacity="0.33197107749426064"/><circle cx="308.7635550241037" cy="351.8847817789683" r="0.6043637005652661" fill="#fff" opacity="0.6968941312179371"/><circle cx="46.382290815368066" cy="257.2800784883135" r="0.33672452221750493" fill="#fff" opacity="0.5417310208436306"/><circle cx="258.4212271593521" cy="288.1364486533019" r="0.8938488480623814" fill="#fff" opacity="0.6951971061572402"/><circle cx="410.6745484870153" cy="299.4384112969852" r="1.0745315484645894" fill="#fff" opacity="0.3927064089652485"/><circle cx="171.2928427906271" cy="143.7364290303454" r="0.4235080095974154" fill="#fff" opacity="0.20360491494451527"/><circle cx="20.801651834739232" cy="205.1238674807222" r="0.6064189961645938" fill="#fff" opacity="0.2486899064615098"/><circle cx="551.9735136093735" cy="95.9428309756395" r="0.7209370639374042" fill="#fff" opacity="0.40551734384711813"/><circle cx="624.4295270582838" cy="61.72953207306542" r="0.7294680897672929" fill="#fff" opacity="0.46287854100273024"/><circle cx="306.6156796819172" cy="150.8974828247387" r="0.6039741807065904" fill="#fff" opacity="0.6396448016913947"/><circle cx="423.49558168796824" cy="375.98953538360183" r="0.6997684690757211" fill="#fff" opacity="0.3979420097088789"/><circle cx="166.94099302174462" cy="162.7266414904297" r="0.9838330018924135" fill="#fff" opacity="0.303527112982835"/><circle cx="756.3857189749903" cy="326.9378171376908" r="0.682634561925421" fill="#fff" opacity="0.3328825115017879"/><circle cx="328.38881888566743" cy="294.3696816612106" r="1.0677794493996897" fill="#fff" opacity="0.4210908574534293"/><circle cx="295.67793388706514" cy="188.46513699251517" r="0.9815626043752419" fill="#fff" opacity="0.6438276498932753"/>
<g transform="translate(400,260)">
  <!-- bow shock / magnetopause -->
  <ellipse cx="0" cy="0" rx="180" ry="160" fill="none" stroke="#22d3ee" stroke-width="1.5" opacity="0.5"/>
  <ellipse cx="0" cy="0" rx="240" ry="200" fill="none" stroke="#22d3ee" stroke-width="0.8" opacity="0.3" stroke-dasharray="4 4"/>
  <!-- van allen belts -->
  <ellipse cx="0" cy="0" rx="150" ry="135" fill="url(#belt)"/>
  <ellipse cx="0" cy="0" rx="170" ry="155" fill="url(#belt)" opacity="0.5"/>
  <!-- earth -->
  <circle r="80" fill="url(#earth)"/>
  <path d="M -60 -30 Q -30 -50 0 -40 Q 30 -30 60 -20" fill="none" stroke="#22d3ee" stroke-width="1" opacity="0.4"/>
  <path d="M -50 10 Q -20 0 10 15 Q 40 30 60 25" fill="none" stroke="#10b981" stroke-width="1" opacity="0.4"/>
  <!-- field lines -->
  <path d="M -100 -50 Q 0 -200 100 -50" fill="none" stroke="#22d3ee" stroke-width="1.2" opacity="0.6"/>
  <path d="M -100 50 Q 0 200 100 50" fill="none" stroke="#22d3ee" stroke-width="1.2" opacity="0.6"/>
  <!-- solar wind particles from left -->
  <circle cx="-400" cy="-154" r="1.5" fill="#fde68a" opacity="0.7"/><circle cx="-392" cy="-132" r="1.5" fill="#fde68a" opacity="0.7"/><circle cx="-384" cy="-110" r="1.5" fill="#fde68a" opacity="0.7"/><circle cx="-376" cy="-88" r="1.5" fill="#fde68a" opacity="0.7"/><circle cx="-368" cy="-66" r="1.5" fill="#fde68a" opacity="0.7"/><circle cx="-360" cy="-44" r="1.5" fill="#fde68a" opacity="0.7"/><circle cx="-352" cy="-22" r="1.5" fill="#fde68a" opacity="0.7"/><circle cx="-344" cy="0" r="1.5" fill="#fde68a" opacity="0.7"/><circle cx="-336" cy="22" r="1.5" fill="#fde68a" opacity="0.7"/><circle cx="-328" cy="44" r="1.5" fill="#fde68a" opacity="0.7"/><circle cx="-320" cy="66" r="1.5" fill="#fde68a" opacity="0.7"/><circle cx="-312" cy="88" r="1.5" fill="#fde68a" opacity="0.7"/><circle cx="-304" cy="110" r="1.5" fill="#fde68a" opacity="0.7"/><circle cx="-296" cy="132" r="1.5" fill="#fde68a" opacity="0.7"/>
  <path d="M -380 -100 L -100 0" stroke="#fde68a" stroke-width="1" opacity="0.4" stroke-dasharray="3 3"/>
  <path d="M -380 100 L -100 0" stroke="#fde68a" stroke-width="1" opacity="0.4" stroke-dasharray="3 3"/>
</g>
</svg>