<svg xmlns="http://www.w3.org/2000/svg" viewBox="0 0 800 500" preserveAspectRatio="xMidYMid slice" width="100%" height="100%">
<defs>
  <linearGradient id="bg" x1="0" y1="0" x2="0" y2="1">
    <stop offset="0%" stop-color="#020617"/>
    <stop offset="100%" stop-color="#000"/>
  </linearGradient>
  <radialGradient id="star" cx="50%" cy="50%" r="50%">
    <stop offset="0%" stop-color="#fff"/>
    <stop offset="30%" stop-color="#fef3c7"/>
    <stop offset="100%" stop-color="#dc2626" stop-opacity="0"/>
  </radialGradient>
  <radialGradient id="planet" cx="50%" cy="50%" r="50%">
    <stop offset="0%" stop-color="#22d3ee"/>
    <stop offset="60%" stop-color="#0c4a6e"/>
    <stop offset="100%" stop-color="#000"/>
  </radialGradient>
</defs>
<rect width="800" height="500" fill="url(#bg)"/>
<circle cx="175.24769031743227" cy="275.9212836386441" r="0.616185742797749" fill="#fff" opacity="0.3389319708778243"/><circle cx="341.7466459156199" cy="329.28797669734377" r="0.9024102229721243" fill="#fff" opacity="0.5461995630316061"/><circle cx="763.7333415002238" cy="246.76670028935055" r="0.6486052415112096" fill="#fff" opacity="0.24649871729924105"/><circle cx="48.73415794417362" cy="382.4848632538252" r="0.4481236350423208" fill="#fff" opacity="0.5542041987906878"/><circle cx="576.6693244521093" cy="287.08384166941784" r="0.5849317019251005" fill="#fff" opacity="0.3952050724364172"/><circle cx="57.488743485143786" cy="119.40814850797682" r="1.0825917084404226" fill="#fff" opacity="0.5027696824376351"/><circle cx="654.0391624491967" cy="43.954155596390045" r="0.4384960098574079" fill="#fff" opacity="0.2996008534405068"/><circle cx="16.552649398389896" cy="487.2037057719054" r="0.66238980882296" fill="#fff" opacity="0.2394795310447438"/><circle cx="663.8509466062295" cy="41.78028303100201" r="0.6795740814825378" fill="#fff" opacity="0.4647153091624869"/><circle cx="30.99145557039309" cy="427.39619796518593" r="0.3862363609040556" fill="#fff" opacity="0.5628104013714599"/><circle cx="368.1627122998282" cy="348.6871417943139" r="0.41779602876817484" fill="#fff" opacity="0.36481809395692855"/><circle cx="228.5600874359079" cy="319.74075710393004" r="0.8025026598419287" fill="#fff" opacity="0.5595543940169003"/><circle cx="107.67824451838707" cy="313.72173008542" r="0.7031776442442792" fill="#fff" opacity="0.6649016744551386"/><circle cx="379.077728951211" cy="479.08671992176295" r="0.9838169421401772" fill="#fff" opacity="0.3815718085113057"/><circle cx="643.8977510332498" cy="487.23557115258814" r="0.541136787207672" fill="#fff" opacity="0.6717214270151494"/><circle cx="244.6535061677988" cy="96.85674643703207" r="1.035341699634183" fill="#fff" opacity="0.6017238075528812"/><circle cx="662.893194987064" cy="269.17603993202766" r="0.6109754795011575" fill="#fff" opacity="0.4831449794270803"/><circle cx="25.836370605286962" cy="426.84812895411227" r="0.5500511656676118" fill="#fff" opacity="0.5907424366341499"/><circle cx="250.1565724724636" cy="14.541067053948476" r="0.47311328653071205" fill="#fff" opacity="0.25972595105494223"/><circle cx="173.04211162487456" cy="412.7537393128551" r="0.6208345899843972" fill="#fff" opacity="0.23500197177816462"/><circle cx="13.373227054677539" cy="227.4682153610702" r="0.5572186598530402" fill="#fff" opacity="0.35320470377005564"/><circle cx="218.89089129985092" cy="71.90955725128157" r="0.9591661155981279" fill="#fff" opacity="0.6872139131874393"/><circle cx="15.522306944301434" cy="325.99677783854804" r="0.42079301056450485" fill="#fff" opacity="0.5757092505865353"/><circle cx="457.3245483041215" cy="480.7315850982051" r="0.8031870624040616" fill="#fff" opacity="0.4810576466740883"/><circle cx="289.77503268045865" cy="198.46819125939953" r="0.49759340513996364" fill="#fff" opacity="0.2546406063646811"/><circle cx="94.9633816729409" cy="396.46230996699796" r="1.095803848733111" fill="#fff" opacity="0.253139101568652"/><circle cx="197.89989993266462" cy="31.79473898631263" r="0.6674802163666691" fill="#fff" opacity="0.43584485730682326"/><circle cx="594.89399904107" cy="333.20906293294036" r="0.9632882835449803" fill="#fff" opacity="0.26450309601155175"/><circle cx="127.25065871815202" cy="224.3295599232807" r="0.9118857002563192" fill="#fff" opacity="0.2657025912563624"/><circle cx="33.37430087865974" cy="17.572113300855065" r="0.5247743866358531" fill="#fff" opacity="0.5328067598551478"/><circle cx="671.0761290841779" cy="185.51123936800317" r="0.3777853550879805" fill="#fff" opacity="0.42613115372239185"/><circle cx="26.35110739756783" cy="159.14923949995045" r="0.42838310600439466" fill="#fff" opacity="0.6969052984408987"/><circle cx="120.25918402460745" cy="183.9592769378977" r="0.9481715884965738" fill="#fff" opacity="0.6127508555698201"/><circle cx="307.7620976691107" cy="249.8161082116589" r="0.8265640933475245" fill="#fff" opacity="0.39790135002857324"/><circle cx="191.48148916027088" cy="54.16639234944404" r="0.519288671321788" fill="#fff" opacity="0.6505525667277081"/><circle cx="610.7485275983763" cy="11.153289394135346" r="0.8087455168503486" fill="#fff" opacity="0.3017909393159975"/><circle cx="164.05092577748403" cy="488.3708344798438" r="0.5685068710136107" fill="#fff" opacity="0.3688058361271801"/><circle cx="762.2480334408064" cy="474.16015511009937" r="1.0770847296407855" fill="#fff" opacity="0.6925857759916985"/><circle cx="111.6122391681536" cy="98.84810008150313" r="0.7404923073457679" fill="#fff" opacity="0.36806142972693345"/><circle cx="21.642766924288814" cy="464.2854177710851" r="0.609169343750513" fill="#fff" opacity="0.30571281455331656"/><circle cx="395.7548299175656" cy="390.29869796547155" r="0.7549086723058598" fill="#fff" opacity="0.4423173287734603"/><circle cx="379.4550496846224" cy="476.8050278964688" r="0.4193933171333418" fill="#fff" opacity="0.5312558223709039"/><circle cx="669.5336676880909" cy="379.14006360093174" r="0.5995736403442564" fill="#fff" opacity="0.5649665804397249"/><circle cx="281.0588586869076" cy="51.53399550036847" r="0.9313706910634001" fill="#fff" opacity="0.5989349073181673"/><circle cx="787.6049020331594" cy="403.70225882697554" r="0.6902549081877623" fill="#fff" opacity="0.4033387930859969"/><circle cx="381.4529832176138" cy="87.83413445435446" r="0.35212109322574925" fill="#fff" opacity="0.2816263606827013"/><circle cx="639.4326172672775" cy="449.25576525574" r="0.8028818646308284" fill="#fff" opacity="0.49989533857138163"/><circle cx="763.1331255022226" cy="157.62497415944216" r="0.791932413698929" fill="#fff" opacity="0.4826922157276374"/><circle cx="493.05520656199144" cy="192.60754806549534" r="0.8116125452991749" fill="#fff" opacity="0.4724664981168498"/><circle cx="321.60647469264933" cy="163.33501012778783" r="0.5548426049849444" fill="#fff" opacity="0.6904940708202946"/><circle cx="172.5242248209236" cy="325.0658760009916" r="0.6925214695761763" fill="#fff" opacity="0.3399942404472576"/><circle cx="570.7998940773014" cy="146.88630695642573" r="0.583656087270574" fill="#fff" opacity="0.2781601802347086"/><circle cx="790.1855044448967" cy="171.6850109442597" r="0.6699755539547718" fill="#fff" opacity="0.38493267874516524"/><circle cx="693.8008274172196" cy="371.0439943992477" r="0.9548015305600821" fill="#fff" opacity="0.5827547243640421"/><circle cx="481.93593333854847" cy="58.2914510960677" r="0.5567394099315025" fill="#fff" opacity="0.3565376594279717"/><circle cx="214.1733432257185" cy="440.4613946467645" r="0.7387928163233115" fill="#fff" opacity="0.5667343757491705"/><circle cx="752.9183176382136" cy="167.26077313852167" r="0.6034143225693955" fill="#fff" opacity="0.5075030245286877"/><circle cx="777.005292758274" cy="63.33924963427157" r="0.8799643879239976" fill="#fff" opacity="0.6199974720695892"/><circle cx="613.4954135151613" cy="55.1261341616548" r="0.7866885437937525" fill="#fff" opacity="0.29447954405472127"/><circle cx="15.054386555932986" cy="138.66498750745592" r="1.0959368454719753" fill="#fff" opacity="0.2282050795472234"/><circle cx="735.7864483028166" cy="143.9354225756827" r="0.3283922835601702" fill="#fff" opacity="0.23253682331390801"/><circle cx="277.1258596613147" cy="240.749728695975" r="0.3265842599509787" fill="#fff" opacity="0.6752723874013142"/><circle cx="94.23865303300136" cy="75.35951117013401" r="0.5856099500680375" fill="#fff" opacity="0.33417233369789656"/><circle cx="43.62889011543647" cy="415.24753670034823" r="1.0966425089192844" fill="#fff" opacity="0.3302466636625561"/><circle cx="541.0534923430563" cy="59.3222346684818" r="0.3655265478589581" fill="#fff" opacity="0.3816626395252119"/><circle cx="317.3836873454737" cy="368.46014955166476" r="0.4903721712034449" fill="#fff" opacity="0.655011809414402"/><circle cx="390.121427473528" cy="198.61286542544016" r="0.5862189542286195" fill="#fff" opacity="0.6452341715389134"/><circle cx="111.61795545406488" cy="375.9080056426947" r="0.9147092012516975" fill="#fff" opacity="0.3265566507499437"/><circle cx="580.4877511127333" cy="254.38550002869914" r="0.9155102726215472" fill="#fff" opacity="0.3736859749409674"/><circle cx="604.0982594076205" cy="242.88945784670685" r="0.9122043128884065" fill="#fff" opacity="0.4554043674606583"/><circle cx="446.99838689067326" cy="455.17300925183304" r="0.38362574456965365" fill="#fff" opacity="0.6784305112501132"/><circle cx="76.53007145767239" cy="99.82722242917002" r="1.0185756499187417" fill="#fff" opacity="0.49055739990020125"/><circle cx="625.0328753853797" cy="296.1349364773589" r="0.8587907721466923" fill="#fff" opacity="0.6811261191724987"/><circle cx="202.38380591235926" cy="241.10155131036288" r="0.8217368711809481" fill="#fff" opacity="0.3294207348892352"/><circle cx="764.3505156508264" cy="270.69570037933556" r="0.5744679606918747" fill="#fff" opacity="0.532457987470926"/><circle cx="231.61894976767047" cy="440.5157569880754" r="1.0365878344053392" fill="#fff" opacity="0.5163339895623271"/><circle cx="738.8540886997905" cy="375.50494397363804" r="1.0170215403176592" fill="#fff" opacity="0.350570297649974"/><circle cx="163.39660740457217" cy="474.26906497062174" r="1.007008566201427" fill="#fff" opacity="0.4307529092726947"/><circle cx="626.9770014021798" cy="61.59571582786422" r="0.5906446017928686" fill="#fff" opacity="0.32788105102789517"/><circle cx="207.69733118162037" cy="127.60682458849593" r="0.34475546383965605" fill="#fff" opacity="0.6399940181185195"/><circle cx="582.992490233223" cy="9.389363002670237" r="0.4132170298994538" fill="#fff" opacity="0.4194633671692946"/><circle cx="325.3261791508507" cy="321.1724600328253" r="0.7480570089228286" fill="#fff" opacity="0.6920103440460436"/><circle cx="169.17011837106114" cy="56.05911125262403" r="0.8661692260723459" fill="#fff" opacity="0.5457711396257974"/><circle cx="661.0463461253348" cy="415.7618102800597" r="0.9035740637956897" fill="#fff" opacity="0.3122487887067382"/><circle cx="506.2072134116947" cy="312.58018141499" r="0.9552865804288542" fill="#fff" opacity="0.42389572931012665"/><circle cx="739.6518050277489" cy="265.4948295062795" r="0.41234019125756555" fill="#fff" opacity="0.6488571439404159"/><circle cx="345.73628027086676" cy="438.97881631322605" r="0.3815478878026831" fill="#fff" opacity="0.6933135524136909"/><circle cx="19.40602091809529" cy="6.629465557777159" r="0.7991507153655998" fill="#fff" opacity="0.5483746160062708"/><circle cx="1.548879446192597" cy="155.6615823813449" r="0.8141590994956658" fill="#fff" opacity="0.5910839043177456"/><circle cx="162.81531774755703" cy="302.00972559808343" r="0.3007417375283941" fill="#fff" opacity="0.27477502451128133"/><circle cx="104.69389258177611" cy="108.06865631881723" r="0.40528280414373163" fill="#fff" opacity="0.49637458951981606"/><circle cx="262.88489180361427" cy="332.9100259167099" r="0.5687393827654396" fill="#fff" opacity="0.4498099506878167"/><circle cx="395.5444650886643" cy="181.9243646033602" r="0.5738153890369472" fill="#fff" opacity="0.49375395850835463"/><circle cx="367.2408776301403" cy="130.9484021998592" r="0.851456215594433" fill="#fff" opacity="0.27312815404800844"/><circle cx="140.17140636694504" cy="383.73218798672895" r="0.6713816279396139" fill="#fff" opacity="0.5352481781138361"/><circle cx="706.8886992609798" cy="347.4739772444028" r="0.3863489421052967" fill="#fff" opacity="0.34360057651354026"/><circle cx="152.38527167380516" cy="409.1615472505303" r="0.5257886566193644" fill="#fff" opacity="0.6459642463845215"/><circle cx="698.9271595109897" cy="10.187223271883482" r="1.082040226784827" fill="#fff" opacity="0.6195869065912132"/><circle cx="7.681101143760927" cy="9.02109226367992" r="0.3790809749233103" fill="#fff" opacity="0.2884590262091616"/><circle cx="162.2133584657053" cy="496.53745683199514" r="0.47199249075978156" fill="#fff" opacity="0.6725199474177702"/><circle cx="571.1462438624162" cy="264.3636913134083" r="0.8443083404378098" fill="#fff" opacity="0.23308190254674188"/><circle cx="628.8135975214958" cy="203.88058984378134" r="0.47834592770254875" fill="#fff" opacity="0.4544687882114092"/><circle cx="279.2528994492094" cy="203.62548235076827" r="0.5722035788102344" fill="#fff" opacity="0.6709954742549966"/><circle cx="317.5421489895936" cy="351.6633586752324" r="0.5549740314587559" fill="#fff" opacity="0.5218989524373339"/><circle cx="99.01637247472088" cy="272.4688166943512" r="0.9011290864820192" fill="#fff" opacity="0.22675248832367884"/><circle cx="773.192999706047" cy="76.76040324818013" r="0.9488268016740671" fill="#fff" opacity="0.39719341679977294"/><circle cx="582.7715937362806" cy="298.3523770925731" r="0.6848377561560222" fill="#fff" opacity="0.3003869661379555"/><circle cx="179.99233672289768" cy="3.071191589335387" r="0.6822998294088873" fill="#fff" opacity="0.3123302137201915"/><circle cx="337.07477153559296" cy="0.32987130307754464" r="0.8086725030797459" fill="#fff" opacity="0.3662520747521637"/><circle cx="754.1225457699371" cy="488.64319137683503" r="1.079468054348813" fill="#fff" opacity="0.30729153214162563"/><circle cx="115.47335812808556" cy="330.62676977224396" r="0.3913585247590813" fill="#fff" opacity="0.2180535161106657"/><circle cx="709.912773661743" cy="43.04635433810361" r="1.0219723769021962" fill="#fff" opacity="0.6744240054661667"/><circle cx="111.30916718133506" cy="266.72353454916623" r="0.3705519428509777" fill="#fff" opacity="0.42341519140112743"/><circle cx="754.5849403472853" cy="232.706901662804" r="0.7982773874426343" fill="#fff" opacity="0.37051880040702606"/><circle cx="766.4946785131476" cy="105.82778326930892" r="0.4605112016976081" fill="#fff" opacity="0.5540229015492397"/><circle cx="189.35144554442874" cy="318.9107127830499" r="0.522041687674937" fill="#fff" opacity="0.3682013688513678"/><circle cx="263.65530688412235" cy="357.152206034242" r="0.7462469504433007" fill="#fff" opacity="0.47305035010564533"/><circle cx="345.61962321299563" cy="170.7835016176929" r="1.0751282460570726" fill="#fff" opacity="0.6010324110696772"/><circle cx="793.3447631080087" cy="192.89179571977942" r="0.4100036368462261" fill="#fff" opacity="0.49411875256421106"/><circle cx="438.42584860725714" cy="334.52526889918465" r="0.6314949322859215" fill="#fff" opacity="0.634100635132287"/><circle cx="253.31734618227665" cy="232.03283397103186" r="0.3650702666729423" fill="#fff" opacity="0.31326893323153854"/><circle cx="685.051246772671" cy="153.19524254930639" r="0.3265346158834472" fill="#fff" opacity="0.5481964441787202"/><circle cx="154.23007435402357" cy="471.90591378755755" r="0.5450692708303148" fill="#fff" opacity="0.4284151192318174"/><circle cx="265.9223018309093" cy="111.72694546882977" r="1.0187625446082955" fill="#fff" opacity="0.2274914990063278"/><circle cx="499.4837253465125" cy="274.60563866747265" r="0.7014854979542204" fill="#fff" opacity="0.5942996126143355"/><circle cx="203.26605162658922" cy="59.3745462940618" r="0.7268902629485587" fill="#fff" opacity="0.6021623346679825"/><circle cx="279.37251183458136" cy="168.39973691661692" r="0.5562474603321034" fill="#fff" opacity="0.5961716175696968"/><circle cx="23.030911558042355" cy="198.52528911433325" r="0.7647492372486959" fill="#fff" opacity="0.6450395150935058"/><circle cx="623.7620059383921" cy="268.6630892062924" r="0.5394634256901502" fill="#fff" opacity="0.43392460935653765"/><circle cx="62.92383047772638" cy="113.66202538882847" r="0.6190138131479868" fill="#fff" opacity="0.20412317323953666"/><circle cx="348.88802009686646" cy="55.62719371264729" r="0.7377309798453148" fill="#fff" opacity="0.6522084276962555"/><circle cx="148.88475839911334" cy="43.91310877825971" r="0.8008235549962537" fill="#fff" opacity="0.21659910340756483"/><circle cx="508.42771923476147" cy="29.294648253353095" r="0.9527457701703241" fill="#fff" opacity="0.3567252609252122"/><circle cx="178.99014711180666" cy="444.0749013205397" r="0.45759305077007467" fill="#fff" opacity="0.31737560787424973"/><circle cx="565.7808048569125" cy="71.15076051013358" r="0.3636209030556052" fill="#fff" opacity="0.48900543688957127"/><circle cx="273.20240170179255" cy="478.4382098309864" r="0.6084675554835468" fill="#fff" opacity="0.48879654538205847"/><circle cx="553.6783457815636" cy="422.84971348965485" r="0.30573896486968816" fill="#fff" opacity="0.4830664090066484"/><circle cx="779.545346013243" cy="43.62973566171141" r="0.5678868035258733" fill="#fff" opacity="0.5203136864903429"/><circle cx="756.5083517405371" cy="337.84812570892706" r="0.8704464824485596" fill="#fff" opacity="0.31468172836524616"/><circle cx="301.9732403052918" cy="321.65950505312486" r="0.4557223281904039" fill="#fff" opacity="0.5859532664061193"/>
<!-- star -->
<g transform="translate(140,360)">
  <circle r="50" fill="url(#star)"/>
  <circle r="20" fill="#fff" opacity="0.8"/>
</g>
<!-- 7 planets on orbital paths -->
<circle cx="500" cy="350" r="60" fill="none" stroke="#22d3ee" stroke-width="0.4" opacity="0.3"/>
<circle cx="560" cy="350" r="4" fill="#22d3ee" opacity="0.9"/><circle cx="500" cy="350" r="90" fill="none" stroke="#22d3ee" stroke-width="0.4" opacity="0.3"/>
<circle cx="590" cy="350" r="4.6" fill="#0ea5e9" opacity="0.9"/><circle cx="500" cy="350" r="120" fill="none" stroke="#22d3ee" stroke-width="0.4" opacity="0.3"/>
<circle cx="620" cy="350" r="5.2" fill="#3b82f6" opacity="0.9"/><circle cx="500" cy="350" r="150" fill="none" stroke="#22d3ee" stroke-width="0.4" opacity="0.3"/>
<circle cx="650" cy="350" r="5.8" fill="#1d4ed8" opacity="0.9"/><circle cx="500" cy="350" r="185" fill="none" stroke="#22d3ee" stroke-width="0.4" opacity="0.3"/>
<circle cx="685" cy="350" r="6.4" fill="#0c4a6e" opacity="0.9"/><circle cx="500" cy="350" r="220" fill="none" stroke="#22d3ee" stroke-width="0.4" opacity="0.3"/>
<circle cx="720" cy="350" r="7" fill="#a78bfa" opacity="0.9"/><circle cx="500" cy="350" r="260" fill="none" stroke="#22d3ee" stroke-width="0.4" opacity="0.3"/>
<circle cx="760" cy="350" r="7.6" fill="#c4b5fd" opacity="0.9"/>
</svg>