<svg xmlns="http://www.w3.org/2000/svg" viewBox="0 0 800 500" preserveAspectRatio="xMidYMid slice" width="100%" height="100%">
<defs>
  <linearGradient id="bg" x1="0" y1="0" x2="0" y2="1">
    <stop offset="0%" stop-color="#02010a"/>
    <stop offset="100%" stop-color="#0a0a1f"/>
  </linearGradient>
  <radialGradient id="oumuamua" cx="50%" cy="50%" r="50%">
    <stop offset="0%" stop-color="#fff"/>
    <stop offset="40%" stop-color="#c4b5fd"/>
    <stop offset="100%" stop-color="#6366f1" stop-opacity="0"/>
  </radialGradient>
</defs>
<rect width="800" height="500" fill="url(#bg)"/>
<circle cx="521.0536180639456" cy="433.45766876497964" r="1.349307581335347" fill="#fff" opacity="0.3355991174623749"/><circle cx="487.2969900053969" cy="480.7525502535665" r="1.1484307549209507" fill="#fff" opacity="0.39282934321559443"/><circle cx="784.6131734995375" cy="94.40338115813951" r="1.1745710055346785" fill="#fff" opacity="0.634845025321554"/><circle cx="172.97717406788823" cy="195.33055013841226" r="1.2572364267497622" fill="#fff" opacity="0.9110121042860087"/><circle cx="300.62441358206013" cy="3.7872043246195974" r="1.450274073697605" fill="#fff" opacity="0.3533017795253709"/><circle cx="93.7394126862051" cy="340.7274263324433" r="0.6278994030297897" fill="#fff" opacity="0.4850757193423243"/><circle cx="678.966223856095" cy="201.84946006632148" r="0.9480440431120873" fill="#fff" opacity="0.38485382353135705"/><circle cx="785.7161933004011" cy="277.53421163389146" r="0.8199598943443729" fill="#fff" opacity="0.7705685389334125"/><circle cx="718.3659699216929" cy="291.059009020478" r="0.7013365954989175" fill="#fff" opacity="0.31600618831715854"/><circle cx="460.9897389086677" cy="304.0613564548135" r="0.6428995019159103" fill="#fff" opacity="0.8394481021144238"/><circle cx="14.058735992476379" cy="279.7246757103807" r="0.7776891134792305" fill="#fff" opacity="0.7187347551647945"/><circle cx="518.0200908556786" cy="62.23983392820387" r="0.35505490693439534" fill="#fff" opacity="0.6832915325730731"/><circle cx="538.5733767497181" cy="335.46468888482786" r="1.4873644323147062" fill="#fff" opacity="0.7020117688362265"/><circle cx="340.68203095236794" cy="5.629836785627951" r="0.7046448076401004" fill="#fff" opacity="0.9657231520099228"/><circle cx="197.33100906150094" cy="476.32731490281134" r="0.8317961799254854" fill="#fff" opacity="0.4453569415078126"/><circle cx="655.1077447742335" cy="273.0562349939977" r="0.9385209305347126" fill="#fff" opacity="0.31866740156714335"/><circle cx="489.15739744545004" cy="108.4408568728693" r="0.40686646577295443" fill="#fff" opacity="0.9220342434690474"/><circle cx="534.0664265066642" cy="159.17963369246706" r="1.3562373311090543" fill="#fff" opacity="0.694884799503898"/><circle cx="593.2398605751093" cy="239.24621002734452" r="1.3531113842540494" fill="#fff" opacity="0.5343410452709998"/><circle cx="298.66987588919096" cy="211.96482277605904" r="1.0341159847765768" fill="#fff" opacity="0.8730883111637129"/><circle cx="618.4404883245221" cy="404.59524731670246" r="1.4209413382543195" fill="#fff" opacity="0.7102893230621931"/><circle cx="17.725418697312545" cy="408.75317223999997" r="0.309307885036579" fill="#fff" opacity="0.41478975793139594"/><circle cx="516.5417243925349" cy="265.07252711437184" r="1.4201094813829722" fill="#fff" opacity="0.5408024233436465"/><circle cx="568.2888996759436" cy="227.24721431171562" r="0.8355253747137898" fill="#fff" opacity="0.5888845688797228"/><circle cx="227.92790661218748" cy="343.6115716214225" r="1.498156942761484" fill="#fff" opacity="0.7578530997594706"/><circle cx="524.949931750703" cy="313.611961926516" r="1.0593278862111142" fill="#fff" opacity="0.5315936964511803"/><circle cx="497.86581177947653" cy="170.26404217165435" r="1.3732788811672572" fill="#fff" opacity="0.6501408745942738"/><circle cx="422.8247537155405" cy="183.26904498604284" r="0.8535624037828549" fill="#fff" opacity="0.984560546053427"/><circle cx="712.0876727903933" cy="138.69889791316302" r="0.4583671359805499" fill="#fff" opacity="0.3528348590808046"/><circle cx="114.12115921074539" cy="370.0744832569789" r="0.8222857422657002" fill="#fff" opacity="0.5918821579212321"/><circle cx="405.6447521252118" cy="241.2403563385608" r="0.48785002066029537" fill="#fff" opacity="0.9717389767808642"/><circle cx="251.45326175025423" cy="9.175159371679065" r="1.298599649482792" fill="#fff" opacity="0.6396755545674988"/><circle cx="82.04476365491314" cy="305.1801906484533" r="0.7972294696080588" fill="#fff" opacity="0.5908458264727748"/><circle cx="716.9886488951254" cy="313.2161012472318" r="1.0984492686046703" fill="#fff" opacity="0.9393094328423002"/><circle cx="17.67342323427883" cy="144.44212001222994" r="0.9808447644621048" fill="#fff" opacity="0.6707787943655037"/><circle cx="661.132129129536" cy="395.4661244081721" r="0.9856127565994257" fill="#fff" opacity="0.7188444290103394"/><circle cx="760.8048409628564" cy="62.95778099273958" r="0.5511214115799278" fill="#fff" opacity="0.9885557236823945"/><circle cx="729.872336909996" cy="125.41903984065117" r="0.5287920855710104" fill="#fff" opacity="0.5359051949924446"/><circle cx="79.05478468909912" cy="469.78066851171826" r="0.7489911619654168" fill="#fff" opacity="0.5251344075293363"/><circle cx="10.782438118009807" cy="324.1492483796215" r="0.6656694757917304" fill="#fff" opacity="0.3808128445088383"/><circle cx="309.72806832763587" cy="357.8894011847968" r="1.2461682010281716" fill="#fff" opacity="0.42607058542657367"/><circle cx="782.3556056603666" cy="314.85572211855987" r="1.448873188239714" fill="#fff" opacity="0.5058084590278493"/><circle cx="327.38779431738266" cy="408.52075505089994" r="1.4165236964023917" fill="#fff" opacity="0.5896841451706665"/><circle cx="539.2128152016635" cy="418.9910935194671" r="0.3959158561108348" fill="#fff" opacity="0.7561369745480256"/><circle cx="142.3903104708433" cy="156.33874277012404" r="1.1843049652361555" fill="#fff" opacity="0.3189028788301919"/><circle cx="701.284251417404" cy="303.67389274385516" r="0.7172181319871155" fill="#fff" opacity="0.9652424615061019"/><circle cx="530.7145132162829" cy="325.0684731053432" r="0.6512575536940162" fill="#fff" opacity="0.9595453955209006"/><circle cx="539.3416491531599" cy="60.97211003888392" r="1.254565782856476" fill="#fff" opacity="0.7693794426799745"/><circle cx="684.5675211448299" cy="314.26410755409614" r="1.1427350208868625" fill="#fff" opacity="0.8907412237496379"/><circle cx="790.3105345154073" cy="414.6999681245342" r="0.6721211536832221" fill="#fff" opacity="0.7696725647291638"/><circle cx="200.84110680366854" cy="128.41186911074826" r="0.6865811814633871" fill="#fff" opacity="0.7776193878582904"/><circle cx="405.6710737468526" cy="336.3733496283994" r="0.4012637930660193" fill="#fff" opacity="0.603365574929165"/><circle cx="129.5362778357732" cy="203.9705030443834" r="1.0450007736412072" fill="#fff" opacity="0.6400815105113942"/><circle cx="760.2031774618342" cy="499.3296528017282" r="1.0518029700241738" fill="#fff" opacity="0.5655625071291626"/><circle cx="193.9797399310833" cy="73.37674373220077" r="0.8391884434159527" fill="#fff" opacity="0.9903076609705457"/><circle cx="776.3246026337067" cy="355.9126076599985" r="0.6403912105381422" fill="#fff" opacity="0.8081245536060226"/><circle cx="771.5120344128537" cy="82.87330841284273" r="1.0959453761140454" fill="#fff" opacity="0.6436402910588761"/><circle cx="73.91240737508005" cy="265.7477786072517" r="0.7609887588389789" fill="#fff" opacity="0.5643989539157293"/><circle cx="124.49208693513913" cy="81.68020441957758" r="0.45764410774333797" fill="#fff" opacity="0.5877778966508438"/><circle cx="472.9444383764613" cy="242.34667478384398" r="0.3405458293274428" fill="#fff" opacity="0.720288318170619"/><circle cx="125.02696255795485" cy="346.5383054822356" r="0.5671265074481198" fill="#fff" opacity="0.3731449965029756"/><circle cx="423.9788672201496" cy="223.33424892417904" r="1.4099270007955362" fill="#fff" opacity="0.651469335831054"/><circle cx="611.871117186168" cy="157.56530033256706" r="1.2277918822428981" fill="#fff" opacity="0.5021399621261049"/><circle cx="438.3718491620074" cy="44.13120895671663" r="0.6704901459659088" fill="#fff" opacity="0.35029448362587184"/><circle cx="529.4329598634158" cy="414.8742219892158" r="1.0896463156422" fill="#fff" opacity="0.688246448209012"/><circle cx="158.01373388660807" cy="368.36028191205526" r="1.1274941316843081" fill="#fff" opacity="0.30754665619552934"/><circle cx="410.9963602593276" cy="409.8608681518398" r="0.9418862134383097" fill="#fff" opacity="0.6909207332089167"/><circle cx="62.75535110111994" cy="351.8083633035038" r="0.852597546862017" fill="#fff" opacity="0.6748610733926002"/><circle cx="501.794372647611" cy="102.95332157985715" r="0.5612595518659348" fill="#fff" opacity="0.5071391938976096"/><circle cx="365.88945739369996" cy="108.83575897248183" r="1.162684819093863" fill="#fff" opacity="0.5582874385840482"/><circle cx="581.1495183155544" cy="285.6849110170504" r="0.9986164205140895" fill="#fff" opacity="0.6602836564132102"/><circle cx="680.0755319488342" cy="103.95803660941749" r="0.9781200148430562" fill="#fff" opacity="0.8019528328460626"/><circle cx="436.3377260407799" cy="353.5340151729412" r="1.414778112312347" fill="#fff" opacity="0.6138766902829295"/><circle cx="228.7790142675237" cy="17.792951988377716" r="0.3943437092223756" fill="#fff" opacity="0.7385632536196285"/><circle cx="545.9386925925282" cy="111.26596996391802" r="1.438010844127647" fill="#fff" opacity="0.8403385571080486"/><circle cx="343.2889321829633" cy="111.82859936524525" r="1.0125418852645478" fill="#fff" opacity="0.49667188296087056"/><circle cx="185.35870490345854" cy="165.24232368733755" r="0.31559978831635377" fill="#fff" opacity="0.5307486069226739"/><circle cx="763.8935697303968" cy="363.40296876627053" r="1.2678021669630428" fill="#fff" opacity="0.9477899929668567"/><circle cx="270.98907982932394" cy="127.58368137511079" r="1.4505002811086787" fill="#fff" opacity="0.45770225370792383"/><circle cx="661.245834555362" cy="241.32392223277023" r="0.39471083663729956" fill="#fff" opacity="0.9842052112613988"/><circle cx="548.9388710413772" cy="24.646124117161495" r="1.3912537045649394" fill="#fff" opacity="0.5602056160727675"/><circle cx="7.0959767809166685" cy="328.2728170734588" r="0.9795941203875538" fill="#fff" opacity="0.33110778819615916"/><circle cx="410.48375098049473" cy="366.06730226035484" r="0.8974201123804868" fill="#fff" opacity="0.6337612056402254"/><circle cx="447.137555462257" cy="123.35205536064991" r="1.1620885892749078" fill="#fff" opacity="0.7921733334070498"/><circle cx="180.08530054894516" cy="453.4699550015727" r="0.4035924596224032" fill="#fff" opacity="0.4621658253648057"/><circle cx="558.7031005402059" cy="291.23110245098746" r="0.8752080008683019" fill="#fff" opacity="0.40684763775503247"/><circle cx="760.4389842401399" cy="173.65446981887013" r="1.1785167311310574" fill="#fff" opacity="0.9226170540477026"/><circle cx="303.2577730064419" cy="311.4032814717726" r="0.9050826784790018" fill="#fff" opacity="0.36168123774365335"/><circle cx="565.0588167053194" cy="2.8092049026187116" r="1.1861978579424353" fill="#fff" opacity="0.7235764629256587"/><circle cx="596.8367193280228" cy="433.06231351644675" r="0.39653856300052764" fill="#fff" opacity="0.44587566737871004"/><circle cx="665.0942761765012" cy="423.9382875419386" r="1.3891061635046231" fill="#fff" opacity="0.5048261568816137"/><circle cx="492.4734350888801" cy="152.56938929358955" r="1.4282292562888885" fill="#fff" opacity="0.8275011831876526"/><circle cx="143.62116965801653" cy="358.2188697685956" r="1.1052011765683933" fill="#fff" opacity="0.32908294919553754"/><circle cx="685.5192639770396" cy="233.29661194079904" r="1.2379133307706933" fill="#fff" opacity="0.4145740999641348"/><circle cx="559.1191601403448" cy="133.1457419202437" r="0.5128270422980039" fill="#fff" opacity="0.6536623757667273"/><circle cx="169.65528521058903" cy="240.85359561807346" r="1.3694155685126994" fill="#fff" opacity="0.5020808800124614"/><circle cx="623.167459169854" cy="131.4633967721746" r="0.999872312737353" fill="#fff" opacity="0.8002548891411354"/><circle cx="498.63784170801415" cy="397.7358869226425" r="0.754440194055948" fill="#fff" opacity="0.7724073434710692"/><circle cx="204.30446167979025" cy="342.6955497861972" r="1.3411709100203342" fill="#fff" opacity="0.4939477147841431"/><circle cx="266.539045017422" cy="90.78709207119185" r="0.9235821237117117" fill="#fff" opacity="0.4765061193887183"/><circle cx="710.2821494464858" cy="260.107764723074" r="0.8826400426274272" fill="#fff" opacity="0.30769643643985195"/><circle cx="4.17141907220433" cy="13.855458380159114" r="0.9085573954251929" fill="#fff" opacity="0.4963611993535879"/><circle cx="443.18974457967795" cy="48.20625919447114" r="1.0433694429211267" fill="#fff" opacity="0.9917506022035449"/><circle cx="406.33314863183705" cy="474.74554505289547" r="1.4294033299593145" fill="#fff" opacity="0.8508436982518488"/><circle cx="640.8352809300683" cy="251.60744895403815" r="0.32241472511277625" fill="#fff" opacity="0.3029076533065608"/><circle cx="553.8010317592017" cy="141.03066736622222" r="1.2290042276658577" fill="#fff" opacity="0.8797688896805498"/><circle cx="502.8578470891176" cy="394.98810443032875" r="1.0990759495630762" fill="#fff" opacity="0.8508668855059025"/><circle cx="104.07965267594292" cy="19.617848608170675" r="0.517941573206891" fill="#fff" opacity="0.3013297317673021"/><circle cx="513.3880176731641" cy="455.88864697373293" r="0.7656937382090132" fill="#fff" opacity="0.7792192581171411"/><circle cx="485.11794475532844" cy="296.6194533834415" r="1.420089323484528" fill="#fff" opacity="0.823119597728063"/><circle cx="799.1188697688239" cy="173.1460151191677" r="1.197737087635557" fill="#fff" opacity="0.5111747819308209"/><circle cx="200.91483106977702" cy="372.1419991864962" r="1.3418452444514888" fill="#fff" opacity="0.6175792047076452"/><circle cx="190.5187214042053" cy="289.5563162341931" r="0.6321103951500948" fill="#fff" opacity="0.899529996743746"/><circle cx="682.9363134027274" cy="488.20495424882085" r="0.7173314778892805" fill="#fff" opacity="0.6446237814081511"/><circle cx="488.397763400176" cy="288.8881828771061" r="0.578623467393061" fill="#fff" opacity="0.7473112261585158"/><circle cx="669.3584293681394" cy="365.3271745597524" r="1.062143298797826" fill="#fff" opacity="0.6969397871223266"/><circle cx="263.15092129047866" cy="434.04597675983837" r="0.7077319426239037" fill="#fff" opacity="0.4015942544358867"/><circle cx="409.8054829976314" cy="188.35584969630077" r="0.5869894793717467" fill="#fff" opacity="0.584582048163887"/><circle cx="576.8951347811054" cy="258.2469779743215" r="0.5415628994830266" fill="#fff" opacity="0.7607256754600311"/><circle cx="56.091836848263995" cy="29.803020602644338" r="0.9972079094794895" fill="#fff" opacity="0.9868441062815447"/><circle cx="487.6208258869484" cy="267.47357468032095" r="0.528037425336386" fill="#fff" opacity="0.948577622594146"/><circle cx="100.29363540844489" cy="83.7506595494446" r="1.2818225180100138" fill="#fff" opacity="0.36862113707985156"/><circle cx="704.5475159203537" cy="347.25232647131685" r="0.5558335875195765" fill="#fff" opacity="0.8766391437543684"/><circle cx="437.63984757597837" cy="497.48370805166934" r="1.197569675989843" fill="#fff" opacity="0.8998074200994353"/><circle cx="771.1645673568778" cy="262.1041936044495" r="0.49359388597312026" fill="#fff" opacity="0.8850133460872842"/><circle cx="482.9228781966144" cy="158.45001450719425" r="0.5158676000167557" fill="#fff" opacity="0.5579979886430145"/><circle cx="278.97845844627165" cy="321.56578538268406" r="0.6443649824284419" fill="#fff" opacity="0.7627250657621335"/><circle cx="424.67912721118137" cy="169.83428414869894" r="1.351042155081138" fill="#fff" opacity="0.9357706734980382"/><circle cx="95.00199215956728" cy="202.56331966277503" r="0.8215995437957402" fill="#fff" opacity="0.3852046448243447"/><circle cx="699.6210752282276" cy="190.7897371336218" r="1.441604705399303" fill="#fff" opacity="0.6559998922305693"/><circle cx="472.53626829114825" cy="383.68533958236" r="1.4896514914319194" fill="#fff" opacity="0.9026866827500248"/><circle cx="130.00846056624854" cy="188.85555223902867" r="1.2020987801341703" fill="#fff" opacity="0.765471938849789"/><circle cx="570.7007277170742" cy="170.0790700720392" r="0.44419484098722817" fill="#fff" opacity="0.8966992025977107"/><circle cx="366.22006363836556" cy="364.70616368980285" r="1.1486693113257302" fill="#fff" opacity="0.8447816429559432"/><circle cx="530.3480966112145" cy="305.872913931547" r="0.6257665784965809" fill="#fff" opacity="0.7607823622337186"/><circle cx="732.1122198280411" cy="452.31530939110695" r="0.9805137081036661" fill="#fff" opacity="0.48688947428836393"/><circle cx="130.4315555035262" cy="394.35479884307574" r="0.8013233959587784" fill="#fff" opacity="0.8401434040646769"/><circle cx="10.691516125706624" cy="360.99806386369727" r="0.7886492480567193" fill="#fff" opacity="0.3240991701181369"/><circle cx="67.04411119358457" cy="170.54732399043039" r="1.0830870001592872" fill="#fff" opacity="0.5981816923848119"/><circle cx="758.409521244082" cy="308.62617532736414" r="0.34164296035057273" fill="#fff" opacity="0.32621735763192533"/><circle cx="792.7775370955527" cy="338.35252213810327" r="1.2680166174040957" fill="#fff" opacity="0.9662733070810949"/><circle cx="637.8623907298181" cy="22.961986358912334" r="1.4294812510681938" fill="#fff" opacity="0.5138792031943236"/><circle cx="477.9533528532296" cy="480.72791865669774" r="0.6620663366810144" fill="#fff" opacity="0.9322688403102388"/><circle cx="712.9853539647305" cy="343.4695407688039" r="0.6996132545571655" fill="#fff" opacity="0.6254626020470013"/><circle cx="310.28654614378064" cy="91.75379451176657" r="1.2414760381433538" fill="#fff" opacity="0.581902772589947"/><circle cx="740.364385831887" cy="34.665739700235456" r="1.0506613776701526" fill="#fff" opacity="0.9697271335046984"/><circle cx="159.20213692610696" cy="81.34114363381639" r="0.9385449279621887" fill="#fff" opacity="0.66690652472294"/><circle cx="768.5893544508003" cy="382.9860616549432" r="0.9225890218524349" fill="#fff" opacity="0.9247472465590614"/><circle cx="113.30521289919923" cy="233.7482999053674" r="0.8957403911176214" fill="#fff" opacity="0.7682349857277495"/><circle cx="504.59637244168664" cy="395.96341573475917" r="0.5581389945877901" fill="#fff" opacity="0.8458124112101721"/><circle cx="373.3955889732539" cy="478.6032005024183" r="0.5049210066457972" fill="#fff" opacity="0.724271665844168"/><circle cx="639.6339879144152" cy="135.48165998750378" r="1.359951413379618" fill="#fff" opacity="0.6057809291466247"/><circle cx="69.50489132285922" cy="464.1211378118139" r="0.4906810033281058" fill="#fff" opacity="0.7088695311827411"/><circle cx="397.62513715411495" cy="186.35366620145905" r="0.7873250884760952" fill="#fff" opacity="0.4733809735520823"/><circle cx="16.59988083692081" cy="48.102744512341204" r="1.431890476825599" fill="#fff" opacity="0.41488370127043156"/><circle cx="211.78022352773294" cy="247.52462457131375" r="0.9994513975203936" fill="#fff" opacity="0.816504590392308"/><circle cx="701.845720883072" cy="6.159089350118663" r="0.42752294122286416" fill="#fff" opacity="0.8987790385425265"/><circle cx="551.643032315657" cy="92.52716720443382" r="0.8719143244567897" fill="#fff" opacity="0.7209572147937271"/><circle cx="646.4712311274515" cy="358.11602335074485" r="1.39276293252029" fill="#fff" opacity="0.7428315638561471"/><circle cx="287.89912045011" cy="58.06701639914602" r="1.2673910468687515" fill="#fff" opacity="0.4365122936425687"/><circle cx="405.2966588136878" cy="28.87062695408915" r="0.9793577847518293" fill="#fff" opacity="0.9917725408408136"/><circle cx="341.6733746497971" cy="262.6387532368573" r="0.8542353077245248" fill="#fff" opacity="0.5198336884802379"/><circle cx="717.0731317941588" cy="34.47613974761493" r="0.9365572142105714" fill="#fff" opacity="0.42479038399181135"/><circle cx="627.0578394616064" cy="196.12523294285427" r="0.30461635677715365" fill="#fff" opacity="0.5638960613193948"/><circle cx="310.7432376805232" cy="99.97774305786162" r="1.3575491945410176" fill="#fff" opacity="0.770359855452294"/><circle cx="798.3388613675407" cy="243.0246582062745" r="0.7611134834228444" fill="#fff" opacity="0.5877159864323211"/><circle cx="659.0138292003257" cy="178.00175421321734" r="1.3236423006084077" fill="#fff" opacity="0.8068282071825481"/><circle cx="611.9182232452098" cy="220.7329300083185" r="0.8622656493233107" fill="#fff" opacity="0.757905142506776"/><circle cx="791.9518641800719" cy="290.47446293764415" r="0.8890468711883539" fill="#fff" opacity="0.5630599707368513"/><circle cx="195.58535927777515" cy="211.1559032334484" r="1.0881919354297211" fill="#fff" opacity="0.4262936878310264"/><circle cx="31.09660743664442" cy="298.28689978379805" r="0.7653882902165976" fill="#fff" opacity="0.8401406372570144"/><circle cx="637.6791398260713" cy="176.36026903056384" r="1.2606807738767594" fill="#fff" opacity="0.7204609802207668"/><circle cx="682.0694504163102" cy="345.7927672538867" r="0.7332606146928337" fill="#fff" opacity="0.6160545151992483"/><circle cx="225.9145169327808" cy="133.42621912253682" r="1.3115831649908296" fill="#fff" opacity="0.873784766347995"/><circle cx="399.28755531884104" cy="201.85564674757805" r="1.0653975582670931" fill="#fff" opacity="0.8359703779449812"/><circle cx="380.39914330221825" cy="455.6442100903991" r="0.7358587928367794" fill="#fff" opacity="0.46171411155261105"/><circle cx="569.5070094918308" cy="189.43005378844109" r="0.7770573662749518" fill="#fff" opacity="0.9036619181716479"/><circle cx="736.9452785059295" cy="429.8518251194474" r="1.2349224958775886" fill="#fff" opacity="0.8960191288202888"/><circle cx="751.0655339305162" cy="451.9508366431892" r="1.0866961513993587" fill="#fff" opacity="0.8694952245232852"/><circle cx="274.68391707635567" cy="79.26479733309056" r="0.8191058735189094" fill="#fff" opacity="0.9907910716621242"/><circle cx="399.86228269291206" cy="164.29745203268703" r="0.832732537182481" fill="#fff" opacity="0.6830117421063517"/><circle cx="11.826419266099464" cy="149.35724521886857" r="0.6748304845447395" fill="#fff" opacity="0.3576572015025884"/><circle cx="418.22146147629206" cy="196.18808959802513" r="0.7375333411295051" fill="#fff" opacity="0.33882125027671267"/><circle cx="778.7708916954781" cy="56.28013141416699" r="1.1606395228727775" fill="#fff" opacity="0.39744010857984713"/><circle cx="81.39472536774255" cy="373.56516879910305" r="1.37532581101246" fill="#fff" opacity="0.434650563343012"/><circle cx="709.1091359778835" cy="456.245495542181" r="0.46346914712773735" fill="#fff" opacity="0.5708315205783692"/><circle cx="192.1278464267802" cy="290.60487699200274" r="1.2605025380938002" fill="#fff" opacity="0.7324679901030198"/><circle cx="466.36274158460964" cy="13.394716616992152" r="1.196101595162846" fill="#fff" opacity="0.31627379823914725"/><circle cx="361.42118330937967" cy="487.2401689969719" r="0.30855353493996174" fill="#fff" opacity="0.760140147349785"/><circle cx="614.327280597931" cy="355.35269070799404" r="1.4106523440681666" fill="#fff" opacity="0.6494262344922869"/><circle cx="584.7833782828766" cy="46.7851653515079" r="0.8594013487073269" fill="#fff" opacity="0.4832963463692484"/><circle cx="480.77589777429114" cy="240.8749241167636" r="1.0727374469819477" fill="#fff" opacity="0.7336312744702826"/><circle cx="113.69420222145656" cy="244.482981005242" r="1.3227336664067655" fill="#fff" opacity="0.7107264559951201"/><circle cx="784.0312685707779" cy="135.0064970984627" r="0.6146847707405967" fill="#fff" opacity="0.47881369532547857"/><circle cx="638.0493933014341" cy="11.931272998085385" r="0.31750542458623837" fill="#fff" opacity="0.8514346668665329"/><circle cx="431.93972481965307" cy="80.91597674747969" r="0.8795804282340765" fill="#fff" opacity="0.3080888294452567"/><circle cx="118.46097585795974" cy="237.09460312373355" r="1.1404148964804008" fill="#fff" opacity="0.3949641151414118"/><circle cx="707.8726244969408" cy="138.41572563995226" r="0.7649818581024732" fill="#fff" opacity="0.886957355164093"/><circle cx="787.0966249204005" cy="316.4009183030348" r="0.3268002567365954" fill="#fff" opacity="0.3812294731801334"/><circle cx="150.50727433233303" cy="341.5518708666983" r="1.3383957286024484" fill="#fff" opacity="0.4653723855485705"/><circle cx="400.80140893871976" cy="327.9302781130594" r="1.3812989836789986" fill="#fff" opacity="0.9563042980216165"/><circle cx="758.3622828202365" cy="118.2791139354213" r="0.7917202450888159" fill="#fff" opacity="0.7604940997455786"/><circle cx="340.57852493560574" cy="78.39977291640265" r="1.1169447779073651" fill="#fff" opacity="0.3047425593573626"/><circle cx="401.7744240891004" cy="498.361795678964" r="1.0563880735418505" fill="#fff" opacity="0.36060062621349487"/><circle cx="19.627351015162375" cy="32.88775699266383" r="0.6378300718107587" fill="#fff" opacity="0.6300868378556002"/><circle cx="404.74240226002286" cy="29.763457844213026" r="1.3927421672196922" fill="#fff" opacity="0.9379695465863012"/><circle cx="751.18274099387" cy="135.22990701016323" r="0.8114340083371501" fill="#fff" opacity="0.7777166686028296"/><circle cx="282.84793837906614" cy="438.0146908705175" r="0.9252458451149628" fill="#fff" opacity="0.9253541415100295"/><circle cx="784.2223745348554" cy="367.5284167808798" r="0.43126321148439084" fill="#fff" opacity="0.4086679185265527"/><circle cx="653.699294690726" cy="409.81567820006825" r="0.5781471109022076" fill="#fff" opacity="0.5920181573432864"/><circle cx="118.46956776602883" cy="274.0138032033739" r="0.494760203462692" fill="#fff" opacity="0.9103444500174944"/><circle cx="680.0096398423487" cy="192.1838701743132" r="0.5383096984555464" fill="#fff" opacity="0.8164562399627613"/><circle cx="632.8040377381595" cy="286.9682843910933" r="0.5093220883277846" fill="#fff" opacity="0.3513006295889861"/><circle cx="234.3883951720751" cy="478.3799455453067" r="0.9697204387881762" fill="#fff" opacity="0.8014870120854818"/><circle cx="74.79678926507249" cy="135.54316151955808" r="0.6721635985759602" fill="#fff" opacity="0.8875079278852549"/><circle cx="134.42980749097185" cy="434.26097267307455" r="1.3482270479938043" fill="#fff" opacity="0.49668868682635725"/><circle cx="604.794821878228" cy="93.58892812169167" r="1.3872153335647464" fill="#fff" opacity="0.9757023182332056"/><circle cx="641.5928712611026" cy="189.52663879812948" r="0.581200159937675" fill="#fff" opacity="0.8626774803927875"/><circle cx="769.7804452592162" cy="417.38068641452134" r="1.2779618668995396" fill="#fff" opacity="0.8565256553732492"/><circle cx="452.1234078503471" cy="240.78739443407738" r="1.3071537836789227" fill="#fff" opacity="0.8888655705224489"/><circle cx="80.96466974802911" cy="194.05917402056883" r="1.4599549132067737" fill="#fff" opacity="0.3644883346801776"/><circle cx="424.2072490508385" cy="403.6560278680783" r="1.370203496530947" fill="#fff" opacity="0.920472627517275"/><circle cx="135.73266781487501" cy="420.1220941313623" r="0.842209419535312" fill="#fff" opacity="0.44350925635197014"/><circle cx="506.401624478406" cy="409.5194507054581" r="0.4189887166543865" fill="#fff" opacity="0.9124133901003648"/><circle cx="536.5825105939584" cy="81.10585011830645" r="1.1051395173798806" fill="#fff" opacity="0.5961453736865874"/><circle cx="441.16843142876843" cy="209.056648055099" r="0.32712162356344804" fill="#fff" opacity="0.30887866029422056"/><circle cx="170.7953633063881" cy="26.51043050939006" r="1.1308870612400024" fill="#fff" opacity="0.6132525639855111"/><circle cx="364.34212209101116" cy="496.07977984702455" r="1.0855809951194766" fill="#fff" opacity="0.5109035329417013"/><circle cx="411.6411600487931" cy="282.9237203730172" r="1.4933372396775393" fill="#fff" opacity="0.8453156068879253"/><circle cx="119.72695576556856" cy="131.5843244969867" r="0.5922651324450499" fill="#fff" opacity="0.8634770738693793"/><circle cx="199.3143854843444" cy="1.9613469093399671" r="1.4227064348387506" fill="#fff" opacity="0.4226229466732769"/><circle cx="757.6236908005505" cy="228.88634623836822" r="1.1036642321558203" fill="#fff" opacity="0.5161465999272238"/><circle cx="245.47745397354674" cy="224.98944091791006" r="1.378775147138658" fill="#fff" opacity="0.5798975903147578"/><circle cx="659.4064069877096" cy="212.64206466860148" r="0.5050279969601926" fill="#fff" opacity="0.4339564594141653"/><circle cx="379.53599773424384" cy="314.5317380591348" r="0.8862963647105369" fill="#fff" opacity="0.781737029060048"/><circle cx="741.8037535142013" cy="188.6205817279691" r="0.5211534456579637" fill="#fff" opacity="0.5340981568666365"/><circle cx="221.42565116819392" cy="248.04576805770446" r="1.1906642709774895" fill="#fff" opacity="0.9086465338671643"/><circle cx="689.3667921624126" cy="329.0801445135938" r="0.6905039055288247" fill="#fff" opacity="0.5899345036888589"/><circle cx="397.19183682345454" cy="278.3686284891049" r="0.7210416780616812" fill="#fff" opacity="0.7137081712799964"/><circle cx="662.4268641296254" cy="145.11311403014838" r="0.7418110057511005" fill="#fff" opacity="0.3883766225812375"/>
<circle cx="526.7763936942019" cy="272.9679353084561" r="1" fill="#a78bfa" opacity="0.6"/><circle cx="56.88077858692537" cy="450.0230847852165" r="1" fill="#a78bfa" opacity="0.6"/><circle cx="235.21430459584255" cy="164.4850357211956" r="1" fill="#a78bfa" opacity="0.6"/><circle cx="32.12176159252653" cy="79.2002358910297" r="1" fill="#a78bfa" opacity="0.6"/><circle cx="468.2699885499049" cy="57.98701217681062" r="1" fill="#a78bfa" opacity="0.6"/><circle cx="646.4388157078506" cy="481.99648541450557" r="1" fill="#a78bfa" opacity="0.6"/><circle cx="16.974656516062048" cy="91.31164598021813" r="1" fill="#a78bfa" opacity="0.6"/><circle cx="497.08993015733836" cy="454.4506281348699" r="1" fill="#a78bfa" opacity="0.6"/><circle cx="340.61938347864515" cy="30.17696997387853" r="1" fill="#a78bfa" opacity="0.6"/><circle cx="680.9636810393133" cy="406.5672174785358" r="1" fill="#a78bfa" opacity="0.6"/><circle cx="375.2170033067006" cy="10.4882524817132" r="1" fill="#a78bfa" opacity="0.6"/><circle cx="27.93211555034505" cy="81.6369141419499" r="1" fill="#a78bfa" opacity="0.6"/>
<!-- oumuamua trail -->
<path d="M 50 100 L 750 400" stroke="#c4b5fd" stroke-width="1.5" opacity="0.6"/>
<path d="M 50 100 Q 400 200 750 400" stroke="#a78bfa" stroke-width="2" opacity="0.4" fill="none" stroke-dasharray="4 6"/>
<!-- oumuamua body (cigar shape) -->
<g transform="translate(720,395) rotate(20)">
  <ellipse cx="0" cy="0" rx="22" ry="6" fill="url(#oumuamua)"/>
  <ellipse cx="0" cy="0" rx="14" ry="3" fill="#fff" opacity="0.6"/>
</g>
<!-- trail dust -->
<circle cx="50" cy="100" r="1.5083184632232882" fill="#c4b5fd" opacity="0.470161958269717"/><circle cx="83.5" cy="115" r="0.580111110604433" fill="#c4b5fd" opacity="0.635296235953551"/><circle cx="117" cy="130" r="1.1003162395027546" fill="#c4b5fd" opacity="0.5338998387223177"/><circle cx="150.5" cy="145" r="0.7392696480338392" fill="#c4b5fd" opacity="0.5301245775308334"/><circle cx="184" cy="160" r="1.4749656528920052" fill="#c4b5fd" opacity="0.4429659095337456"/><circle cx="217.5" cy="175" r="1.7252137968356764" fill="#c4b5fd" opacity="0.5383016621512002"/><circle cx="251" cy="190" r="1.514864902484199" fill="#c4b5fd" opacity="0.5835628272599539"/><circle cx="284.5" cy="205" r="1.185430364243289" fill="#c4b5fd" opacity="0.4782477713339016"/><circle cx="318" cy="220" r="0.7884524854571643" fill="#c4b5fd" opacity="0.6758011198936059"/><circle cx="351.5" cy="235" r="1.2860108518130324" fill="#c4b5fd" opacity="0.4085108376721308"/><circle cx="385" cy="250" r="0.9526791968997474" fill="#c4b5fd" opacity="0.4891773911436063"/><circle cx="418.50000000000006" cy="265" r="0.7136349194810155" fill="#c4b5fd" opacity="0.67236894131041"/><circle cx="452" cy="280" r="1.5528069987427024" fill="#c4b5fd" opacity="0.5810238328121289"/><circle cx="485.5" cy="295" r="1.2821656798763021" fill="#c4b5fd" opacity="0.44297892696201724"/><circle cx="519" cy="310" r="1.3863090195809082" fill="#c4b5fd" opacity="0.3998132681734373"/><circle cx="552.5" cy="325" r="1.805799745819397" fill="#c4b5fd" opacity="0.31974830284733136"/><circle cx="586" cy="340" r="1.829913828872475" fill="#c4b5fd" opacity="0.4836957744872893"/><circle cx="619.5" cy="355" r="1.4369946777635816" fill="#c4b5fd" opacity="0.37750558180536453"/><circle cx="653" cy="370" r="0.5540707683795303" fill="#c4b5fd" opacity="0.34779310938215785"/><circle cx="686.5" cy="385" r="0.9487963955876608" fill="#c4b5fd" opacity="0.4190333422507132"/>
<!-- far galaxy cluster -->
<ellipse cx="150" cy="350" rx="30" ry="8" fill="#6366f1" opacity="0.4" transform="rotate(-15 150 350)"/>
<ellipse cx="180" cy="380" rx="20" ry="5" fill="#8b5cf6" opacity="0.3" transform="rotate(-15 180 380)"/>
</svg>