<svg xmlns="http://www.w3.org/2000/svg" viewBox="0 0 800 500" preserveAspectRatio="xMidYMid slice" width="100%" height="100%">
<defs>
  <linearGradient id="bg" x1="0" y1="0" x2="0" y2="1">
    <stop offset="0%" stop-color="#1a0500"/>
    <stop offset="100%" stop-color="#3a0d04"/>
  </linearGradient>
  <radialGradient id="lava" cx="50%" cy="50%" r="50%">
    <stop offset="0%" stop-color="#fde68a"/>
    <stop offset="40%" stop-color="#fb923c"/>
    <stop offset="80%" stop-color="#dc2626" stop-opacity="0.6"/>
    <stop offset="100%" stop-color="#7f1d1d" stop-opacity="0"/>
  </radialGradient>
</defs>
<rect width="800" height="500" fill="url(#bg)"/>
<circle cx="250.97898597135213" cy="421.48824888888123" r="0.6707614064350402" fill="#fbbf24" opacity="0.2446966791072622"/><circle cx="375.49513695470785" cy="171.71729806518772" r="0.342288278273627" fill="#fbbf24" opacity="0.5895628276846059"/><circle cx="605.1145494795433" cy="58.322075083398815" r="0.40245945226294516" fill="#fbbf24" opacity="0.3207614164664828"/><circle cx="676.3734520437563" cy="300.8924162057526" r="0.3663445051610279" fill="#fbbf24" opacity="0.253742915421534"/><circle cx="314.78265472179777" cy="410.33307201796856" r="0.459070358776017" fill="#fbbf24" opacity="0.32773607857198306"/><circle cx="478.5958240892593" cy="140.29255863249494" r="0.6259924965233119" fill="#fbbf24" opacity="0.5955321218468036"/><circle cx="120.04982696615016" cy="289.38825786769917" r="0.4741904483032221" fill="#fbbf24" opacity="0.39005736452249345"/><circle cx="112.77259662855057" cy="453.2009190274623" r="0.8240207930155579" fill="#fbbf24" opacity="0.2838133040920715"/><circle cx="625.7901438618641" cy="491.22941642537137" r="0.4390933874893202" fill="#fbbf24" opacity="0.5475720925594387"/><circle cx="791.7872495762164" cy="206.09732220375741" r="0.318193137712556" fill="#fbbf24" opacity="0.4143657159200527"/><circle cx="748.6901640922256" cy="383.68199086549424" r="0.8662342460171351" fill="#fbbf24" opacity="0.2239270218107351"/><circle cx="187.70198685329032" cy="436.0826565012968" r="0.9504940319302686" fill="#fbbf24" opacity="0.31008579523133983"/><circle cx="178.35002635157497" cy="338.71792676863714" r="0.583247967592861" fill="#fbbf24" opacity="0.336911326162215"/><circle cx="560.7925904882892" cy="277.0972496841136" r="0.716118390004021" fill="#fbbf24" opacity="0.28812895670309646"/><circle cx="50.96108318515667" cy="415.5974380851604" r="0.9432050741359268" fill="#fbbf24" opacity="0.4741303713075674"/><circle cx="253.54281269419144" cy="264.1306802251036" r="0.34937394095880975" fill="#fbbf24" opacity="0.4535633190456779"/><circle cx="712.1919943715244" cy="132.38382395401567" r="0.4695202865227082" fill="#fbbf24" opacity="0.4838873765497218"/><circle cx="505.53571341421815" cy="135.60964565458795" r="0.8290695313769509" fill="#fbbf24" opacity="0.2677037565557599"/><circle cx="422.8260789435499" cy="496.4500244505374" r="0.530189612372266" fill="#fbbf24" opacity="0.37199014501181954"/><circle cx="558.8402304477527" cy="338.62289451050816" r="0.8593902918355822" fill="#fbbf24" opacity="0.23602688140443173"/><circle cx="549.7391180948307" cy="260.6820011535694" r="0.5095968698834571" fill="#fbbf24" opacity="0.5761972056900511"/><circle cx="398.3967554287983" cy="242.7377672728135" r="0.9538576657216022" fill="#fbbf24" opacity="0.5588537914233068"/><circle cx="4.5028731146564915" cy="396.4443910233896" r="0.9994873217525244" fill="#fbbf24" opacity="0.2980938456817357"/><circle cx="267.9439144822357" cy="71.01740295736658" r="0.7628786554857987" fill="#fbbf24" opacity="0.403065445438624"/><circle cx="331.10554266316586" cy="192.27674846522396" r="0.5695159658615866" fill="#fbbf24" opacity="0.2481240805576066"/><circle cx="19.609782882868032" cy="473.97148100449493" r="0.9724604013941742" fill="#fbbf24" opacity="0.5507818176890326"/><circle cx="653.2030837316755" cy="287.1019028765998" r="0.8399146041766758" fill="#fbbf24" opacity="0.22480556227625087"/><circle cx="771.5565906633091" cy="152.34909742594417" r="0.3064539802756428" fill="#fbbf24" opacity="0.49273595642695184"/><circle cx="95.99339056656771" cy="290.29597000033715" r="0.6961561052485019" fill="#fbbf24" opacity="0.21819987593131684"/><circle cx="669.590025022666" cy="139.54619192006652" r="0.3802143316125222" fill="#fbbf24" opacity="0.22640682659198227"/><circle cx="456.9220183483618" cy="31.292591903052447" r="0.6403561705756848" fill="#fbbf24" opacity="0.34416352217048884"/><circle cx="47.545355203554784" cy="234.5859509502113" r="0.8735498972449247" fill="#fbbf24" opacity="0.4338469617912316"/><circle cx="110.0723651486982" cy="359.725419138989" r="0.4418759658343979" fill="#fbbf24" opacity="0.428008704285857"/><circle cx="117.95211124820798" cy="276.5979901417218" r="0.9151270030919314" fill="#fbbf24" opacity="0.5271526210091312"/><circle cx="53.50656540151624" cy="70.50791636127157" r="0.918668185312381" fill="#fbbf24" opacity="0.4614930810432367"/><circle cx="342.6109465667627" cy="408.51271800173004" r="0.42449171502898536" fill="#fbbf24" opacity="0.3260524116483852"/><circle cx="151.92378078144415" cy="405.0202182107033" r="0.6802537345224542" fill="#fbbf24" opacity="0.5850734089013282"/><circle cx="67.71272748177246" cy="317.2261867897634" r="0.46080387660324895" fill="#fbbf24" opacity="0.301094810681026"/><circle cx="508.49064319920785" cy="445.70052768403605" r="0.753776898618883" fill="#fbbf24" opacity="0.40238527064780816"/><circle cx="400.7652894761866" cy="128.90030450150186" r="0.3644130928521264" fill="#fbbf24" opacity="0.5807535957306338"/><circle cx="544.554451995227" cy="180.20319977675214" r="0.42123482321886996" fill="#fbbf24" opacity="0.364460568377949"/><circle cx="347.09760323966793" cy="293.57466476760567" r="0.8628504328330642" fill="#fbbf24" opacity="0.4291815178861417"/><circle cx="791.6055329766956" cy="85.04320785114888" r="0.44010174615759867" fill="#fbbf24" opacity="0.5683812118062148"/><circle cx="66.6355899266815" cy="221.26630317593825" r="0.6191908056099243" fill="#fbbf24" opacity="0.23963647422813175"/><circle cx="403.85417225484844" cy="494.14565539821785" r="0.5477643615833403" fill="#fbbf24" opacity="0.30561432317720855"/><circle cx="762.8668714630338" cy="404.2935058150799" r="0.648106955354794" fill="#fbbf24" opacity="0.4117660146604431"/><circle cx="88.22249358368825" cy="48.718542629556325" r="0.9424128951312483" fill="#fbbf24" opacity="0.35819557146141623"/><circle cx="340.05202171254484" cy="202.30277964942488" r="0.8517737069132578" fill="#fbbf24" opacity="0.5837778739172079"/><circle cx="276.1802092954663" cy="168.91860857383767" r="0.4480730836109972" fill="#fbbf24" opacity="0.4589324366157262"/><circle cx="103.41793989035457" cy="184.40567580789136" r="0.6395177017610808" fill="#fbbf24" opacity="0.2788942844133506"/><circle cx="276.10717645051193" cy="204.95873230594714" r="0.6676812887220427" fill="#fbbf24" opacity="0.5972327263545081"/><circle cx="570.626526634844" cy="344.8385578064268" r="0.5054196966460045" fill="#fbbf24" opacity="0.5895200734694831"/><circle cx="145.12754535173082" cy="240.19370548274543" r="0.5405756007924606" fill="#fbbf24" opacity="0.2501516843396752"/><circle cx="351.188471731245" cy="80.59558114699699" r="0.38171751355986633" fill="#fbbf24" opacity="0.4891802098035476"/><circle cx="564.0838684288377" cy="230.2902621396085" r="0.3249736008259755" fill="#fbbf24" opacity="0.568441991326984"/><circle cx="83.54167652483966" cy="30.1402802804262" r="0.7732475406242265" fill="#fbbf24" opacity="0.5544456125501174"/><circle cx="258.01764628048477" cy="482.27311825419866" r="0.6263555857374836" fill="#fbbf24" opacity="0.2813165049508442"/><circle cx="313.3474495582001" cy="366.0223435516869" r="0.793410360030531" fill="#fbbf24" opacity="0.3528916565330078"/><circle cx="331.52902116568" cy="279.7348212829907" r="0.8823513789507362" fill="#fbbf24" opacity="0.38272233888353324"/><circle cx="528.8587604475663" cy="84.91080782927945" r="0.6129349776286264" fill="#fbbf24" opacity="0.34180321763967236"/>
<!-- io surface -->
<circle cx="400" cy="280" r="220" fill="#451a03"/>
<circle cx="400" cy="280" r="220" fill="#7c2d12" opacity="0.6"/>
<!-- lava calderas -->
<circle cx="320" cy="220" r="35" fill="url(#lava)"/>
<circle cx="320" cy="220" r="20" fill="#fde68a" opacity="0.8"/>
<circle cx="480" cy="200" r="22" fill="url(#lava)"/>
<circle cx="480" cy="200" r="12" fill="#fde68a" opacity="0.8"/>
<circle cx="500" cy="360" r="28" fill="url(#lava)"/>
<circle cx="500" cy="360" r="15" fill="#fde68a" opacity="0.8"/>
<circle cx="280" cy="380" r="18" fill="url(#lava)"/>
<!-- plumes -->
<g opacity="0.5">
  <path d="M 320 195 Q 310 100 290 60" stroke="#fbbf24" stroke-width="6" fill="none" opacity="0.4"/>
  <path d="M 480 195 Q 470 100 460 50" stroke="#fbbf24" stroke-width="4" fill="none" opacity="0.4"/>
  <path d="M 500 345 Q 510 260 520 200" stroke="#fb923c" stroke-width="3" fill="none" opacity="0.4"/>
</g>
<!-- sulfur patches -->
<circle cx="394.579991770732" cy="271.1212333527909" r="15.418894363100693" fill="#fbbf24" opacity="0.18045763440274046"/><circle cx="558.2344336932427" cy="305.4956851526" r="13.44975671461835" fill="#fbbf24" opacity="0.2703486366783192"/><circle cx="395.1536809958824" cy="189.98324612146433" r="7.6291604854439115" fill="#fbbf24" opacity="0.1844573928677038"/><circle cx="346.3469540154697" cy="307.66884555196367" r="17.668351938758388" fill="#fbbf24" opacity="0.17026455013211866"/><circle cx="359.64006799702184" cy="397.25328436512143" r="17.68440664095141" fill="#fbbf24" opacity="0.20684992235823763"/><circle cx="435.1320140364494" cy="397.5776285761126" r="15.20536247893952" fill="#fbbf24" opacity="0.24992658660456313"/><circle cx="220.9704458298113" cy="283.1811494348519" r="7.910493054945954" fill="#fbbf24" opacity="0.12794282257212752"/><circle cx="311.98013144059576" cy="298.43842417541174" r="9.715973704580183" fill="#fbbf24" opacity="0.23761125513113412"/><circle cx="326.8053454267174" cy="329.3591169640591" r="19.846769161943566" fill="#fbbf24" opacity="0.233983607966088"/><circle cx="358.2130571443949" cy="234.32461924506396" r="12.302155807117973" fill="#fbbf24" opacity="0.2873376799901918"/><circle cx="468.81992340455554" cy="390.82469057438277" r="12.349548854036634" fill="#fbbf24" opacity="0.2640023086345836"/><circle cx="372.4144144652328" cy="345.1236119729337" r="18.97560859871325" fill="#fbbf24" opacity="0.2608880830263083"/><circle cx="422.8618128437083" cy="385.00177590089925" r="9.391546593830807" fill="#fbbf24" opacity="0.21585909050615443"/><circle cx="493.8954732233086" cy="359.2113660047015" r="14.919812089639956" fill="#fbbf24" opacity="0.1886339291200353"/><circle cx="394.9590601171882" cy="282.76714007470684" r="19.67962194648904" fill="#fbbf24" opacity="0.17624980392429773"/><circle cx="447.8418758225246" cy="329.0396425402465" r="6.121979364911564" fill="#fbbf24" opacity="0.14921789867583252"/><circle cx="453.88845356657646" cy="395.9479843320661" r="13.652004266146541" fill="#fbbf24" opacity="0.2781529114800698"/><circle cx="345.7732121987789" cy="306.00836845275575" r="15.420477763204008" fill="#fbbf24" opacity="0.17807973672368127"/><circle cx="272.065559471739" cy="215.9224783403467" r="5.773295679049979" fill="#fbbf24" opacity="0.26463816312202976"/><circle cx="370.28648725557434" cy="279.48234611902274" r="6.125393615036121" fill="#fbbf24" opacity="0.1984587020671479"/><circle cx="258.6001853908845" cy="302.0665471722516" r="16.932349494255234" fill="#fbbf24" opacity="0.20036009622657436"/><circle cx="433.0578967666417" cy="189.7288176167715" r="6.091241149707266" fill="#fbbf24" opacity="0.27256534922022946"/><circle cx="502.6896420391574" cy="331.5650638577582" r="9.501579995176678" fill="#fbbf24" opacity="0.1940838474327279"/><circle cx="359.94262736200193" cy="162.50413751669691" r="16.547220421360223" fill="#fbbf24" opacity="0.2577989055652541"/><circle cx="398.82557834948136" cy="313.9337696505196" r="9.391282634407986" fill="#fbbf24" opacity="0.2510583100889303"/>
</svg>