<svg xmlns="http://www.w3.org/2000/svg" viewBox="0 0 800 500" preserveAspectRatio="xMidYMid slice" width="100%" height="100%">
<defs>
  <linearGradient id="bg" x1="0" y1="0" x2="0" y2="1">
    <stop offset="0%" stop-color="#000"/>
    <stop offset="100%" stop-color="#0a0420"/>
  </linearGradient>
  <radialGradient id="galaxyCore" cx="50%" cy="50%" r="50%">
    <stop offset="0%" stop-color="#fef3c7" stop-opacity="0.9"/>
    <stop offset="30%" stop-color="#fbbf24" stop-opacity="0.5"/>
    <stop offset="60%" stop-color="#a78bfa" stop-opacity="0.3"/>
    <stop offset="100%" stop-color="#6366f1" stop-opacity="0"/>
  </radialGradient>
  <radialGradient id="arm" cx="50%" cy="50%" r="50%">
    <stop offset="0%" stop-color="#a78bfa" stop-opacity="0.6"/>
    <stop offset="100%" stop-color="#6366f1" stop-opacity="0"/>
  </radialGradient>
</defs>
<rect width="800" height="500" fill="url(#bg)"/>
<circle cx="451.5633004936125" cy="387.24181507052396" r="0.495841220184074" fill="#fff" opacity="0.4043808802572334"/><circle cx="164.2889250216238" cy="150.5870331828461" r="0.5648818065529719" fill="#fff" opacity="0.32519572135647656"/><circle cx="106.97873963832825" cy="39.92718530967021" r="0.36526556114032416" fill="#fff" opacity="0.3982632007497984"/><circle cx="762.722928972459" cy="23.654024256596852" r="0.9370361401995884" fill="#fff" opacity="0.20173234254523353"/><circle cx="390.6864726483687" cy="434.5629000518137" r="0.25271050469648637" fill="#fff" opacity="0.6365568010749241"/><circle cx="609.3436629985504" cy="357.62088365016984" r="0.3090401019956587" fill="#fff" opacity="0.7002681197267346"/><circle cx="712.9159047099618" cy="355.8191376482441" r="0.683562734983045" fill="#fff" opacity="0.4774462238711192"/><circle cx="575.80343711056" cy="376.38193290314354" r="0.38899538686717083" fill="#fff" opacity="0.412416838416128"/><circle cx="509.9211476621076" cy="342.3202239880983" r="0.9657124494886988" fill="#fff" opacity="0.6384477529635127"/><circle cx="75.05305635491891" cy="107.10809141253385" r="0.9939691367608432" fill="#fff" opacity="0.25696273908241146"/><circle cx="723.228168933583" cy="44.43907222939403" r="0.27212275517285206" fill="#fff" opacity="0.462068445426258"/><circle cx="335.77976961350544" cy="321.22121025606253" r="0.9973185718528763" fill="#fff" opacity="0.3374129569008252"/><circle cx="708.6618569687296" cy="4.863849398429876" r="0.40725885738321993" fill="#fff" opacity="0.40909264788948907"/><circle cx="781.483066628795" cy="256.19662553894824" r="0.6570234220478876" fill="#fff" opacity="0.31140403112568693"/><circle cx="98.07974205758816" cy="240.96645687413292" r="0.5012552277587239" fill="#fff" opacity="0.6498834593567963"/><circle cx="479.49469346464275" cy="227.19903728288676" r="0.8994376372353301" fill="#fff" opacity="0.4585625009122796"/><circle cx="58.951629461151" cy="353.7788264647869" r="0.6266573129115918" fill="#fff" opacity="0.4617864838128764"/><circle cx="240.38044656381413" cy="64.20701824234342" r="0.4299652239813385" fill="#fff" opacity="0.7268686440365708"/><circle cx="130.2650932075198" cy="118.96615976916979" r="0.353111185774674" fill="#fff" opacity="0.44482691708510097"/><circle cx="35.32622597230368" cy="467.62165714281036" r="0.45462319454417743" fill="#fff" opacity="0.24237215556513067"/><circle cx="394.5586432419985" cy="117.53638472473577" r="0.5535612297420444" fill="#fff" opacity="0.26187822876768624"/><circle cx="707.9156435287273" cy="76.89022265631812" r="0.42141661757526255" fill="#fff" opacity="0.6354006894644691"/><circle cx="46.804995050586925" cy="37.76995195386418" r="0.5764293096403815" fill="#fff" opacity="0.5370448752109941"/><circle cx="385.3927117712121" cy="88.60051571488458" r="0.6626336820489855" fill="#fff" opacity="0.5601065250898644"/><circle cx="216.15860779493028" cy="324.38149922717383" r="0.9506531786334673" fill="#fff" opacity="0.5801345315007129"/><circle cx="348.5429993101014" cy="497.0274688116205" r="0.4135846933966004" fill="#fff" opacity="0.6908500732785487"/><circle cx="5.690439382050094" cy="492.2149881569523" r="0.9008539310019479" fill="#fff" opacity="0.4991099636572389"/><circle cx="692.1566257806918" cy="360.1735892109914" r="0.522063446828668" fill="#fff" opacity="0.7377224130665976"/><circle cx="602.2094021877818" cy="227.00228213298794" r="0.8175497476254157" fill="#fff" opacity="0.4712871140170299"/><circle cx="587.242513069705" cy="157.6686261511947" r="0.3142649470886285" fill="#fff" opacity="0.7244088175483223"/><circle cx="789.3337278535762" cy="438.7927510544694" r="0.3170872901690806" fill="#fff" opacity="0.6781168500330056"/><circle cx="617.3467796378492" cy="28.917730025885824" r="0.5909473144816764" fill="#fff" opacity="0.6233159383629203"/><circle cx="519.2564426661012" cy="198.07907749649019" r="0.9304797330920671" fill="#fff" opacity="0.6166585855433567"/><circle cx="287.71162185533984" cy="168.65877703587262" r="0.31301204502060537" fill="#fff" opacity="0.6838628340523571"/><circle cx="400.84785599944394" cy="228.88685647127315" r="0.8092129914193515" fill="#fff" opacity="0.5840426262751686"/><circle cx="456.0344639342423" cy="338.99591109833614" r="0.696328128381933" fill="#fff" opacity="0.390422061780779"/><circle cx="360.94024048110833" cy="100.19404114030145" r="0.3494539674837138" fill="#fff" opacity="0.6101809049811174"/><circle cx="153.03017503110024" cy="355.6625940579382" r="0.5751223560118295" fill="#fff" opacity="0.7356897950018788"/><circle cx="335.4135482816004" cy="176.9441266684591" r="0.6819415733069484" fill="#fff" opacity="0.510356850771754"/><circle cx="180.87687570472139" cy="36.47926861187683" r="0.9579460001652262" fill="#fff" opacity="0.37306432703713277"/><circle cx="571.3932087718107" cy="25.643822314027233" r="0.5781767617878786" fill="#fff" opacity="0.47497484724998923"/><circle cx="310.5519709043132" cy="220.88589685609983" r="0.24514313788053554" fill="#fff" opacity="0.3221477480985036"/><circle cx="571.252303062707" cy="405.4522694259728" r="0.3448282565978257" fill="#fff" opacity="0.2758999173556248"/><circle cx="672.0080231097969" cy="28.450249223006985" r="0.9869553693700073" fill="#fff" opacity="0.24308270713501468"/><circle cx="639.9967333277863" cy="476.6123394180422" r="0.7938925291436207" fill="#fff" opacity="0.443369496760102"/><circle cx="499.4242929117216" cy="23.93090451954938" r="0.656263542759056" fill="#fff" opacity="0.21942037959607497"/><circle cx="478.2976162711523" cy="27.71160739156131" r="0.5060559238514616" fill="#fff" opacity="0.745216669712861"/><circle cx="97.45937231883408" cy="30.325410896097303" r="0.5926274705868441" fill="#fff" opacity="0.461694272659597"/><circle cx="236.17461680051565" cy="41.37511204646272" r="0.9204385490012041" fill="#fff" opacity="0.5567701640399442"/><circle cx="365.8322377629179" cy="115.11956710518196" r="0.22849467061227405" fill="#fff" opacity="0.606517859905082"/><circle cx="132.54886196070112" cy="230.75514688137227" r="0.4800392172576767" fill="#fff" opacity="0.25648082856838655"/><circle cx="171.8216387531714" cy="233.83202249018103" r="0.9857241370450629" fill="#fff" opacity="0.25669543135011585"/><circle cx="333.34784878757597" cy="496.3521092964543" r="0.3579282425390786" fill="#fff" opacity="0.454647180453881"/><circle cx="617.3879249945242" cy="216.50676614037434" r="0.9886627521693734" fill="#fff" opacity="0.48251621109892623"/><circle cx="77.52376649869008" cy="78.02327156824256" r="0.7343970851008921" fill="#fff" opacity="0.601745211222165"/><circle cx="531.9637195188299" cy="60.83073053721044" r="0.7634306912589175" fill="#fff" opacity="0.22787306026127227"/><circle cx="113.58581630180211" cy="19.944318929205117" r="0.4296541597978178" fill="#fff" opacity="0.48532962062329515"/><circle cx="542.6404585681552" cy="267.3365094167359" r="0.6434229525277733" fill="#fff" opacity="0.2611435023353499"/><circle cx="242.10823570974264" cy="277.1019252390076" r="0.6232318192582789" fill="#fff" opacity="0.4309915833187399"/><circle cx="396.0153204748593" cy="11.051601176759407" r="0.5780856147145104" fill="#fff" opacity="0.7538166213198463"/><circle cx="594.4456259021255" cy="435.2445333888734" r="0.4702743733715772" fill="#fff" opacity="0.4468728696773394"/><circle cx="374.89455076680935" cy="79.83775210068855" r="0.9704354918054274" fill="#fff" opacity="0.3445975225024793"/><circle cx="96.85171461536966" cy="311.02143145273936" r="0.3069360390194067" fill="#fff" opacity="0.6278917345008436"/><circle cx="608.1678711639456" cy="418.73303856867415" r="0.20523644288443582" fill="#fff" opacity="0.4827375663678388"/><circle cx="564.2218401709355" cy="164.7031662259117" r="0.9586679526030875" fill="#fff" opacity="0.2662280127861454"/><circle cx="327.91686296885183" cy="375.4723492484024" r="0.6304082994935156" fill="#fff" opacity="0.5891877366820214"/><circle cx="61.6450533492757" cy="162.86509643309694" r="0.7345858498645503" fill="#fff" opacity="0.6757427833617516"/><circle cx="432.5620574902281" cy="216.5542949084181" r="0.5000144498569333" fill="#fff" opacity="0.7339632935437572"/><circle cx="564.8651328223958" cy="55.82912534674206" r="0.6878029064463063" fill="#fff" opacity="0.2510420501109381"/><circle cx="598.6609661223938" cy="116.90751126883958" r="0.23931870790800336" fill="#fff" opacity="0.4568201795761146"/><circle cx="18.99599100502165" cy="266.6179470303777" r="0.20349450689974155" fill="#fff" opacity="0.6380593205291736"/><circle cx="199.43734233274915" cy="69.91358306789608" r="0.3998891964274486" fill="#fff" opacity="0.4364203075553044"/><circle cx="597.138013033219" cy="53.238496308564144" r="0.9160788779887576" fill="#fff" opacity="0.7885359541009849"/><circle cx="539.3535325902394" cy="164.33906640343747" r="0.6653306410939532" fill="#fff" opacity="0.49320447980989235"/><circle cx="691.5036397896254" cy="354.18147338471016" r="0.9587429623537067" fill="#fff" opacity="0.3803177627147717"/><circle cx="329.48549661755095" cy="184.96981151542818" r="0.9895171923534418" fill="#fff" opacity="0.6600498008576605"/><circle cx="449.6755328174711" cy="137.26592387980324" r="0.3391946692607489" fill="#fff" opacity="0.5393910629716542"/><circle cx="725.0721291666682" cy="489.4075101117537" r="0.9517191775531224" fill="#fff" opacity="0.35670640117437263"/><circle cx="257.8111530047617" cy="185.94523137230655" r="0.33711377630761274" fill="#fff" opacity="0.5973354957982608"/><circle cx="359.3787138931535" cy="203.69176259353728" r="0.7445918757686645" fill="#fff" opacity="0.4027136729426729"/><circle cx="289.9268765002093" cy="299.3240104947575" r="0.6851638193341172" fill="#fff" opacity="0.34421245442614784"/><circle cx="204.8699286910299" cy="151.30222996087556" r="0.6201276341588757" fill="#fff" opacity="0.2991410169638573"/><circle cx="169.18893833599188" cy="405.3543703391519" r="0.7135164610959168" fill="#fff" opacity="0.5874290566649475"/><circle cx="204.8787357539993" cy="220.73862463631949" r="0.5644064203242662" fill="#fff" opacity="0.6189156805561173"/><circle cx="398.7007832927569" cy="250.42690642180804" r="0.5062743774206246" fill="#fff" opacity="0.5368159600102778"/><circle cx="375.0546059348846" cy="257.2232158886751" r="0.7072189666238418" fill="#fff" opacity="0.7652358400192092"/><circle cx="349.5315778014338" cy="232.80900198870359" r="0.7660681418366755" fill="#fff" opacity="0.7885804574597381"/><circle cx="175.4458389747663" cy="398.34250226314424" r="0.5685291790324831" fill="#fff" opacity="0.7715404966205464"/><circle cx="321.6619375516043" cy="76.5994605733224" r="0.8655316908596173" fill="#fff" opacity="0.22180571403941837"/><circle cx="491.6823628873801" cy="201.7274469433471" r="0.970866112672095" fill="#fff" opacity="0.6908695162977396"/><circle cx="463.256235375139" cy="333.6984476985617" r="0.9061698791076558" fill="#fff" opacity="0.32919725074464956"/><circle cx="744.5248815605185" cy="294.01614136585414" r="0.83708359726578" fill="#fff" opacity="0.40730836535417186"/><circle cx="476.85671270325383" cy="157.66349814898257" r="0.7191017561561917" fill="#fff" opacity="0.23222985139041202"/><circle cx="641.174068651367" cy="341.21563620198583" r="0.9484303045558757" fill="#fff" opacity="0.7404249658840298"/><circle cx="339.3308063943909" cy="283.8246885949852" r="0.45328432797969853" fill="#fff" opacity="0.7752558141510146"/><circle cx="324.29349561283914" cy="38.83495957892674" r="0.21485685739477525" fill="#fff" opacity="0.551765525678383"/><circle cx="119.55086759834197" cy="181.2266066247814" r="0.5793873801586864" fill="#fff" opacity="0.6852573096698964"/><circle cx="183.8661718100968" cy="483.2172400105114" r="0.296277411074677" fill="#fff" opacity="0.2847193815308526"/><circle cx="139.82191917710577" cy="235.6246375060389" r="0.3289185037324736" fill="#fff" opacity="0.5198123586148568"/><circle cx="287.7728451552686" cy="122.57390716716444" r="0.4566803160926222" fill="#fff" opacity="0.7103261500673115"/><circle cx="726.5320196336472" cy="77.65001570907992" r="0.6224488528727061" fill="#fff" opacity="0.7720324515363626"/><circle cx="175.98326632071942" cy="284.45311586443245" r="0.574734675176008" fill="#fff" opacity="0.7589215063090884"/><circle cx="343.494792457538" cy="496.66508982098924" r="0.5509088411633412" fill="#fff" opacity="0.3987132683717828"/><circle cx="248.6107452737997" cy="201.56751677622643" r="0.573556458653549" fill="#fff" opacity="0.292137614626218"/><circle cx="729.5063710645865" cy="56.437183837238116" r="0.9633124358348601" fill="#fff" opacity="0.3253562116597881"/><circle cx="798.6849064627183" cy="485.56478006133443" r="0.3248883370214564" fill="#fff" opacity="0.48844358748427574"/><circle cx="246.15107258430982" cy="321.78023855289945" r="0.764485871288392" fill="#fff" opacity="0.3790408391579798"/><circle cx="183.92341215783256" cy="309.3003576829564" r="0.5693285773168758" fill="#fff" opacity="0.5497125975625607"/><circle cx="763.5154810877159" cy="111.96257737705973" r="0.41719756443151823" fill="#fff" opacity="0.4483355104418675"/><circle cx="392.3790283438036" cy="6.805723306955668" r="0.31318954035519514" fill="#fff" opacity="0.5068866000616302"/><circle cx="86.40878104856569" cy="110.44124557260865" r="0.8637753454112629" fill="#fff" opacity="0.7794411260215961"/><circle cx="152.8599812537232" cy="185.06709324842336" r="0.23381732887528905" fill="#fff" opacity="0.6271184599549466"/><circle cx="53.62374103631309" cy="356.2744896604968" r="0.23878304181862192" fill="#fff" opacity="0.5179651671088609"/><circle cx="705.8712401018068" cy="213.48196524837576" r="0.862738070169486" fill="#fff" opacity="0.674857243458937"/><circle cx="653.4732638219494" cy="472.980434465986" r="0.6373703631623966" fill="#fff" opacity="0.38302709230663423"/><circle cx="766.1522093363814" cy="26.958567775746012" r="0.4075316170437079" fill="#fff" opacity="0.36947427017105594"/><circle cx="388.65580203898037" cy="307.54707227552433" r="0.7231189036013774" fill="#fff" opacity="0.7929106552851328"/><circle cx="133.2214777327639" cy="203.18464896955817" r="0.4591528953223983" fill="#fff" opacity="0.5494187131522269"/><circle cx="729.9073392212049" cy="248.1658466935652" r="0.2430013281751271" fill="#fff" opacity="0.6500436090272552"/><circle cx="104.42744726053598" cy="284.7772414320615" r="0.9034139937533159" fill="#fff" opacity="0.734139006747861"/><circle cx="759.3907303887883" cy="325.68983504430764" r="0.8770758202004763" fill="#fff" opacity="0.7627417962363767"/><circle cx="262.44282547141086" cy="37.05154012369655" r="0.7542229594123169" fill="#fff" opacity="0.22494137241177514"/><circle cx="484.9314811879199" cy="330.47969470248796" r="0.28088046758288815" fill="#fff" opacity="0.2619862556426246"/><circle cx="125.81855498752131" cy="53.86574045934456" r="0.3828768764886034" fill="#fff" opacity="0.21861547125771438"/><circle cx="403.38818892138084" cy="80.53497594609105" r="0.7732934114902037" fill="#fff" opacity="0.4742592276903099"/><circle cx="334.3319567098752" cy="26.082877683284046" r="0.268016476331276" fill="#fff" opacity="0.4130337900921861"/><circle cx="555.0559992801487" cy="244.92756047177895" r="0.5931516353849919" fill="#fff" opacity="0.21726970895203138"/><circle cx="20.33142896995548" cy="300.7220980142732" r="0.9071330536879638" fill="#fff" opacity="0.5455508405914286"/><circle cx="275.9107744054734" cy="444.9505901331617" r="0.4634142815378491" fill="#fff" opacity="0.32909532800971986"/><circle cx="482.7853177262486" cy="11.102060036247918" r="0.3449187940177476" fill="#fff" opacity="0.5594408772900634"/><circle cx="310.60808464881137" cy="134.7049918858428" r="0.5636998489489524" fill="#fff" opacity="0.5611878156207617"/><circle cx="248.55524373824468" cy="414.13188018077847" r="0.4214806427702629" fill="#fff" opacity="0.4277800526396581"/><circle cx="157.78313486024206" cy="288.4589882769003" r="0.5198519496587829" fill="#fff" opacity="0.2599482243340413"/><circle cx="781.1566852758046" cy="59.594094499314295" r="0.3048471238320802" fill="#fff" opacity="0.7271920352841175"/><circle cx="322.4246644634715" cy="431.91476792142583" r="0.37796807400528565" fill="#fff" opacity="0.7548907543711576"/><circle cx="305.81831017132413" cy="421.75714622386687" r="0.5065109089848832" fill="#fff" opacity="0.286940948942139"/><circle cx="247.24226298739654" cy="112.35471523915136" r="0.23973736546456054" fill="#fff" opacity="0.23336655359309222"/><circle cx="792.372130982143" cy="331.0399266901628" r="0.6263855801904619" fill="#fff" opacity="0.7891377582178909"/><circle cx="428.32059645470684" cy="65.00520255024567" r="0.8137210295478081" fill="#fff" opacity="0.7573269868926025"/><circle cx="598.0273809059158" cy="423.67127782179386" r="0.22641243330227231" fill="#fff" opacity="0.7141457113743921"/><circle cx="737.1607992005414" cy="82.06755545552441" r="0.94875966849932" fill="#fff" opacity="0.21029852087897516"/><circle cx="658.0592369354708" cy="470.9818455922166" r="0.37340365231151473" fill="#fff" opacity="0.5904057773187511"/><circle cx="763.8204952758712" cy="307.360816660409" r="0.6667567239823715" fill="#fff" opacity="0.4268471772205028"/><circle cx="84.26617957025053" cy="320.8275955379693" r="0.909799801404038" fill="#fff" opacity="0.3453260522453142"/><circle cx="7.163321752212859" cy="98.27739328727408" r="0.38227463151608676" fill="#fff" opacity="0.5094361219600974"/><circle cx="685.8241458011707" cy="198.40581596260932" r="0.9141778329080432" fill="#fff" opacity="0.780388150012308"/><circle cx="684.5988065862138" cy="378.0326799595769" r="0.6713481472047543" fill="#fff" opacity="0.5052927374209654"/><circle cx="445.6067659177161" cy="125.63480728676623" r="0.34535788308275583" fill="#fff" opacity="0.7439125437538217"/><circle cx="690.9305675116999" cy="52.1772018966396" r="0.6530374852347852" fill="#fff" opacity="0.2058034085343488"/><circle cx="782.6134118932611" cy="464.8618749527594" r="0.6200551577017099" fill="#fff" opacity="0.7598711151255602"/><circle cx="716.1788514456663" cy="269.82614442672593" r="0.9919010707690552" fill="#fff" opacity="0.786487213553613"/><circle cx="86.88016801375733" cy="417.7541555832688" r="0.5078219103368848" fill="#fff" opacity="0.7524150630879824"/><circle cx="401.2249981383281" cy="137.45934835518347" r="0.3073269741101431" fill="#fff" opacity="0.25165537210185696"/><circle cx="29.665206809542433" cy="272.3454581617732" r="0.3372836745823812" fill="#fff" opacity="0.5502155454678345"/><circle cx="546.0349143393073" cy="224.1795233135061" r="0.7907480602952792" fill="#fff" opacity="0.6661084200458995"/><circle cx="729.6678135800117" cy="40.22903629258201" r="0.716721663157188" fill="#fff" opacity="0.7242889951309683"/><circle cx="470.9068225159339" cy="195.54365731580236" r="0.44700181396470784" fill="#fff" opacity="0.47076208681932896"/><circle cx="155.06382475556126" cy="224.99198866229543" r="0.8209061161097579" fill="#fff" opacity="0.6604026397547079"/><circle cx="205.12879021221258" cy="464.0227202910136" r="0.32139907289684616" fill="#fff" opacity="0.24782799756475737"/><circle cx="127.01645868981899" cy="56.82588411349926" r="0.2865026645641532" fill="#fff" opacity="0.5123115908253835"/><circle cx="340.19708119187675" cy="455.124914786574" r="0.677454196317723" fill="#fff" opacity="0.212986287177836"/><circle cx="241.0840810839307" cy="18.60006180709045" r="0.9039732597378487" fill="#fff" opacity="0.25654732758467746"/><circle cx="482.7608477771539" cy="61.751879233316764" r="0.8767880787899098" fill="#fff" opacity="0.31280598394061426"/><circle cx="605.0723229256807" cy="60.31089634008618" r="0.7615990090311751" fill="#fff" opacity="0.4249484263387774"/><circle cx="274.50797394218665" cy="230.30838318579472" r="0.3486983350129127" fill="#fff" opacity="0.6152214707822509"/><circle cx="315.2082422305016" cy="270.73266343498574" r="0.8007313901489288" fill="#fff" opacity="0.3223864432148765"/><circle cx="417.1390956038765" cy="256.93143596348375" r="0.241832165260597" fill="#fff" opacity="0.2276749982858663"/><circle cx="284.83568041470033" cy="472.7312732835317" r="0.42657784286055356" fill="#fff" opacity="0.5757389382028122"/><circle cx="719.6957642634155" cy="372.7703673704885" r="0.3251294555550738" fill="#fff" opacity="0.5130232388263791"/><circle cx="365.23855678519556" cy="111.0257379969492" r="0.5055726222471004" fill="#fff" opacity="0.580887626366058"/><circle cx="689.8111462456774" cy="27.472760570695698" r="0.8419722675397436" fill="#fff" opacity="0.30982744180665744"/><circle cx="771.3956912666964" cy="248.12809542197732" r="0.2965612021101534" fill="#fff" opacity="0.6162263975899145"/><circle cx="750.2435085871846" cy="427.92419218695994" r="0.6374516133088917" fill="#fff" opacity="0.5232470165180825"/><circle cx="603.9867175068955" cy="361.6245951373915" r="0.5686585476985009" fill="#fff" opacity="0.5199186755245293"/><circle cx="315.7665820978039" cy="352.64893480979134" r="0.8798635512764774" fill="#fff" opacity="0.4997448020310295"/><circle cx="325.50333077545304" cy="212.13051567729724" r="0.25133419813379876" fill="#fff" opacity="0.3615313686721243"/><circle cx="223.96937131050078" cy="181.467316965905" r="0.4704633048947341" fill="#fff" opacity="0.2955559588855974"/><circle cx="665.4317538152818" cy="421.5165478854722" r="0.22564354355794586" fill="#fff" opacity="0.3737732828843886"/><circle cx="355.70985815131877" cy="242.69034148036945" r="0.5676933736473007" fill="#fff" opacity="0.7979178164955221"/><circle cx="312.49369729029956" cy="328.21692268740406" r="0.9370757222847497" fill="#fff" opacity="0.30800071445440746"/><circle cx="3.792550041532561" cy="368.810270904326" r="0.7864036583406373" fill="#fff" opacity="0.2292521746002819"/><circle cx="106.14047876217026" cy="51.16267310035594" r="0.9637963114958736" fill="#fff" opacity="0.6738552910633415"/><circle cx="345.0137436856175" cy="7.357695967661448" r="0.9537391292187523" fill="#fff" opacity="0.49488538927003634"/><circle cx="771.1701191812481" cy="202.44515927725064" r="0.8465741513409275" fill="#fff" opacity="0.41879408027286713"/><circle cx="388.7412011050131" cy="73.86839504538307" r="0.9941803602804855" fill="#fff" opacity="0.6723952345074194"/><circle cx="314.8231815825179" cy="305.95083199088566" r="0.3562641896694201" fill="#fff" opacity="0.6965115420949316"/><circle cx="572.9190195162295" cy="88.43757440107208" r="0.4346844498230133" fill="#fff" opacity="0.4427140240965033"/><circle cx="344.09563636258696" cy="50.15629907993874" r="0.5456480119974076" fill="#fff" opacity="0.5166054442880313"/><circle cx="318.9016876780679" cy="212.37370689585845" r="0.28924589985882343" fill="#fff" opacity="0.6355241385890766"/><circle cx="533.4205686760306" cy="98.95879816915826" r="0.22161871155280652" fill="#fff" opacity="0.765160019710857"/><circle cx="652.4653580040144" cy="292.68072270617444" r="0.6390882289298139" fill="#fff" opacity="0.30926663049793357"/><circle cx="554.6900822266756" cy="51.069409873352626" r="0.7843277042171783" fill="#fff" opacity="0.421553253671507"/><circle cx="749.6236844380967" cy="50.86348471760333" r="0.9202564312392132" fill="#fff" opacity="0.21772632483843432"/><circle cx="468.9238041247096" cy="165.6443340044066" r="0.4510636875728506" fill="#fff" opacity="0.2746913032441487"/><circle cx="202.5012073189532" cy="405.16969942918934" r="0.9172204413399643" fill="#fff" opacity="0.5792266281060575"/><circle cx="290.03764111673706" cy="6.623029336091324" r="0.9362994865375949" fill="#fff" opacity="0.34325813070867983"/><circle cx="73.95198388322824" cy="325.85808923200125" r="0.877767792946718" fill="#fff" opacity="0.43764429855648135"/><circle cx="605.2374348669603" cy="240.1062171333775" r="0.5991207856533688" fill="#fff" opacity="0.3150815156068614"/><circle cx="90.19606800717446" cy="348.4089746267325" r="0.8284109501769203" fill="#fff" opacity="0.21787906796651485"/><circle cx="363.8024936526432" cy="63.12616809058874" r="0.2139636338912923" fill="#fff" opacity="0.7482863524345971"/><circle cx="95.84388256104236" cy="368.48421672536097" r="0.7191415802142065" fill="#fff" opacity="0.4702895221830536"/><circle cx="556.7398456311632" cy="428.1998933944021" r="0.8079709692303998" fill="#fff" opacity="0.6533801445978507"/><circle cx="175.46150529528495" cy="162.0228094108363" r="0.27809137782952986" fill="#fff" opacity="0.5123317105586203"/><circle cx="120.20957312790266" cy="326.66784628617563" r="0.3998826737525672" fill="#fff" opacity="0.7976050662720151"/><circle cx="367.1761231314712" cy="34.31890022239975" r="0.8593922346545995" fill="#fff" opacity="0.25075818353260443"/><circle cx="583.0921635959805" cy="185.77897179142516" r="0.9801784620166127" fill="#fff" opacity="0.6053503065192473"/><circle cx="709.3332021141678" cy="237.8189097623894" r="0.516316603879565" fill="#fff" opacity="0.6975706422761919"/><circle cx="633.8428957961473" cy="403.3379443261101" r="0.5740265324339229" fill="#fff" opacity="0.33409374952840987"/><circle cx="102.54406271061755" cy="314.31488530788107" r="0.4200634741549043" fill="#fff" opacity="0.2291788519240774"/><circle cx="537.4581224812038" cy="168.19822452252032" r="0.5170404048884845" fill="#fff" opacity="0.79069014622389"/><circle cx="431.3583446612145" cy="446.9364627394644" r="0.7105360796719753" fill="#fff" opacity="0.496769277308683"/><circle cx="53.28529357982772" cy="212.36664130388095" r="0.49366332304004523" fill="#fff" opacity="0.6463400764022336"/><circle cx="569.5035300058413" cy="151.36988596154737" r="0.6860033393735261" fill="#fff" opacity="0.7006470451873699"/><circle cx="310.5781724615647" cy="14.126401806927703" r="0.7120520381293125" fill="#fff" opacity="0.6516953987116373"/><circle cx="229.52386515795843" cy="79.98905359966513" r="0.6125876328003306" fill="#fff" opacity="0.6387646979971421"/><circle cx="688.0743359306779" cy="338.53778685848266" r="0.8831549331195352" fill="#fff" opacity="0.20839606198493052"/><circle cx="400.49756509498326" cy="305.97037800700235" r="0.5177072022728231" fill="#fff" opacity="0.6207420557343003"/><circle cx="404.78928970251184" cy="396.80594046346204" r="0.4752605507951449" fill="#fff" opacity="0.5454369069169972"/><circle cx="526.4124285493692" cy="417.28281572370463" r="0.6766308685066409" fill="#fff" opacity="0.718906204478629"/><circle cx="266.977697816117" cy="411.23141965737506" r="0.20544305085146766" fill="#fff" opacity="0.35475913767153455"/><circle cx="212.89654061317788" cy="168.6167904293702" r="0.52905945599783" fill="#fff" opacity="0.7672066546333967"/><circle cx="782.8134901105057" cy="65.62025311995062" r="0.9156695597268789" fill="#fff" opacity="0.7144120782272454"/><circle cx="380.1086693459966" cy="399.4098563327068" r="0.4671142461307187" fill="#fff" opacity="0.6863663438273866"/><circle cx="276.0182152254381" cy="307.7930235886113" r="0.6347049053278271" fill="#fff" opacity="0.6184586983248805"/><circle cx="592.2216907420888" cy="24.230182971187453" r="0.34765068249976566" fill="#fff" opacity="0.7109435062893941"/><circle cx="532.952535042107" cy="438.6841394160186" r="0.8285717499281513" fill="#fff" opacity="0.46802044098141016"/><circle cx="571.4762738460652" cy="260.73069916645954" r="0.5182585084673392" fill="#fff" opacity="0.5356014563510032"/><circle cx="594.4691974167855" cy="460.11667573314486" r="0.5037521558315894" fill="#fff" opacity="0.35677002303298344"/><circle cx="165.4248324217188" cy="341.4282707412646" r="0.3262482353576715" fill="#fff" opacity="0.38710201647754483"/><circle cx="759.966714870166" cy="497.5735103119676" r="0.6173549206872648" fill="#fff" opacity="0.4896718504441398"/><circle cx="689.1169676998871" cy="183.15082668249278" r="0.881009802474851" fill="#fff" opacity="0.23574301323310937"/><circle cx="27.004702033350103" cy="129.28950669188583" r="0.6389455582485227" fill="#fff" opacity="0.6841359379229011"/><circle cx="549.3783880663107" cy="62.1144470213566" r="0.21997182011279107" fill="#fff" opacity="0.5799329566867166"/><circle cx="722.8924047868676" cy="315.7841500139989" r="0.3443125161620332" fill="#fff" opacity="0.7340091769614505"/><circle cx="198.02236060425668" cy="108.10148247086687" r="0.4190189652419726" fill="#fff" opacity="0.6225544049460088"/><circle cx="327.8771976823414" cy="272.83485770832647" r="0.9200557728068368" fill="#fff" opacity="0.7632632218860462"/><circle cx="255.55918514550405" cy="69.25788588853415" r="0.40802900200238085" fill="#fff" opacity="0.7591751737817898"/><circle cx="489.8376646375092" cy="87.25687082142363" r="0.2205826485603648" fill="#fff" opacity="0.4316419566802794"/><circle cx="307.12585673414753" cy="92.59391948104168" r="0.9969792076024058" fill="#fff" opacity="0.6657545153549496"/><circle cx="587.6026651708154" cy="85.1686189814591" r="0.4418178420320025" fill="#fff" opacity="0.5042436768881731"/><circle cx="177.3645357925937" cy="30.5226274492858" r="0.9653898967629897" fill="#fff" opacity="0.22631332440191398"/><circle cx="187.54232072628855" cy="200.9582114065414" r="0.6247184623153541" fill="#fff" opacity="0.2982094610828007"/><circle cx="315.78948907967225" cy="424.25814779024495" r="0.9633250506462674" fill="#fff" opacity="0.2364663221750795"/><circle cx="237.261456298474" cy="423.57454373045385" r="0.7078071777904347" fill="#fff" opacity="0.6546322630753991"/><circle cx="725.8563562302808" cy="406.54402822229036" r="0.6279407205297816" fill="#fff" opacity="0.4102617267640547"/><circle cx="238.2863629708761" cy="144.680462753852" r="0.7162377966128928" fill="#fff" opacity="0.5856575462070714"/><circle cx="481.0046763475957" cy="485.38403350147064" r="0.5221526170049869" fill="#fff" opacity="0.730856692211475"/><circle cx="791.8210883788144" cy="394.0520429630371" r="0.5197786640209725" fill="#fff" opacity="0.7932457916097135"/><circle cx="202.11266126622246" cy="452.9448361967618" r="0.5094817892846497" fill="#fff" opacity="0.4942933302665891"/><circle cx="538.7565325930285" cy="287.75329949194185" r="0.6820428510929848" fill="#fff" opacity="0.22305748483952093"/><circle cx="221.72706924196265" cy="190.0731433315615" r="0.3698337621906723" fill="#fff" opacity="0.6899559395452185"/><circle cx="712.8695500239513" cy="492.768334543357" r="0.8444404447144063" fill="#fff" opacity="0.5928546132285366"/><circle cx="628.096831350156" cy="155.10381014104857" r="0.6268394526130963" fill="#fff" opacity="0.6682609797108008"/><circle cx="397.6679027501966" cy="252.49369298116264" r="0.24416617756400463" fill="#fff" opacity="0.760729697445087"/><circle cx="564.3079122657539" cy="343.3744284305379" r="0.34276678225382207" fill="#fff" opacity="0.284956620922969"/><circle cx="113.85108753798772" cy="256.93604439967356" r="0.5960547303303385" fill="#fff" opacity="0.7801616698654987"/><circle cx="485.50940245808727" cy="251.68185961368877" r="0.898337819042033" fill="#fff" opacity="0.636128179844686"/><circle cx="350.32683218880123" cy="383.7317261987213" r="0.725712405274294" fill="#fff" opacity="0.29190888128898984"/><circle cx="51.0912535095037" cy="142.83069928798002" r="0.769536679692298" fill="#fff" opacity="0.4462112370213684"/><circle cx="337.21777969646007" cy="482.0769401767278" r="0.46955116222929805" fill="#fff" opacity="0.3577934186207467"/><circle cx="578.4485504148822" cy="361.9166768666242" r="0.672079714864054" fill="#fff" opacity="0.5971260448479925"/><circle cx="247.23028596055113" cy="62.963949124790254" r="0.5714767552890565" fill="#fff" opacity="0.5589162453318635"/><circle cx="39.41553956941384" cy="315.09293357909814" r="0.5368684552655562" fill="#fff" opacity="0.6134106979667291"/><circle cx="705.4771004430779" cy="480.9373579438772" r="0.2612519280578285" fill="#fff" opacity="0.40930583986749614"/><circle cx="129.23940552779402" cy="317.83311503903667" r="0.7794142911350086" fill="#fff" opacity="0.48060687233301647"/><circle cx="105.04998538749577" cy="315.70595304987114" r="0.6392107057237815" fill="#fff" opacity="0.24412485956666174"/><circle cx="663.6282242887082" cy="291.4312080774097" r="0.6411821172683132" fill="#fff" opacity="0.5006464191799358"/><circle cx="484.29838105007013" cy="227.32004124227146" r="0.29377631567278545" fill="#fff" opacity="0.25973447201295524"/><circle cx="601.115587036288" cy="311.23800726800704" r="0.9493377390439819" fill="#fff" opacity="0.7499929382177897"/><circle cx="307.22059279193024" cy="9.688171576252568" r="0.7514565314358672" fill="#fff" opacity="0.22851229104921766"/><circle cx="377.6039855672222" cy="227.61458169293502" r="0.2540611375356179" fill="#fff" opacity="0.2029275699459962"/><circle cx="574.5586066167307" cy="140.97452135459017" r="0.6071642390401599" fill="#fff" opacity="0.4788634588783115"/><circle cx="517.9386440843098" cy="171.38716683870337" r="0.49759709137557506" fill="#fff" opacity="0.26557128960381865"/><circle cx="266.060740457881" cy="396.95373314698105" r="0.8899007092620341" fill="#fff" opacity="0.40038835476904955"/><circle cx="610.9475412347613" cy="297.0889841411308" r="0.6894624498617357" fill="#fff" opacity="0.35235557120489336"/><circle cx="721.2345344631995" cy="476.18677188103766" r="0.30939619169365673" fill="#fff" opacity="0.7441496292762515"/><circle cx="203.07212316231835" cy="200.0202421853192" r="0.4104325673602436" fill="#fff" opacity="0.24231897942577962"/><circle cx="307.289524024227" cy="343.19668261396964" r="0.4186715633079306" fill="#fff" opacity="0.7360879701447864"/><circle cx="556.2651705984972" cy="170.5634598457354" r="0.2561615901731184" fill="#fff" opacity="0.22301688031179256"/><circle cx="299.4489630481185" cy="224.3399527475743" r="0.8123673375626999" fill="#fff" opacity="0.7413667208949521"/><circle cx="1.5976092028581412" cy="496.59401742309194" r="0.8733049548087903" fill="#fff" opacity="0.7047732825617281"/><circle cx="148.78665794247928" cy="451.59650593085826" r="0.8076026956631159" fill="#fff" opacity="0.3526358169342152"/><circle cx="680.0276141303343" cy="329.30303740260456" r="0.9912618205732053" fill="#fff" opacity="0.609608720452174"/><circle cx="750.6716384657378" cy="198.33303882565014" r="0.8890214241110095" fill="#fff" opacity="0.6768546662782603"/><circle cx="699.5322021891884" cy="332.09978012417594" r="0.2571640400616893" fill="#fff" opacity="0.6555418355729759"/><circle cx="50.54824360878172" cy="20.898631019839687" r="0.6670195162032564" fill="#fff" opacity="0.35505484582244895"/><circle cx="641.4943792354346" cy="293.7955914558196" r="0.8340929574385005" fill="#fff" opacity="0.6630782793459686"/><circle cx="405.78237125471617" cy="39.746541548327244" r="0.7408027859619497" fill="#fff" opacity="0.4588873033782959"/><circle cx="798.8847959309169" cy="350.1046976465619" r="0.46364127126444327" fill="#fff" opacity="0.5334648426679958"/><circle cx="129.32099829728347" cy="143.28735658830084" r="0.45887882222072174" fill="#fff" opacity="0.2379775795382009"/><circle cx="474.36502768056624" cy="260.4014283686111" r="0.3673652794535232" fill="#fff" opacity="0.6788479437797753"/><circle cx="25.589079387074865" cy="44.01897335578475" r="0.607821045899403" fill="#fff" opacity="0.5646161361399917"/><circle cx="297.8225970128791" cy="68.42624578422068" r="0.8367157667796847" fill="#fff" opacity="0.29950578886038653"/><circle cx="56.88857585092748" cy="193.7784169477401" r="0.8156580641868381" fill="#fff" opacity="0.2543445366738535"/><circle cx="89.15126870018932" cy="398.5361921699586" r="0.6702476765748708" fill="#fff" opacity="0.7817524409626373"/><circle cx="766.6142442665755" cy="324.31614812162485" r="0.964615312196367" fill="#fff" opacity="0.44278756674823005"/><circle cx="238.2780905876479" cy="113.95937622152341" r="0.631450270289516" fill="#fff" opacity="0.297913904177484"/><circle cx="203.38419778819866" cy="226.56501010677027" r="0.6904687560720403" fill="#fff" opacity="0.5635139550778795"/><circle cx="455.1033579865093" cy="186.4653429394" r="0.637123896640176" fill="#fff" opacity="0.34567605855251143"/><circle cx="582.4911175811603" cy="26.843103111086563" r="0.33056846785437904" fill="#fff" opacity="0.6803301984049788"/>
<!-- galaxy tilted disk -->
<g transform="translate(400,260) rotate(-15)">
  <ellipse cx="0" cy="0" rx="360" ry="80" fill="url(#arm)"/>
  <ellipse cx="0" cy="0" rx="320" ry="65" fill="url(#arm)" opacity="0.7"/>
  <ellipse cx="0" cy="0" rx="280" ry="55" fill="url(#arm)" opacity="0.5"/>
  <!-- core bulge -->
  <ellipse cx="0" cy="0" rx="80" ry="50" fill="url(#galaxyCore)"/>
  <ellipse cx="0" cy="0" rx="40" ry="25" fill="#fef3c7" opacity="0.8"/>
  <!-- spiral arm stars -->
  <circle cx="80" cy="0" r="0.5854274505497599" fill="#fde68a" opacity="0.3750258978945696"/><circle cx="81.38920485909863" cy="0.9346073444703723" r="0.4567810353186478" fill="#fde68a" opacity="0.7849256826659456"/><circle cx="82.54853302075631" cy="1.901946711204457" r="0.31803825484599785" fill="#fde68a" opacity="0.45688232655430966"/><circle cx="83.46600932355209" cy="2.89929024415885" r="0.40030951110839474" fill="#fde68a" opacity="0.38084048916537927"/><circle cx="84.13031120435934" cy="3.923721658608084" r="0.7605771638813726" fill="#fde68a" opacity="0.5057498589508704"/><circle cx="84.53082590783627" cy="4.972143442501551" r="0.5989578863848514" fill="#fde68a" opacity="0.5085640645185308"/><circle cx="84.65770618337777" cy="6.041284857910102" r="1.0800589371417957" fill="#fde68a" opacity="0.5424243649673179"/><circle cx="84.5019242481025" cy="7.127710729330184" r="0.8946881517040248" fill="#fde68a" opacity="0.3475194961834727"/><circle cx="84.05532379609694" cy="8.22783100277416" r="0.7892911175415676" fill="#fde68a" opacity="0.6068062127160463"/><circle cx="83.31066983650123" cy="9.33791105673237" r="0.9766502235086651" fill="#fde68a" opacity="0.5692897199767077"/><circle cx="82.26169614610956" cy="10.45408274325361" r="1.027908108210862" fill="#fde68a" opacity="0.6556445741790808"/><circle cx="80.90315012597358" cy="11.572356134564744" r="0.8975968248243493" fill="#fde68a" opacity="0.3809542612105097"/><circle cx="79.23083485604558" cy="12.688631947845254" r="0.6946813494053884" fill="#fde68a" opacity="0.3496879998372696"/><circle cx="77.24164814718101" cy="13.79871461799769" r="0.43045781199447375" fill="#fde68a" opacity="0.44116939728494275"/><circle cx="74.93361839583692" cy="14.898325985518749" r="0.807037426427911" fill="#fde68a" opacity="0.6520351867722229"/><circle cx="72.30593705355045" cy="15.983119563886994" r="0.8415238124156494" fill="#fde68a" opacity="0.3314750097251394"/><circle cx="69.35898753075841" cy="17.048695348250906" r="1.0413133920823692" fill="#fde68a" opacity="0.7178098535178672"/><circle cx="66.09437036271545" cy="18.090615124634102" r="0.7300777142120057" fill="#fde68a" opacity="0.35948765622622314"/><circle cx="62.51492447417837" cy="19.10441823638208" r="0.7376957997601274" fill="#fde68a" opacity="0.5160855524195225"/><circle cx="58.62474438913583" cy="20.08563776216555" r="0.47038830079334926" fill="#fde68a" opacity="0.4864998357706975"/><circle cx="54.42919324216414" cy="21.029817057538715" r="0.6602825264223695" fill="#fde68a" opacity="0.6273744908319967"/><circle cx="49.93491145896562" cy="21.932526609835147" r="0.5986576599150479" fill="#fde68a" opacity="0.778901270134287"/><circle cx="45.149820985278765" cy="22.789381154078505" r="1.070806424762033" fill="#fde68a" opacity="0.6524975340749081"/><circle cx="40.083124955619994" cy="23.596056995598655" r="0.7125140930816889" fill="#fde68a" opacity="0.7412696253472415"/><circle cx="34.74530270620556" cy="24.348309483184668" r="0.3539200263769205" fill="#fde68a" opacity="0.35293207888339706"/><circle cx="29.148100049879268" cy="25.04199057488322" r="0.6380180740535982" fill="#fde68a" opacity="0.34373409630347546"/><circle cx="23.304514744921377" cy="25.673066436972057" r="0.48258755212236604" fill="#fde68a" opacity="0.692128282412946"/><circle cx="17.22877710419553" cy="26.23763501521254" r="0.7903943472628778" fill="#fde68a" opacity="0.341528418990366"/><circle cx="10.936325706184727" cy="26.73194351621922" r="0.7352581988644632" fill="#fde68a" opacity="0.5261351900641502"/><circle cx="4.4437781850350735" cy="27.152405735687637" r="0.4740803536892718" fill="#fde68a" opacity="0.7416376143755273"/><circle cx="-2.2311029072673696" cy="27.49561916929953" r="0.7050294236142838" fill="#fde68a" opacity="0.3679900202212256"/><circle cx="-9.069449157047886" cy="27.75838184138632" r="0.65759819196203" fill="#fde68a" opacity="0.4094844585018952"/><circle cx="-16.051330237110378" cy="27.9377087858824" r="0.7494685909543237" fill="#fde68a" opacity="0.37766875999939664"/><circle cx="-23.155802703507323" cy="28.03084811374715" r="0.8114227338574933" fill="#fde68a" opacity="0.47759769376211153"/><circle cx="-30.360963580121126" cy="28.035296600884205" r="0.4834484830465079" fill="#fde68a" opacity="0.7231313897749423"/><circle cx="-37.644008652651145" cy="27.948814730643978" r="0.4101442103038055" fill="#fde68a" opacity="0.3492928555824894"/><circle cx="-44.98129537579997" cy="27.7694411252666" r="0.5445987180900469" fill="#fde68a" opacity="0.572080413116197"/><circle cx="-52.348410279508485" cy="27.495506301111813" r="0.6678397837074305" fill="#fde68a" opacity="0.41941729576146625"/><circle cx="-59.720240742064725" cy="27.125645683234083" r="0.5680778612760639" fill="#fde68a" opacity="0.33359874940303047"/><circle cx="-67.07105097984204" cy="26.658811815799975" r="0.650014992422364" fill="#fde68a" opacity="0.7183873960319582"/><circle cx="-74.37456208537776" cy="26.09428570601313" r="0.8166607869373148" fill="#fde68a" opacity="0.3407636407151281"/><circle cx="-81.60403592753055" cy="25.43168724061331" r="0.3228797640072423" fill="#fde68a" opacity="0.7106607292329794"/><circle cx="-88.73236270961145" cy="24.670984615652166" r="0.3531765714579015" fill="#fde68a" opacity="0.3184882157928364"/><circle cx="-95.73215196373098" cy="23.812502722121145" r="0.7711464459879449" fill="#fde68a" opacity="0.34500493610403704"/><circle cx="-102.57582674220183" cy="22.85693043211716" r="0.8875494233492565" fill="#fde68a" opacity="0.3666427931443956"/><circle cx="-109.23572074974152" cy="21.80532673258003" r="0.7302213757080509" fill="#fde68a" opacity="0.5067273711843543"/><circle cx="-115.6841781434968" cy="20.659125656221832" r="0.38335256385595634" fill="#fde68a" opacity="0.5179718680983383"/><circle cx="-121.89365571162436" cy="19.420139962090637" r="0.8150803394228485" fill="#fde68a" opacity="0.6186714296188056"/><circle cx="-127.83682712537123" cy="18.090563521269008" r="1.0431239046959573" fill="#fde68a" opacity="0.46262150501218446"/><circle cx="-133.4866889443688" cy="16.672972366497678" r="1.0124101986983876" fill="#fde68a" opacity="0.376904630255597"/><circle cx="-138.81666804025423" cy="15.170324368034123" r="0.6128571154630468" fill="#fde68a" opacity="0.42377294808016325"/><circle cx="-143.80073008981924" cy="13.585957501800594" r="0.9754384530266922" fill="#fde68a" opacity="0.6254546676446813"/><circle cx="-148.41348877573404" cy="11.923586679841323" r="0.8337013081806006" fill="#fde68a" opacity="0.3403025804077864"/><circle cx="-152.6303153205578" cy="10.18729911728911" r="0.5434628440101921" fill="#fde68a" opacity="0.4306368773003091"/><circle cx="-156.42744796830195" cy="8.381548214429765" r="1.0318935459621166" fill="#fde68a" opacity="0.7669682149587271"/><circle cx="-159.78210101731213" cy="6.511145937043925" r="0.3114224458192762" fill="#fde68a" opacity="0.45561340076711665"/><circle cx="-162.67257299875521" cy="4.5812536829878105" r="0.673044894386505" fill="#fde68a" opacity="0.7663570425956214"/><circle cx="-165.07835358658792" cy="2.59737162794359" r="0.9448651640713792" fill="#fde68a" opacity="0.4686716952255607"/><circle cx="-166.98022881762003" cy="0.5653265484110557" r="0.36608949196703006" fill="#fde68a" opacity="0.3826632029282827"/><circle cx="-168.3603841942173" cy="-1.5087418746812067" r="0.8855667606307602" fill="#fde68a" opacity="0.4993651369412621"/><circle cx="-169.2025052373834" cy="-3.6183962629088855" r="0.4335953681537015" fill="#fde68a" opacity="0.6561203467018557"/><circle cx="-169.49187505447162" cy="-5.756918243395328" r="0.6407954162350371" fill="#fde68a" opacity="0.5215603390146901"/><circle cx="-169.21546848366174" cy="-7.917326627806637" r="1.0371044127768498" fill="#fde68a" opacity="0.32529779597201186"/><circle cx="-168.3620423766513" cy="-10.092397041303604" r="0.3172118077721084" fill="#fde68a" opacity="0.7917993514674908"/><circle cx="-166.92222158180218" cy="-12.274682969522006" r="0.3903297315050792" fill="#fde68a" opacity="0.3914332740894257"/><circle cx="-164.88858019230645" cy="-14.456538185637722" r="0.5894743377666464" fill="#fde68a" opacity="0.5208381899112282"/><circle cx="-162.25571762782846" cy="-16.6301405134952" r="0.6277918120215564" fill="#fde68a" opacity="0.5589096197577921"/><circle cx="-159.0203291235985" cy="-18.787516876650965" r="0.7599634644971692" fill="#fde68a" opacity="0.6418407870287414"/><circle cx="-155.18127020810303" cy="-20.920569577031753" r="0.4020532714637711" fill="#fde68a" opacity="0.40171882708692647"/><circle cx="-150.73961475938492" cy="-23.021103740744138" r="0.9622327593480382" fill="#fde68a" opacity="0.41501162431963695"/><circle cx="-145.69870624055963" cy="-25.08085586242288" r="0.8496530797030015" fill="#fde68a" opacity="0.7327690770323722"/><circle cx="-140.0642017275062" cy="-27.091523373386075" r="0.7845360672064359" fill="#fde68a" opacity="0.7469230552912344"/><circle cx="-133.84410835581326" cy="-29.044795152804337" r="0.7739679248849175" fill="#fde68a" opacity="0.5534368603320832"/><circle cx="-127.04881182999581" cy="-30.932382895101657" r="0.3293216820966854" fill="#fde68a" opacity="0.3313583967927141"/><circle cx="-119.69109665572925" cy="-32.7460532409218" r="1.0421273187139397" fill="#fde68a" opacity="0.6301071721276292"/><circle cx="-111.78615777541492" cy="-34.477660573229244" r="0.7270434189116304" fill="#fde68a" opacity="0.620306152654271"/><circle cx="-103.35160330877423" cy="-36.11918037450018" r="0.43082809542126543" fill="#fde68a" opacity="0.39976427099020456"/><circle cx="-94.40744812337616" cy="-37.662743035518154" r="0.39750089868097166" fill="#fde68a" opacity="0.7980739250646265"/><circle cx="-84.97609798503304" cy="-39.10066800104472" r="0.8643439608272452" fill="#fde68a" opacity="0.39223839004470634"/><circle cx="-75.08232406481314" cy="-40.42549813262017" r="0.884240925817869" fill="#fde68a" opacity="0.5441084331870498"/><circle cx="-64.75322760803344" cy="-41.630034163980255" r="0.9944940657155981" fill="#fde68a" opacity="0.7541459852504777"/><circle cx="-54.01819460093272" cy="-42.70736912008862" r="1.075446491917946" fill="#fde68a" opacity="0.43748445146946785"/><circle cx="-42.90884030281071" cy="-43.650922566598815" r="0.7589157270659618" fill="#fde68a" opacity="0.6663987180105235"/><circle cx="-31.458943545139228" cy="-44.45447455271009" r="1.078183156354019" fill="#fde68a" opacity="0.4654130272049561"/><circle cx="-19.704370734534756" cy="-45.11219910688761" r="1.0433708430579018" fill="#fde68a" opacity="0.6550520568613043"/><circle cx="-7.682989533382122" cy="-45.61869714181422" r="0.9923927805290969" fill="#fde68a" opacity="0.311895980291903"/><circle cx="4.565427769653972" cy="-45.969028622249084" r="0.3194800741455521" fill="#fde68a" opacity="0.3972023272192783"/><circle cx="16.999311147165926" cy="-46.15874384721986" r="0.9523201850261336" fill="#fde68a" opacity="0.32678077965977537"/><circle cx="29.575409885332093" cy="-46.18391369619455" r="1.0580898462313757" fill="#fde68a" opacity="0.5361204940282105"/><circle cx="42.24891966535031" cy="-46.041158687593445" r="0.42145964379859135" fill="#fde68a" opacity="0.33541393859709473"/><circle cx="54.97361949471301" cy="-45.72767669723758" r="0.7144305886264354" fill="#fde68a" opacity="0.7436708962525643"/><circle cx="67.70201826444226" cy="-45.241269184113115" r="0.544433418476889" fill="#fde68a" opacity="0.7118102490389959"/><circle cx="80.385510662871" cy="-44.58036577118588" r="0.913565954833998" fill="#fde68a" opacity="0.7518178072423596"/><circle cx="92.97454213023852" cy="-43.74404702995082" r="0.9694010694376574" fill="#fde68a" opacity="0.4574185122670297"/><circle cx="105.41878249137835" cy="-42.73206531897232" r="1.037862531354112" fill="#fde68a" opacity="0.3627129442574888"/><circle cx="117.66730785631937" cy="-41.54486352888109" r="0.8518749701319683" fill="#fde68a" opacity="0.4457665474479771"/><circle cx="129.6687903307641" cy="-40.18359158916941" r="0.8804941430602" fill="#fde68a" opacity="0.3070449674902921"/><circle cx="141.37169503041767" cy="-38.65012059567947" r="0.5350149100373963" fill="#fde68a" opacity="0.5060093958473104"/><circle cx="152.72448384509937" cy="-36.94705442193737" r="0.4926293492002095" fill="#fde68a" opacity="0.628805326607053"/><circle cx="163.67582535073691" cy="-35.07773868245422" r="0.5392643784840097" fill="#fde68a" opacity="0.4250073697384815"/><circle cx="174.17481021984872" cy="-33.046266921820035" r="0.8425286892969546" fill="#fde68a" opacity="0.4527832531454921"/><circle cx="184.17117143422718" cy="-30.857483909858143" r="0.6360439807796913" fill="#fde68a" opacity="0.7640105832695376"/><circle cx="193.61550855738994" cy="-28.516985930309364" r="0.9020369793243801" fill="#fde68a" opacity="0.7448023323285573"/><circle cx="202.45951527925507" cy="-26.031117958471004" r="0.5454429080960863" fill="#fde68a" opacity="0.42940305086409886"/><circle cx="210.6562094015866" cy="-23.40696763194363" r="0.5459998378355292" fill="#fde68a" opacity="0.38903641287132107"/><circle cx="218.16016439031984" cy="-20.652355928133947" r="0.4168488764350731" fill="#fde68a" opacity="0.7594967299356634"/><circle cx="224.92774158014976" cy="-17.77582447242386" r="0.7006852440989007" fill="#fde68a" opacity="0.4160062141990266"/><circle cx="230.91732207797676" cy="-14.786619411950108" r="0.39198824398186394" fill="#fde68a" opacity="0.3460412617759848"/><circle cx="236.08953737524658" cy="-11.694671801722158" r="0.34766874526989316" fill="#fde68a" opacity="0.47284132555969655"/><circle cx="240.40749764510846" cy="-8.510574462351617" r="0.5472517103442055" fill="#fde68a" opacity="0.7244414451969637"/><circle cx="243.83701666896317" cy="-5.245555281933577" r="0.7438668341483581" fill="#fde68a" opacity="0.3393112458925793"/><circle cx="246.34683230860466" cy="-1.911446948619091" r="0.34690671755795705" fill="#fde68a" opacity="0.45355726092548343"/><circle cx="247.9088214150844" cy="1.4793468848976261" r="0.7107985268946029" fill="#fde68a" opacity="0.6746143249213926"/><circle cx="248.49820804389844" cy="4.913888988389309" r="0.43132582558286703" fill="#fde68a" opacity="0.39876827321823854"/><circle cx="248.09376382840247" cy="8.378749460015602" r="0.42497875668592167" fill="#fde68a" opacity="0.37711471293088544"/><circle cx="246.6779993497707" cy="11.86005010195384" r="0.34973240473738254" fill="#fde68a" opacity="0.6042737663129789"/><circle cx="244.23734533261128" cy="15.3435121993673" r="0.3118852227667524" fill="#fde68a" opacity="0.4983863705743818"/><circle cx="240.76232249080113" cy="18.814507618634025" r="0.6159594547994169" fill="#fde68a" opacity="0.6098610411830997"/><circle cx="236.24769884848533" cy="22.258113122582888" r="1.0827983656261113" fill="#fde68a" opacity="0.4574866787891631"/><circle cx="230.6926333667548" cy="25.659167781888478" r="0.888123806914523" fill="#fde68a" opacity="0.7271451360870633"/><circle cx="224.10080471754233" cy="29.002333342811877" r="0.4545383780993097" fill="#fde68a" opacity="0.6887299999541066"/><circle cx="216.4805240629994" cy="32.272157392219725" r="0.4424363955394158" fill="#fde68a" opacity="0.5583181520038183"/><circle cx="207.84483072127833" cy="35.45313914132639" r="0.3026497517004881" fill="#fde68a" opacity="0.5207654094265626"/><circle cx="198.2115696284874" cy="38.529797629963056" r="0.3858098427365496" fill="#fde68a" opacity="0.46404773143906386"/><circle cx="187.60344954179484" cy="41.48674213346875" r="0.847540941737243" fill="#fde68a" opacity="0.31425731077719665"/><circle cx="176.04808097047217" cy="44.30874453459634" r="0.37875210690725336" fill="#fde68a" opacity="0.3221847941030742"/><circle cx="163.57799287022206" cy="46.98081340323728" r="0.6743091008393021" fill="#fde68a" opacity="0.5605232582426256"/><circle cx="150.23062719164616" cy="49.48826950737381" r="0.726196907004298" fill="#fde68a" opacity="0.5318204333282002"/><circle cx="136.04831043624787" cy="51.816822459585545" r="0.90540859677173" fill="#fde68a" opacity="0.6725006602926838"/><circle cx="121.07820144311835" cy="53.95264818476015" r="0.6851314560491902" fill="#fde68a" opacity="0.6464091692235064"/><circle cx="105.3722147064495" cy="55.88246687651077" r="0.93346233398795" fill="#fde68a" opacity="0.32263417479048184"/><circle cx="88.986918608351" cy="57.59362109229624" r="1.0246577407235136" fill="#fde68a" opacity="0.7464988729293563"/><circle cx="71.98340804312295" cy="59.0741536205003" r="0.7212598345095831" fill="#fde68a" opacity="0.7648896782456938"/><circle cx="54.42715100816399" cy="60.312884736876164" r="0.5036099590070996" fill="#fde68a" opacity="0.6051439046632633"/><circle cx="36.38780884300187" cy="61.29948845293972" r="0.6528465919039705" fill="#fde68a" opacity="0.7953016082970172"/><circle cx="17.93902991146495" cy="62.024567345225734" r="0.450090765007488" fill="#fde68a" opacity="0.545520692358493"/><circle cx="-0.8417833573710706" cy="62.47972554195253" r="0.8318841842939553" fill="#fde68a" opacity="0.5203906568033176"/><circle cx="-19.87373402633026" cy="62.65763943270743" r="1.0497943122110174" fill="#fde68a" opacity="0.3332118603921842"/><circle cx="-39.072716628018426" cy="62.55212565741341" r="0.3115622510628895" fill="#fde68a" opacity="0.6874196309860596"/><circle cx="-58.35172924548054" cy="62.15820592321345" r="0.669741888242174" fill="#fde68a" opacity="0.7766470948250769"/><circle cx="-77.62121123094175" cy="61.472168192156765" r="0.8424992739275503" fill="#fde68a" opacity="0.3912972370098929"/><circle cx="-96.78940594553865" cy="60.49162377884025" r="0.4942869890666106" fill="#fde68a" opacity="0.4359289486545573"/><circle cx="-115.76274774522963" cy="59.21555989559296" r="0.5939641139036229" fill="#fde68a" opacity="0.7823378877454192"/><circle cx="-134.4462722755909" cy="57.644387183540836" r="0.3680265177530182" fill="#fde68a" opacity="0.46804860281467997"/><circle cx="-152.7440489715321" cy="55.77998177108934" r="1.018072666982236" fill="#fde68a" opacity="0.7043611578624713"/><circle cx="-170.55963448762867" cy="53.625721407164406" r="0.7189377474825718" fill="#fde68a" opacity="0.6790712084325707"/><circle cx="-187.79654561161087" cy="51.186515225078125" r="0.3615279524274391" fill="#fde68a" opacity="0.3028366336686247"/><circle cx="-204.35875003813425" cy="48.46882670428496" r="0.38628378263640845" fill="#fde68a" opacity="0.5581082952177524"/><circle cx="-220.1511732033209" cy="45.48068941166733" r="0.34110599257649" fill="#fde68a" opacity="0.7069615810555054"/><circle cx="-235.08021920337126" cy="42.23171512148037" r="0.4018609992726788" fill="#fde68a" opacity="0.4396414469294111"/><circle cx="-249.05430364397986" cy="38.73309393377135" r="0.4416671131385976" fill="#fde68a" opacity="0.7825960011263772"/><circle cx="-261.98439609218514" cy="34.99758603509551" r="0.9946874633652276" fill="#fde68a" opacity="0.7929814835069079"/><circle cx="-273.78456962987985" cy="31.039504772739896" r="0.9515638301685125" fill="#fde68a" opacity="0.31192523048944004"/><circle cx="-284.3725548396017" cy="26.874690744518134" r="0.8218402327595307" fill="#fde68a" opacity="0.5162223938674595"/><circle cx="-293.67029538964334" cy="22.520476640576806" r="0.7004381449574215" fill="#fde68a" opacity="0.41171167149350146"/><circle cx="-301.6045022283172" cy="17.995642611573416" r="0.3726949387504129" fill="#fde68a" opacity="0.41333168029513945"/><circle cx="-308.1072032476573" cy="13.320361979101332" r="0.7041225120717542" fill="#fde68a" opacity="0.4981243412374001"/><circle cx="-313.11628513644695" cy="8.51613714930658" r="0.379511259986288" fill="#fde68a" opacity="0.5775183287666239"/><circle cx="-316.5760240126096" cy="3.605725639284604" r="0.91521914740136" fill="#fde68a" opacity="0.6755350435514125"/><circle cx="-318.43760130727935" cy="-1.3869438220215924" r="0.42027074206339154" fill="#fde68a" opacity="0.42743447139456886"/><circle cx="-318.659601268791" cy="-6.436865101119658" r="0.515256990356164" fill="#fde68a" opacity="0.4321121022292483"/><circle cx="-317.2084863660226" cy="-11.518058299255108" r="0.6174456010817251" fill="#fde68a" opacity="0.6666324982243781"/><circle cx="-314.0590467986065" cy="-16.603683085364317" r="0.607389520293985" fill="#fde68a" opacity="0.4087485510575712"/><circle cx="-309.1948202681436" cy="-21.66616151921146" r="0.39765303537595154" fill="#fde68a" opacity="0.4369249482025262"/><circle cx="-302.6084781313708" cy="-26.677310093222637" r="0.8692797597729798" fill="#fde68a" opacity="0.5500649951913368"/><circle cx="-294.30217404491987" cy="-31.608480650891636" r="1.0375124790283718" fill="#fde68a" opacity="0.6941301493349348"/><circle cx="-284.28785122348097" cy="-36.43070976665181" r="0.4784450638344541" fill="#fde68a" opacity="0.548458597784385"/><circle cx="-272.5875044705186" cy="-41.11487609705633" r="1.0241303092206036" fill="#fde68a" opacity="0.4735562533878281"/><circle cx="-259.2333932047322" cy="-45.63186513634895" r="0.527744862256944" fill="#fde68a" opacity="0.519571672459312"/><circle cx="-244.26820179776973" cy="-49.952740731409605" r="0.6830777414591462" fill="#fde68a" opacity="0.4221218231301481"/><circle cx="-227.74514366074348" cy="-54.04892263204744" r="0.45070461786071975" fill="#fde68a" opacity="0.6371701618006518"/><circle cx="-209.72800567025104" cy="-57.892369273150585" r="0.5306629975669146" fill="#fde68a" opacity="0.4832219792134396"/><circle cx="-190.2911297101669" cy="-61.455764905789074" r="0.3544157048354166" fill="#fde68a" opacity="0.520092489392447"/><circle cx="-169.51932832455086" cy="-64.71271011556098" r="0.4598093341656645" fill="#fde68a" opacity="0.7257942199600966"/><circle cx="-147.50773173069322" cy="-67.6379146888476" r="0.6360988150109064" fill="#fde68a" opacity="0.7486776786414178"/><circle cx="-124.36156373037527" cy="-70.20739171184422" r="0.6685460075200209" fill="#fde68a" opacity="0.3387021013364916"/><circle cx="-100.1958443825576" cy="-72.39865171392192" r="0.5824173198548668" fill="#fde68a" opacity="0.660737558743325"/><circle cx="-75.13501766234718" cy="-74.19089559676802" r="0.5646811211014874" fill="#fde68a" opacity="0.7999543474935163"/><circle cx="-49.31250272948321" cy="-75.56520502459084" r="0.35468041681392404" fill="#fde68a" opacity="0.5307543513893191"/><circle cx="-22.87016786461941" cy="-76.50472888924747" r="0.7794254296236434" fill="#fde68a" opacity="0.40675512857325835"/><circle cx="4.042273396908244" cy="-76.99486440827062" r="0.9818148098595845" fill="#fde68a" opacity="0.4684313255191524"/><circle cx="31.267943896997775" cy="-77.0234313642776" r="0.7875312865016191" fill="#fde68a" opacity="0.636245739387048"/><circle cx="58.6435616737165" cy="-76.58083795201185" r="0.5108386731140809" fill="#fde68a" opacity="0.3793467002630087"/><circle cx="86.00027481329123" cy="-75.66023666517742" r="0.3054933943174046" fill="#fde68a" opacity="0.5881514865245208"/><circle cx="113.16457057422696" cy="-74.25766863018755" r="0.3507195004963003" fill="#fde68a" opacity="0.3630597853991933"/><circle cx="139.95925638606275" cy="-72.37219477886546" r="0.30387660909639214" fill="#fde68a" opacity="0.48033090166912795"/><circle cx="166.20450966173587" cy="-70.0060122479215" r="0.9577789839657791" fill="#fde68a" opacity="0.468252339597961"/><circle cx="191.71899267486933" cy="-67.16455440059359" r="0.8303005389550027" fill="#fde68a" opacity="0.7413223337345904"/><circle cx="216.32102804521182" cy="-63.856572886057656" r="0.765226732415998" fill="#fde68a" opacity="0.46384447523981814"/><circle cx="239.82982965064494" cy="-60.094200185970884" r="0.8384083194515861" fill="#fde68a" opacity="0.6495549739615384"/><circle cx="262.0667830473317" cy="-55.89299114561666" r="1.0657524987018914" fill="#fde68a" opacity="0.6378433536374862"/><circle cx="282.85676873549676" cy="-51.271942050373546" r="0.524866687515924" fill="#fde68a" opacity="0.7846521660592498"/><circle cx="302.02952086260836" cy="-46.253485887348596" r="0.9832868000372685" fill="#fde68a" opacity="0.5625283982856701"/><circle cx="319.42101321430215" cy="-40.863462527666364" r="0.4823561096890844" fill="#fde68a" opacity="0.3408543741450584"/><circle cx="334.87486361287563" cy="-35.13106267764304" r="0.5482274420073509" fill="#fde68a" opacity="0.7051489580702615"/><circle cx="348.24374713053055" cy="-29.088744577399282" r="0.3452292973059842" fill="#fde68a" opacity="0.30193755373318976"/><circle cx="359.3908078373855" cy="-22.77212257371688" r="1.0345922371679426" fill="#fde68a" opacity="0.5554288155332476"/><circle cx="368.19105815059066" cy="-16.219826860379925" r="0.6592760187130573" fill="#fde68a" opacity="0.5805164157615114"/><circle cx="374.5327542391766" cy="-9.473333863936235" r="0.684673359408335" fill="#fde68a" opacity="0.4404118955577004"/><circle cx="378.31873537844507" cy="-2.57676695571353" r="0.5794256588778057" fill="#fde68a" opacity="0.3941985954308344"/>
  <circle cx="-80" cy="2.1553783664993416e-15" r="0.9380713125672258" fill="#a78bfa" opacity="0.564349310495809"/><circle cx="-81.38920485909863" cy="-0.9346073444703693" r="0.6607817858531935" fill="#a78bfa" opacity="0.4928473465590543"/><circle cx="-82.54853302075631" cy="-1.901946711204457" r="0.5126381239919569" fill="#a78bfa" opacity="0.5836823890770064"/><circle cx="-83.46600932355209" cy="-2.899290244158848" r="0.649021695033571" fill="#a78bfa" opacity="0.34244130364864633"/><circle cx="-84.13031120435936" cy="-3.923721658608075" r="0.8348733727789752" fill="#a78bfa" opacity="0.6719524743236174"/><circle cx="-84.53082590783629" cy="-4.972143442501551" r="1.0251400937605402" fill="#a78bfa" opacity="0.6753394238516486"/><circle cx="-84.65770618337775" cy="-6.041284857910105" r="0.8628958329667387" fill="#a78bfa" opacity="0.4271320705085313"/><circle cx="-84.50192424810251" cy="-7.127710729330175" r="0.8343212484571005" fill="#a78bfa" opacity="0.46980974309065443"/><circle cx="-84.05532379609696" cy="-8.227831002774156" r="1.0091014977125492" fill="#a78bfa" opacity="0.3697271580973235"/><circle cx="-83.31066983650123" cy="-9.33791105673237" r="0.5688965407531134" fill="#a78bfa" opacity="0.34818322814027475"/><circle cx="-82.26169614610957" cy="-10.454082743253608" r="1.0739610407701423" fill="#a78bfa" opacity="0.5933773084554363"/><circle cx="-80.90315012597361" cy="-11.572356134564737" r="0.9361653007770101" fill="#a78bfa" opacity="0.7485919904062222"/><circle cx="-79.23083485604558" cy="-12.688631947845252" r="0.6191921502750095" fill="#a78bfa" opacity="0.5060958691988826"/><circle cx="-77.24164814718101" cy="-13.79871461799769" r="1.0631568892227135" fill="#a78bfa" opacity="0.5505453894769722"/><circle cx="-74.93361839583693" cy="-14.898325985518746" r="0.4019888635483861" fill="#a78bfa" opacity="0.7115910187871726"/><circle cx="-72.30593705355045" cy="-15.983119563886998" r="0.5469409693439837" fill="#a78bfa" opacity="0.3310919029456055"/><circle cx="-69.3589875307584" cy="-17.04869534825091" r="0.8884063708192105" fill="#a78bfa" opacity="0.48092685542370994"/><circle cx="-66.09437036271547" cy="-18.090615124634102" r="0.9241706040981628" fill="#a78bfa" opacity="0.7230868973544753"/><circle cx="-62.51492447417842" cy="-19.104418236382074" r="0.8427858064240015" fill="#a78bfa" opacity="0.5075130415767297"/><circle cx="-58.624744389135806" cy="-20.085637762165554" r="0.7242202044673378" fill="#a78bfa" opacity="0.6038638509854243"/><circle cx="-54.429193242164104" cy="-21.029817057538718" r="0.9610885440725154" fill="#a78bfa" opacity="0.725999913834717"/><circle cx="-49.93491145896568" cy="-21.93252660983514" r="0.9805532277883338" fill="#a78bfa" opacity="0.3892870534274088"/><circle cx="-45.149820985278794" cy="-22.7893811540785" r="0.399290172645488" fill="#a78bfa" opacity="0.7310957749352063"/><circle cx="-40.08312495562005" cy="-23.596056995598648" r="0.7487733173747022" fill="#a78bfa" opacity="0.7936294964556951"/><circle cx="-34.7453027062056" cy="-24.348309483184668" r="0.5818916473802018" fill="#a78bfa" opacity="0.6325811058182931"/><circle cx="-29.148100049879307" cy="-25.041990574883215" r="0.42640484275752855" fill="#a78bfa" opacity="0.5940040875082082"/><circle cx="-23.30451474492144" cy="-25.673066436972054" r="1.0630754749695956" fill="#a78bfa" opacity="0.33464963731423575"/><circle cx="-17.228777104195597" cy="-26.237635015212536" r="0.5698906614674334" fill="#a78bfa" opacity="0.608687082008823"/><circle cx="-10.936325706184743" cy="-26.73194351621922" r="0.6619148952904634" fill="#a78bfa" opacity="0.355632528302801"/><circle cx="-4.443778185035089" cy="-27.152405735687637" r="1.0859641627085945" fill="#a78bfa" opacity="0.5103258102054684"/><circle cx="2.2311029072673825" cy="-27.495619169299527" r="0.3802005326487413" fill="#a78bfa" opacity="0.7931225512403972"/><circle cx="9.069449157047758" cy="-27.758381841386324" r="1.0628393239504872" fill="#a78bfa" opacity="0.5478344120367021"/><circle cx="16.051330237110335" cy="-27.9377087858824" r="0.6983592948035509" fill="#a78bfa" opacity="0.6627199959408878"/><circle cx="23.155802703507366" cy="-28.03084811374715" r="1.070556849374587" fill="#a78bfa" opacity="0.4600256633943733"/><circle cx="30.36096358012108" cy="-28.035296600884205" r="0.620649982198759" fill="#a78bfa" opacity="0.6447881061559211"/><circle cx="37.64400865265124" cy="-27.94881473064397" r="0.7938679963735309" fill="#a78bfa" opacity="0.7945630924111816"/><circle cx="44.98129537579995" cy="-27.7694411252666" r="0.3475866720146331" fill="#a78bfa" opacity="0.6929235476827417"/><circle cx="52.3484102795085" cy="-27.49550630111181" r="0.8933838352406915" fill="#a78bfa" opacity="0.5588771545024114"/><circle cx="59.72024074206471" cy="-27.125645683234087" r="0.46165886328462635" fill="#a78bfa" opacity="0.5131045968678927"/><circle cx="67.07105097984197" cy="-26.658811815799986" r="0.764523867522027" fill="#a78bfa" opacity="0.4507360759614886"/><circle cx="74.37456208537775" cy="-26.094285706013135" r="0.7942755966038854" fill="#a78bfa" opacity="0.7042359660362694"/><circle cx="81.60403592753049" cy="-25.43168724061332" r="0.9768411190335542" fill="#a78bfa" opacity="0.6563449755565862"/><circle cx="88.73236270961144" cy="-24.67098461565217" r="0.9540261029002775" fill="#a78bfa" opacity="0.7436191627985075"/><circle cx="95.73215196373093" cy="-23.812502722121156" r="0.6023712466143812" fill="#a78bfa" opacity="0.6147212943905871"/><circle cx="102.57582674220177" cy="-22.856930432117174" r="0.5672822551434653" fill="#a78bfa" opacity="0.5962380282189014"/><circle cx="109.23572074974142" cy="-21.805326732580056" r="0.4362045205183622" fill="#a78bfa" opacity="0.7091442481752446"/><circle cx="115.68417814349682" cy="-20.659125656221825" r="1.0726388371055802" fill="#a78bfa" opacity="0.6825567222606961"/><circle cx="121.8936557116244" cy="-19.420139962090627" r="0.4935840640487698" fill="#a78bfa" opacity="0.4277912704406032"/><circle cx="127.83682712537122" cy="-18.090563521269008" r="0.5488444519212596" fill="#a78bfa" opacity="0.6258749637949422"/><circle cx="133.4866889443689" cy="-16.672972366497657" r="0.421825867710585" fill="#a78bfa" opacity="0.32041790130043263"/><circle cx="138.8166680402542" cy="-15.170324368034139" r="0.394070071945138" fill="#a78bfa" opacity="0.6255188881343405"/><circle cx="143.8007300898192" cy="-13.585957501800598" r="1.05065081436968" fill="#a78bfa" opacity="0.35961539039979185"/><circle cx="148.41348877573404" cy="-11.923586679841327" r="1.0387574206452732" fill="#a78bfa" opacity="0.4917091349070041"/><circle cx="152.6303153205578" cy="-10.187299117289113" r="1.082420869216895" fill="#a78bfa" opacity="0.6497859936753244"/><circle cx="156.42744796830192" cy="-8.381548214429786" r="0.5303153041685061" fill="#a78bfa" opacity="0.6434708317503156"/><circle cx="159.78210101731213" cy="-6.5111459370439135" r="1.0345725109689492" fill="#a78bfa" opacity="0.4017769837849018"/><circle cx="162.67257299875521" cy="-4.581253682987815" r="0.67387243832925" fill="#a78bfa" opacity="0.3679164159759462"/><circle cx="165.07835358658792" cy="-2.5973716279435943" r="0.7035934285262813" fill="#a78bfa" opacity="0.4963182555920653"/><circle cx="166.98022881762003" cy="-0.5653265484110601" r="0.9082881119146387" fill="#a78bfa" opacity="0.36727948885874434"/><circle cx="168.3603841942173" cy="1.5087418746811858" r="0.34739074110810275" fill="#a78bfa" opacity="0.5245829924111958"/><circle cx="169.2025052373834" cy="3.618396262908881" r="1.0327379791756284" fill="#a78bfa" opacity="0.3050381780761159"/><circle cx="169.49187505447162" cy="5.75691824339534" r="0.7774084509008421" fill="#a78bfa" opacity="0.4485633156854698"/><circle cx="169.21546848366177" cy="7.9173266278066325" r="0.9202236245122724" fill="#a78bfa" opacity="0.7958855788101686"/><circle cx="168.36204237665126" cy="10.092397041303617" r="0.3719741033681963" fill="#a78bfa" opacity="0.7348150613484793"/><circle cx="166.9222215818022" cy="12.274682969522" r="0.9137342504421371" fill="#a78bfa" opacity="0.7579798543648535"/><circle cx="164.8885801923065" cy="14.456538185637688" r="0.7290468839271598" fill="#a78bfa" opacity="0.7131116682444771"/><circle cx="162.2557176278285" cy="16.630140513495196" r="0.30997499003107004" fill="#a78bfa" opacity="0.6910253105044948"/><circle cx="159.02032912359851" cy="18.787516876650958" r="0.8239197182043194" fill="#a78bfa" opacity="0.6874544897004182"/><circle cx="155.1812702081031" cy="20.92056957703173" r="1.0824996574338026" fill="#a78bfa" opacity="0.7309316800547463"/><circle cx="150.73961475938498" cy="23.021103740744117" r="0.5035175710530406" fill="#a78bfa" opacity="0.5082123139641403"/><circle cx="145.69870624055966" cy="25.080855862422876" r="1.0379318027199556" fill="#a78bfa" opacity="0.5756284502456661"/><circle cx="140.06420172750623" cy="27.091523373386067" r="0.842281990026815" fill="#a78bfa" opacity="0.7843792823594922"/><circle cx="133.8441083558133" cy="29.044795152804333" r="0.34734862842863307" fill="#a78bfa" opacity="0.7975060842981752"/><circle cx="127.04881182999584" cy="30.932382895101657" r="0.7280051683679895" fill="#a78bfa" opacity="0.7693132950986825"/><circle cx="119.69109665572928" cy="32.7460532409218" r="0.6165985218948188" fill="#a78bfa" opacity="0.4660906523607443"/><circle cx="111.78615777541495" cy="34.47766057322924" r="0.988474743082522" fill="#a78bfa" opacity="0.6938912900433362"/><circle cx="103.3516033087744" cy="36.119180374500154" r="0.6676015258798051" fill="#a78bfa" opacity="0.7596343243834829"/><circle cx="94.40744812337618" cy="37.66274303551815" r="0.30419641719681784" fill="#a78bfa" opacity="0.6107459221724527"/><circle cx="84.97609798503306" cy="39.10066800104472" r="0.34477946318256636" fill="#a78bfa" opacity="0.5110963885794024"/><circle cx="75.08232406481316" cy="40.42549813262017" r="0.6081488612504087" fill="#a78bfa" opacity="0.6092273811019733"/><circle cx="64.75322760803347" cy="41.630034163980255" r="1.067018607903216" fill="#a78bfa" opacity="0.46412498037346833"/><circle cx="54.018194600932745" cy="42.70736912008862" r="0.8402622273541218" fill="#a78bfa" opacity="0.3318728631206394"/><circle cx="42.90884030281074" cy="43.650922566598815" r="0.4041321388929002" fill="#a78bfa" opacity="0.7368105490344609"/><circle cx="31.45894354513925" cy="44.45447455271009" r="1.019606694837339" fill="#a78bfa" opacity="0.7159752682545807"/><circle cx="19.70437073453478" cy="45.1121991068876" r="0.7752824465447806" fill="#a78bfa" opacity="0.5283889185662981"/><circle cx="7.682989533382147" cy="45.61869714181422" r="0.48301056266068887" fill="#a78bfa" opacity="0.4098812497776862"/><circle cx="-4.565427769653947" cy="45.969028622249084" r="0.4816532347168182" fill="#a78bfa" opacity="0.37896853472426795"/><circle cx="-16.9993111471659" cy="46.15874384721986" r="0.5209308940876873" fill="#a78bfa" opacity="0.4397419072021073"/><circle cx="-29.575409885332068" cy="46.18391369619455" r="0.8994848008895304" fill="#a78bfa" opacity="0.41480645896346663"/><circle cx="-42.248919665350286" cy="46.041158687593445" r="0.39741817498306364" fill="#a78bfa" opacity="0.5168472583699626"/><circle cx="-54.97361949471299" cy="45.72767669723758" r="0.4035143201082579" fill="#a78bfa" opacity="0.35285306765912733"/><circle cx="-67.70201826444223" cy="45.241269184113115" r="0.9439473107462557" fill="#a78bfa" opacity="0.68794130546735"/><circle cx="-80.38551066287097" cy="44.58036577118588" r="0.6804665033003588" fill="#a78bfa" opacity="0.7048666619538597"/><circle cx="-92.9745421302383" cy="43.74404702995084" r="1.0872771550328015" fill="#a78bfa" opacity="0.3479124887214876"/><circle cx="-105.41878249137834" cy="42.73206531897232" r="0.6762938123251745" fill="#a78bfa" opacity="0.731216939387264"/><circle cx="-117.66730785631934" cy="41.544863528881095" r="1.0294809631287347" fill="#a78bfa" opacity="0.7244333461175914"/><circle cx="-129.66879033076393" cy="40.18359158916944" r="0.3293889259102177" fill="#a78bfa" opacity="0.7391732329858153"/><circle cx="-141.37169503041764" cy="38.650120595679475" r="0.553482696649573" fill="#a78bfa" opacity="0.427926584502184"/><circle cx="-152.72448384509937" cy="36.94705442193738" r="0.9728697565204996" fill="#a78bfa" opacity="0.6884992787568603"/><circle cx="-163.67582535073691" cy="35.077738682454225" r="0.9757739817831994" fill="#a78bfa" opacity="0.5496799456421452"/><circle cx="-174.1748102198487" cy="33.046266921820035" r="0.3139023436638694" fill="#a78bfa" opacity="0.3722505076217491"/><circle cx="-184.17117143422726" cy="30.85748390985811" r="1.0070200691754518" fill="#a78bfa" opacity="0.6718108219587129"/><circle cx="-193.6155085573898" cy="28.5169859303094" r="0.41201233853759944" fill="#a78bfa" opacity="0.4239951632396323"/><circle cx="-202.45951527925496" cy="26.031117958471047" r="0.8963229784604585" fill="#a78bfa" opacity="0.36544546041992915"/><circle cx="-210.65620940158658" cy="23.406967631943637" r="0.5219467968992381" fill="#a78bfa" opacity="0.3630737111905019"/><circle cx="-218.16016439031984" cy="20.652355928133954" r="0.9537282669910154" fill="#a78bfa" opacity="0.6048852936806757"/><circle cx="-224.92774158014976" cy="17.775824472423867" r="0.7307233590581436" fill="#a78bfa" opacity="0.3060974412645355"/><circle cx="-230.91732207797682" cy="14.786619411950067" r="0.3814033093966252" fill="#a78bfa" opacity="0.5065213584997899"/><circle cx="-236.08953737524646" cy="11.69467180172226" r="0.9614960313256078" fill="#a78bfa" opacity="0.4454823576897279"/><circle cx="-240.40749764510844" cy="8.510574462351622" r="0.627266210842218" fill="#a78bfa" opacity="0.7806626338654099"/><circle cx="-243.83701666896314" cy="5.2455552819336315" r="0.9436366686646507" fill="#a78bfa" opacity="0.32271587880010333"/><circle cx="-246.34683230860466" cy="1.9114469486191943" r="0.34715049611577103" fill="#a78bfa" opacity="0.7480891753592303"/><circle cx="-247.9088214150844" cy="-1.4793468848976195" r="0.6864361352604444" fill="#a78bfa" opacity="0.36390665436194664"/><circle cx="-248.49820804389844" cy="-4.913888988389302" r="1.0404313772458902" fill="#a78bfa" opacity="0.46765919924315835"/><circle cx="-248.09376382840247" cy="-8.378749460015593" r="0.7018031335270545" fill="#a78bfa" opacity="0.732097556185304"/><circle cx="-246.6779993497708" cy="-11.860050101953737" r="1.0933693529232968" fill="#a78bfa" opacity="0.7617426275969001"/><circle cx="-244.23734533261123" cy="-15.343512199367344" r="0.39640083883490557" fill="#a78bfa" opacity="0.4519132106252799"/><circle cx="-240.7623224908012" cy="-18.81450761863397" r="0.6851492077606773" fill="#a78bfa" opacity="0.7114104445002536"/><circle cx="-236.24769884848536" cy="-22.25811312258288" r="0.7450556903869094" fill="#a78bfa" opacity="0.7980887555973599"/><circle cx="-230.69263336675482" cy="-25.65916778188847" r="0.8926036643994171" fill="#a78bfa" opacity="0.7933072175386174"/><circle cx="-224.10080471754247" cy="-29.002333342811827" r="0.6057472351562183" fill="#a78bfa" opacity="0.6980048500262368"/><circle cx="-216.48052406299942" cy="-32.272157392219725" r="0.8153335627080183" fill="#a78bfa" opacity="0.4660605208405722"/><circle cx="-207.84483072127807" cy="-35.45313914132646" r="0.7388178339319804" fill="#a78bfa" opacity="0.5209697757612377"/><circle cx="-198.21156962848744" cy="-38.52979762996305" r="0.8521471313762818" fill="#a78bfa" opacity="0.42889358411769124"/><circle cx="-187.60344954179502" cy="-41.48674213346871" r="0.8576135885879901" fill="#a78bfa" opacity="0.33402649680578533"/><circle cx="-176.0480809704722" cy="-44.308744534596336" r="0.9202581783749455" fill="#a78bfa" opacity="0.4378527622479722"/><circle cx="-163.5779928702221" cy="-46.98081340323728" r="0.5152766004380852" fill="#a78bfa" opacity="0.5098001486421997"/><circle cx="-150.23062719164636" cy="-49.48826950737377" r="0.7414163242230516" fill="#a78bfa" opacity="0.7695098452010191"/><circle cx="-136.0483104362475" cy="-51.81682245958559" r="0.4489409754202562" fill="#a78bfa" opacity="0.5838928882416736"/><circle cx="-121.07820144311839" cy="-53.95264818476015" r="0.6652705945336432" fill="#a78bfa" opacity="0.7779519478460795"/><circle cx="-105.37221470644997" cy="-55.882466876510726" r="0.37487560198846126" fill="#a78bfa" opacity="0.7246017472239844"/><circle cx="-88.98691860835103" cy="-57.59362109229624" r="0.4654394128825846" fill="#a78bfa" opacity="0.6058038021040788"/><circle cx="-71.98340804312298" cy="-59.0741536205003" r="0.3432134291954087" fill="#a78bfa" opacity="0.530267518348728"/><circle cx="-54.427151008163776" cy="-60.31288473687618" r="0.6571892777419326" fill="#a78bfa" opacity="0.6565321977094323"/><circle cx="-36.387808843002155" cy="-61.299488452939705" r="0.7015170353402351" fill="#a78bfa" opacity="0.5255354685606655"/><circle cx="-17.939029911464985" cy="-62.024567345225734" r="0.5619048717582863" fill="#a78bfa" opacity="0.7038063841962594"/><circle cx="0.8417833573710359" cy="-62.47972554195253" r="0.5021292559317412" fill="#a78bfa" opacity="0.7863537827211657"/><circle cx="19.873734026330226" cy="-62.65763943270743" r="0.38261124035770405" fill="#a78bfa" opacity="0.4327397005178289"/><circle cx="39.0727166280184" cy="-62.55212565741341" r="1.0173900351063687" fill="#a78bfa" opacity="0.468807800869476"/><circle cx="58.351729245480506" cy="-62.15820592321345" r="0.5381844519712475" fill="#a78bfa" opacity="0.529169871425391"/><circle cx="77.62121123094173" cy="-61.472168192156765" r="0.34004003619462464" fill="#a78bfa" opacity="0.6096183480262329"/><circle cx="96.7894059455391" cy="-60.491623778840214" r="0.6418495175230039" fill="#a78bfa" opacity="0.7199254598661553"/><circle cx="115.7627477452296" cy="-59.215559895592975" r="0.47799788363405693" fill="#a78bfa" opacity="0.7032862773723401"/><circle cx="134.44627227559087" cy="-57.64438718354085" r="0.69968438498946" fill="#a78bfa" opacity="0.3491456186177054"/><circle cx="152.7440489715321" cy="-55.77998177108934" r="0.32753414437186157" fill="#a78bfa" opacity="0.7448708263517694"/><circle cx="170.55963448762864" cy="-53.625721407164406" r="0.44106834164944664" fill="#a78bfa" opacity="0.7367376010616198"/><circle cx="187.79654561161084" cy="-51.186515225078125" r="0.31805505435792814" fill="#a78bfa" opacity="0.615983801050429"/><circle cx="204.35875003813422" cy="-48.46882670428496" r="0.6164016489645104" fill="#a78bfa" opacity="0.33551941151887915"/><circle cx="220.15117320332084" cy="-45.480689411667335" r="0.5623946327357994" fill="#a78bfa" opacity="0.35725803145473534"/><circle cx="235.08021920337126" cy="-42.23171512148038" r="1.077005454158443" fill="#a78bfa" opacity="0.5029708926848815"/><circle cx="249.0543036439798" cy="-38.73309393377136" r="0.3448669974056142" fill="#a78bfa" opacity="0.6798343939214406"/><circle cx="261.9843960921851" cy="-34.997586035095516" r="0.8902857246902653" fill="#a78bfa" opacity="0.38331646495739335"/><circle cx="273.78456962987985" cy="-31.039504772739903" r="0.8077293590485797" fill="#a78bfa" opacity="0.5284976831112056"/><circle cx="284.3725548396017" cy="-26.87469074451814" r="0.482576363126788" fill="#a78bfa" opacity="0.4400362274470746"/><circle cx="293.67029538964334" cy="-22.520476640576813" r="0.4883965736593365" fill="#a78bfa" opacity="0.7785624479388576"/><circle cx="301.6045022283172" cy="-17.995642611573427" r="0.3977565609020681" fill="#a78bfa" opacity="0.334835635593113"/><circle cx="308.1072032476573" cy="-13.32036197910134" r="0.5349964401439229" fill="#a78bfa" opacity="0.5614507598881475"/><circle cx="313.1162851364469" cy="-8.516137149306712" r="0.6710854263292336" fill="#a78bfa" opacity="0.48226168635243394"/><circle cx="316.5760240126096" cy="-3.6057256392846124" r="0.8957357962798533" fill="#a78bfa" opacity="0.6052509128414277"/><circle cx="318.43760130727935" cy="1.386943822021584" r="0.9873544667374032" fill="#a78bfa" opacity="0.6575670683484838"/><circle cx="318.659601268791" cy="6.436865101119649" r="0.8313175942321991" fill="#a78bfa" opacity="0.38228321168965146"/><circle cx="317.2084863660226" cy="11.518058299255099" r="0.9070158251014817" fill="#a78bfa" opacity="0.30490647056434667"/><circle cx="314.0590467986065" cy="16.603683085364306" r="0.33775642389776167" fill="#a78bfa" opacity="0.7109262742449102"/><circle cx="309.19482026814336" cy="21.666161519211574" r="0.3868821880734722" fill="#a78bfa" opacity="0.610759922185775"/><circle cx="302.6084781313708" cy="26.67731009322263" r="0.9808050502284562" fill="#a78bfa" opacity="0.6874522747068108"/><circle cx="294.30217404491987" cy="31.608480650891632" r="0.5450874633479029" fill="#a78bfa" opacity="0.773583190342251"/><circle cx="284.28785122348097" cy="36.4307097666518" r="0.7252654269353004" fill="#a78bfa" opacity="0.7682782044827314"/><circle cx="272.58750447051864" cy="41.114876097056325" r="0.7197769051472012" fill="#a78bfa" opacity="0.4030401804816162"/><circle cx="259.23339320473224" cy="45.63186513634894" r="0.6986269761261477" fill="#a78bfa" opacity="0.7358795034691799"/><circle cx="244.26820179776973" cy="49.95274073140959" r="0.8553733889428086" fill="#a78bfa" opacity="0.3381710820590462"/><circle cx="227.7451436607435" cy="54.04892263204743" r="0.5715343433772329" fill="#a78bfa" opacity="0.5712486869550267"/><circle cx="209.72800567025106" cy="57.892369273150585" r="0.7780309934128062" fill="#a78bfa" opacity="0.39896994398644126"/><circle cx="190.2911297101669" cy="61.455764905789074" r="0.9424356847077271" fill="#a78bfa" opacity="0.6692324911717777"/><circle cx="169.51932832455088" cy="64.71271011556098" r="0.7926972319163266" fill="#a78bfa" opacity="0.7743356598717289"/><circle cx="147.50773173069325" cy="67.6379146888476" r="0.41220842591945317" fill="#a78bfa" opacity="0.42857147070224433"/><circle cx="124.3615637303753" cy="70.20739171184422" r="0.682351407557193" fill="#a78bfa" opacity="0.6470556461829742"/><circle cx="100.19584438255764" cy="72.39865171392192" r="0.3510769708826119" fill="#a78bfa" opacity="0.7653006381875457"/><circle cx="75.13501766234721" cy="74.19089559676802" r="0.5693907411184764" fill="#a78bfa" opacity="0.7695696403256779"/><circle cx="49.312502729483256" cy="75.56520502459084" r="0.5092917340435468" fill="#a78bfa" opacity="0.4315574612903201"/><circle cx="22.870167864619454" cy="76.50472888924747" r="0.7582831930439955" fill="#a78bfa" opacity="0.6847653318684301"/><circle cx="-4.042273396908201" cy="76.99486440827062" r="1.0599561354011333" fill="#a78bfa" opacity="0.762967387133606"/><circle cx="-31.267943896997732" cy="77.0234313642776" r="1.0803878693328677" fill="#a78bfa" opacity="0.6808807040782714"/><circle cx="-58.64356167371645" cy="76.58083795201185" r="0.6775424251039086" fill="#a78bfa" opacity="0.41939767164893244"/><circle cx="-86.0002748132912" cy="75.66023666517742" r="0.3635262793479789" fill="#a78bfa" opacity="0.6161914070573176"/><circle cx="-113.16457057422691" cy="74.25766863018755" r="0.85163049891424" fill="#a78bfa" opacity="0.7374214295712522"/><circle cx="-139.95925638606272" cy="72.37219477886546" r="1.0160898723959864" fill="#a78bfa" opacity="0.3905490565490152"/><circle cx="-166.20450966173584" cy="70.0060122479215" r="0.8712450495781379" fill="#a78bfa" opacity="0.6463674880979926"/><circle cx="-191.71899267486933" cy="67.16455440059359" r="0.7436513462752848" fill="#a78bfa" opacity="0.6755171291733418"/><circle cx="-216.3210280452118" cy="63.85657288605767" r="0.7776495774931826" fill="#a78bfa" opacity="0.3724976355018567"/><circle cx="-239.82982965064488" cy="60.0942001859709" r="0.4800026433060946" fill="#a78bfa" opacity="0.38269329155286375"/><circle cx="-262.0667830473317" cy="55.89299114561666" r="0.7050811359413369" fill="#a78bfa" opacity="0.5021398424480588"/><circle cx="-282.8567687354967" cy="51.27194205037355" r="0.9069568771512166" fill="#a78bfa" opacity="0.6604850838518326"/><circle cx="-302.02952086260836" cy="46.2534858873486" r="0.743603226303349" fill="#a78bfa" opacity="0.3890027342717568"/><circle cx="-319.4210132143021" cy="40.86346252766638" r="0.680015931267612" fill="#a78bfa" opacity="0.4512021481479154"/><circle cx="-334.87486361287563" cy="35.13106267764305" r="0.7850745855975032" fill="#a78bfa" opacity="0.7252257384107824"/><circle cx="-348.2437471305305" cy="29.088744577399297" r="0.3904031151491639" fill="#a78bfa" opacity="0.6684787438139628"/><circle cx="-359.3908078373855" cy="22.77212257371689" r="0.39833037823485273" fill="#a78bfa" opacity="0.4465021317963167"/><circle cx="-368.1910581505906" cy="16.219826860379936" r="0.7787740518345068" fill="#a78bfa" opacity="0.47917463405668737"/><circle cx="-374.5327542391766" cy="9.473333863936245" r="0.7682814923349011" fill="#a78bfa" opacity="0.6477583817224155"/><circle cx="-378.31873537844507" cy="2.57676695571354" r="0.5103809731176133" fill="#a78bfa" opacity="0.5052709814799617"/>
  <!-- dust lanes -->
  <ellipse cx="0" cy="-8" rx="240" ry="20" fill="#000" opacity="0.3"/>
  <ellipse cx="-100" cy="6" rx="80" ry="8" fill="#000" opacity="0.2"/>
  <ellipse cx="120" cy="6" rx="60" ry="6" fill="#000" opacity="0.2"/>
</g>
<!-- foreground sgrA flare -->
<circle cx="400" cy="260" r="6" fill="#fff" opacity="0.9"/>
</svg>