<svg xmlns="http://www.w3.org/2000/svg" viewBox="0 0 800 500" preserveAspectRatio="xMidYMid slice" width="100%" height="100%">
<defs>
  <radialGradient id="pluto" cx="50%" cy="50%" r="50%">
    <stop offset="0%" stop-color="#7c3aed" stop-opacity="0.8"/>
    <stop offset="80%" stop-color="#1a0a2a"/>
    <stop offset="100%" stop-color="#000"/>
  </radialGradient>
  <linearGradient id="bg" x1="0" y1="0" x2="0" y2="1">
    <stop offset="0%" stop-color="#02010a"/>
    <stop offset="100%" stop-color="#0a0414"/>
  </linearGradient>
</defs>
<rect width="800" height="500" fill="url(#bg)"/>
<circle cx="417.83818325931765" cy="55.257763396939886" r="0.9612702646831017" fill="#fff" opacity="0.43577802198485394"/><circle cx="760.3431002432036" cy="148.3563697287582" r="0.7432855804970762" fill="#fff" opacity="0.3950994908084161"/><circle cx="245.31713143211968" cy="389.4287261330669" r="0.32044082262085155" fill="#fff" opacity="0.21742761913451353"/><circle cx="466.61601837860917" cy="82.8177762105004" r="1.0553731257304055" fill="#fff" opacity="0.49495692123434243"/><circle cx="140.18760947136988" cy="427.9296719730168" r="0.392929450598685" fill="#fff" opacity="0.3232711038289399"/><circle cx="243.12461797441296" cy="201.69884666537874" r="0.40644483883837507" fill="#fff" opacity="0.4753286257953599"/><circle cx="295.7883871394857" cy="402.279192152812" r="0.6450850476458171" fill="#fff" opacity="0.4592927075636814"/><circle cx="444.2876394386701" cy="389.7475095010729" r="0.9348839292439306" fill="#fff" opacity="0.75167846002664"/><circle cx="58.68236517870109" cy="443.98207100254893" r="0.9540067795177998" fill="#fff" opacity="0.2723006373510447"/><circle cx="588.0512668698155" cy="344.97088620659537" r="0.6262305635637311" fill="#fff" opacity="0.23548961948923713"/><circle cx="401.4497664616501" cy="139.8855915303744" r="0.811106433120423" fill="#fff" opacity="0.6039494954843572"/><circle cx="361.49773466492763" cy="489.005037970272" r="0.7654003251793614" fill="#fff" opacity="0.24485615423770052"/><circle cx="268.20581634208634" cy="37.306447958942336" r="1.0774544470063863" fill="#fff" opacity="0.2351264878657039"/><circle cx="154.04562489558904" cy="407.82526238980097" r="0.6624265262807525" fill="#fff" opacity="0.5357992773256453"/><circle cx="290.228712698719" cy="251.34475975357302" r="0.4553436211690164" fill="#fff" opacity="0.7852889979453468"/><circle cx="123.26192240787277" cy="350.16443894719265" r="0.7928919827574711" fill="#fff" opacity="0.5377636250839725"/><circle cx="487.5831192878918" cy="248.83344478176127" r="0.3812584852350005" fill="#fff" opacity="0.2029677670838655"/><circle cx="552.9000921771956" cy="311.9791853408714" r="0.4118952798079511" fill="#fff" opacity="0.6907875604198239"/><circle cx="147.32206968695945" cy="52.95335626512632" r="0.7958065668358315" fill="#fff" opacity="0.3129035980243644"/><circle cx="285.4946098749485" cy="484.51599930369593" r="0.3166583680041759" fill="#fff" opacity="0.7887007492835696"/><circle cx="613.8539530684295" cy="53.24984435057311" r="0.5264936057258552" fill="#fff" opacity="0.22962799359569458"/><circle cx="629.7965576271787" cy="423.0808684830308" r="0.5046460451244641" fill="#fff" opacity="0.4197065186793336"/><circle cx="680.146100146219" cy="33.28124179291003" r="1.029377377698715" fill="#fff" opacity="0.611588001979617"/><circle cx="259.8518453040558" cy="46.28324020576391" r="0.6773570285474066" fill="#fff" opacity="0.3533625016294891"/><circle cx="498.6922883349716" cy="359.79571351783517" r="0.3092660089328672" fill="#fff" opacity="0.6570412975984613"/><circle cx="588.0842677691734" cy="341.62454721042246" r="0.9711418882089538" fill="#fff" opacity="0.6792628076875789"/><circle cx="285.0951438846383" cy="320.7348704906331" r="0.5218299604742368" fill="#fff" opacity="0.20985163943779672"/><circle cx="790.7368420641924" cy="283.7285642686025" r="0.988436764480848" fill="#fff" opacity="0.438356768543619"/><circle cx="684.4139467884535" cy="121.36295451164247" r="0.5201051366734197" fill="#fff" opacity="0.2104375471045978"/><circle cx="345.776041788034" cy="78.78791198491109" r="0.5473014868123409" fill="#fff" opacity="0.5227570008736213"/><circle cx="624.9285703250202" cy="415.4188993837948" r="0.7002111030199416" fill="#fff" opacity="0.5248436833425325"/><circle cx="106.02142043298758" cy="391.6710251920627" r="1.0736304398333583" fill="#fff" opacity="0.6173303759758497"/><circle cx="221.95739840203598" cy="347.2746770756778" r="0.35209216116948044" fill="#fff" opacity="0.5775945903242214"/><circle cx="175.88134183378185" cy="27.61617848652731" r="0.9538106826420902" fill="#fff" opacity="0.7223080639982471"/><circle cx="33.64973259923545" cy="321.9136262312961" r="1.08481820419158" fill="#fff" opacity="0.3782175596799405"/><circle cx="524.7647347899326" cy="239.38659240065968" r="0.7477691956642333" fill="#fff" opacity="0.5391150042637385"/><circle cx="131.50941950212803" cy="143.98365912826034" r="0.3913753027332786" fill="#fff" opacity="0.26860391770026326"/><circle cx="100.90428598051675" cy="99.86090990384699" r="1.083045379063641" fill="#fff" opacity="0.35511790838414287"/><circle cx="415.0415645628126" cy="407.3956660954469" r="0.9192920276579764" fill="#fff" opacity="0.49597392630218184"/><circle cx="213.78631444728242" cy="281.6581526021888" r="0.397269706236143" fill="#fff" opacity="0.5801695949766543"/><circle cx="255.88340049919626" cy="393.7289254426447" r="1.0172116748851714" fill="#fff" opacity="0.661320989792566"/><circle cx="1.7331249438822027" cy="70.23572355408602" r="0.3023262157200661" fill="#fff" opacity="0.5731515457360359"/><circle cx="326.07507400802655" cy="18.204688615173716" r="0.8887925972752622" fill="#fff" opacity="0.5335113929962312"/><circle cx="250.75324851800485" cy="379.07183831359833" r="1.0795154971443541" fill="#fff" opacity="0.24667116344570497"/><circle cx="195.5807522140753" cy="328.21163662359345" r="0.4222520535812387" fill="#fff" opacity="0.43898338681608023"/><circle cx="497.52926664077745" cy="312.17902515864705" r="0.4893479572479408" fill="#fff" opacity="0.5194373012627311"/><circle cx="262.1953871961618" cy="451.7721675536923" r="0.4327594395062584" fill="#fff" opacity="0.6497773014446602"/><circle cx="72.77073965688166" cy="354.215450109349" r="0.7890377277267497" fill="#fff" opacity="0.351210957476801"/><circle cx="579.1753194059768" cy="382.8701520885596" r="1.090629816174437" fill="#fff" opacity="0.6360122093172723"/><circle cx="363.34230426791567" cy="12.232111779694964" r="0.3625189207610459" fill="#fff" opacity="0.2504876158523947"/><circle cx="630.7304175082866" cy="134.1646669740253" r="1.0235098283301274" fill="#fff" opacity="0.5194568993920486"/><circle cx="305.55820988916673" cy="354.155085247634" r="0.5627271177341171" fill="#fff" opacity="0.5137086195671761"/><circle cx="234.7941022046042" cy="174.01579578650134" r="1.0398788448308263" fill="#fff" opacity="0.4282380936853244"/><circle cx="155.56399687918594" cy="112.08036024329132" r="0.5631236421268528" fill="#fff" opacity="0.22393856553427197"/><circle cx="73.4167372746918" cy="452.3087727993521" r="0.5336201407613678" fill="#fff" opacity="0.5402357985705901"/><circle cx="26.88349017824674" cy="356.4581384866704" r="0.47801966925165873" fill="#fff" opacity="0.6921060590557411"/><circle cx="450.5322907755496" cy="426.1547690078575" r="0.7530894141271306" fill="#fff" opacity="0.5494921832753923"/><circle cx="607.5989512934673" cy="107.98915480807192" r="0.8753658582359622" fill="#fff" opacity="0.23307889736059706"/><circle cx="624.6106571992667" cy="191.20560029917218" r="1.0322243974691911" fill="#fff" opacity="0.46914372262497106"/><circle cx="152.7027757014162" cy="304.1245848279036" r="0.5076855574248078" fill="#fff" opacity="0.4029936952628143"/><circle cx="291.7344367875684" cy="493.57622662564034" r="0.6488072210733558" fill="#fff" opacity="0.5555998338106034"/><circle cx="50.980526522513884" cy="238.83406431972233" r="0.39630169450699393" fill="#fff" opacity="0.6705926184484808"/><circle cx="669.9064255788275" cy="31.976643666717376" r="0.945298102683154" fill="#fff" opacity="0.32984866461130047"/><circle cx="144.11104583097608" cy="49.00974045153384" r="0.6145855261487585" fill="#fff" opacity="0.7327045646372115"/><circle cx="425.3879606677873" cy="160.82663671264484" r="0.6594287549321738" fill="#fff" opacity="0.35960348098382167"/><circle cx="181.02217277318059" cy="420.1087157542867" r="0.6135611096916425" fill="#fff" opacity="0.4691534344839389"/><circle cx="505.392238209462" cy="444.048594731836" r="0.4793830378050341" fill="#fff" opacity="0.6966830281084991"/><circle cx="794.6903306081125" cy="14.202247115074229" r="0.6107646563922106" fill="#fff" opacity="0.4873104419460192"/><circle cx="303.6939117282093" cy="94.95783856727286" r="0.4808221252345028" fill="#fff" opacity="0.7818549591124357"/><circle cx="684.9192718772881" cy="330.9226357379389" r="0.6313163847770631" fill="#fff" opacity="0.3929236102570357"/><circle cx="476.8389347062931" cy="123.31640485168121" r="0.788779185662037" fill="#fff" opacity="0.33189134161559575"/><circle cx="663.2954062657388" cy="417.52405319393506" r="0.9437214659428264" fill="#fff" opacity="0.6972139451970223"/><circle cx="646.5892639712789" cy="65.70209456382898" r="0.3383470427451794" fill="#fff" opacity="0.773480666788559"/><circle cx="644.7697843337" cy="385.0820064158193" r="0.47507497798194703" fill="#fff" opacity="0.5968051669332638"/><circle cx="110.80910647089661" cy="36.320960294815684" r="0.6774256978816777" fill="#fff" opacity="0.7298090600387817"/><circle cx="532.5555028878554" cy="161.84205439222183" r="0.3508458051644185" fill="#fff" opacity="0.37747762458256806"/><circle cx="589.2292884899227" cy="393.265857927631" r="0.33745207718405695" fill="#fff" opacity="0.7611630567709862"/><circle cx="190.05311224231204" cy="378.2085886901299" r="0.41784294573649133" fill="#fff" opacity="0.22890934281120212"/><circle cx="303.47130633354027" cy="434.8144950142888" r="0.3830820698903456" fill="#fff" opacity="0.4538614028316433"/><circle cx="392.3290294796598" cy="425.67162405827526" r="0.610119417039914" fill="#fff" opacity="0.6196027067840479"/><circle cx="655.6468017250818" cy="429.2386009003628" r="0.4287691247642102" fill="#fff" opacity="0.39404728121013055"/><circle cx="58.762208072711445" cy="194.696017462767" r="0.4327608447885867" fill="#fff" opacity="0.548500695096952"/><circle cx="430.8430876883001" cy="496.10387613793176" r="0.4748253107746846" fill="#fff" opacity="0.3501834300978486"/><circle cx="676.0606466608873" cy="113.35573398846005" r="0.32660693334902885" fill="#fff" opacity="0.7124360971609378"/><circle cx="512.8294431525876" cy="130.4277918516241" r="0.5562826830417891" fill="#fff" opacity="0.6692172656666238"/><circle cx="424.22152681076443" cy="8.230882643839143" r="0.305220938609445" fill="#fff" opacity="0.45670109319761515"/><circle cx="744.5934781455825" cy="214.88648228692793" r="0.6883708939066714" fill="#fff" opacity="0.33555663849616035"/><circle cx="413.9123685230567" cy="64.0808710402258" r="0.3577403749437707" fill="#fff" opacity="0.2847894970129224"/><circle cx="364.76767172361457" cy="226.6663994170866" r="1.05420464944934" fill="#fff" opacity="0.44217714425353294"/><circle cx="797.4420939142755" cy="139.0639467366862" r="1.043459256722996" fill="#fff" opacity="0.5967140207803947"/><circle cx="445.7945622688457" cy="9.629972987191648" r="0.4089735659161172" fill="#fff" opacity="0.657609169107487"/><circle cx="392.91626079321634" cy="489.141659101922" r="0.8623840526644357" fill="#fff" opacity="0.24191007699971892"/><circle cx="660.4190294672958" cy="190.9189008768325" r="0.5185952154549403" fill="#fff" opacity="0.6627878341673922"/><circle cx="305.83382989430925" cy="29.664371575282566" r="0.5910192682607456" fill="#fff" opacity="0.5603982541244582"/><circle cx="629.7310879085088" cy="24.360797425881987" r="0.6742737480416805" fill="#fff" opacity="0.5234191140861439"/><circle cx="295.8268763775833" cy="420.30388126081806" r="0.7185439156243525" fill="#fff" opacity="0.6450115156384294"/><circle cx="487.3605384557703" cy="279.47101957152034" r="0.9226777865137243" fill="#fff" opacity="0.44171475306050645"/><circle cx="634.4198626983429" cy="294.7682279132837" r="0.3737564364251676" fill="#fff" opacity="0.3213830970416604"/><circle cx="688.7976617468333" cy="131.67313784182312" r="0.889817632637957" fill="#fff" opacity="0.6241697759865998"/><circle cx="312.4240322951211" cy="249.12313571085508" r="1.0172631241190648" fill="#fff" opacity="0.7328002553468569"/>
<!-- pluto -->
<circle cx="400" cy="280" r="180" fill="url(#pluto)"/>
<!-- heart (Sputnik Planitia) -->
<g transform="translate(400,290)">
  <path d="M -80 0 C -100 -60 -40 -80 0 -30 C 40 -80 100 -60 80 0 L 60 60 L -60 60 Z" fill="#fef3c7" opacity="0.85"/>
  <path d="M -80 0 C -100 -60 -40 -80 0 -30 C 40 -80 100 -60 80 0 L 60 60 L -60 60 Z" fill="none" stroke="#fbbf24" stroke-width="1" opacity="0.5"/>
  <!-- nitrogen ice texture -->
  <circle cx="-36.20432562639034" cy="3.15536622179986" r="4.981771876943492" fill="#fff" opacity="0.42261981376043467"/><circle cx="-27.23765979103801" cy="37.886786643826355" r="3.2033099214202894" fill="#fff" opacity="0.3826347757413876"/><circle cx="-52.6188895712154" cy="54.78321368826869" r="5.443040937175022" fill="#fff" opacity="0.3432838088854122"/><circle cx="-25.927495657105574" cy="10.628601169775557" r="2.763326687081031" fill="#fff" opacity="0.3064473995359171"/><circle cx="-16.589149286555575" cy="46.23079609983458" r="5.305018632936461" fill="#fff" opacity="0.3133375604195545"/><circle cx="52.37795185399138" cy="1.1059599421962085" r="2.3922017346057958" fill="#fff" opacity="0.523331414516136"/><circle cx="21.142445200906103" cy="-11.880742950080453" r="4.964414221076025" fill="#fff" opacity="0.5601602293699154"/><circle cx="36.95811763640534" cy="14.657001682300542" r="3.183344361957462" fill="#fff" opacity="0.37716963689118155"/><circle cx="-49.33719473717302" cy="21.306251332574945" r="4.94751845837046" fill="#fff" opacity="0.5461318728986043"/><circle cx="17.091557203405966" cy="42.12769016101235" r="3.388879863653379" fill="#fff" opacity="0.31330649258573795"/><circle cx="-23.43795607193607" cy="-16.318435974662663" r="5.342747450840909" fill="#fff" opacity="0.3476015173688146"/><circle cx="-6.1552539644196225" cy="53.639213882354554" r="2.569694844727747" fill="#fff" opacity="0.525169376488984"/><circle cx="36.161830357830105" cy="-6.279041196864745" r="4.295249654831656" fill="#fff" opacity="0.5863891613946017"/><circle cx="-18.782541374823648" cy="-15.408560538714887" r="3.5156527414252143" fill="#fff" opacity="0.3580911861625607"/><circle cx="2.975189767319484" cy="5.155005607964971" r="4.456219326950344" fill="#fff" opacity="0.3677381864338017"/><circle cx="-53.20813656740739" cy="13.810328576998629" r="5.653740225982848" fill="#fff" opacity="0.562972334955566"/><circle cx="31.8420380182664" cy="0.6583025673796472" r="4.835996733085883" fill="#fff" opacity="0.37770201170141515"/><circle cx="42.86901247111701" cy="-17.412193798208936" r="5.437747989584702" fill="#fff" opacity="0.31974373522053734"/><circle cx="46.37256403591348" cy="5.938761516407101" r="2.9700357973706706" fill="#fff" opacity="0.4242524044411851"/><circle cx="-37.86640432775532" cy="42.062732574943865" r="5.745536841276984" fill="#fff" opacity="0.5560399139310943"/><circle cx="-8.856062694392621" cy="1.075177228192783" r="5.4026402922043015" fill="#fff" opacity="0.4389632105030341"/><circle cx="-44.7491374695989" cy="23.293460417294224" r="3.487377600618132" fill="#fff" opacity="0.43867770706184006"/><circle cx="-41.71594539288824" cy="47.74720483838692" r="4.044695973941387" fill="#fff" opacity="0.3097514546147338"/><circle cx="17.55582600786221" cy="8.16846271678132" r="5.108315477943964" fill="#fff" opacity="0.4811153493696988"/><circle cx="14.158369433623012" cy="-7.200748507963506" r="4.9544058272222244" fill="#fff" opacity="0.5990123201147786"/><circle cx="14.912223930358227" cy="-6.19173859625596" r="5.053355403760415" fill="#fff" opacity="0.5337541665321872"/><circle cx="-1.1938551786393514" cy="34.85817551335868" r="3.731746524571892" fill="#fff" opacity="0.5238840017701523"/><circle cx="-35.60823586851323" cy="12.845312077054686" r="4.22413816994905" fill="#fff" opacity="0.4540737916867188"/><circle cx="33.028461374131794" cy="-7.961711288622362" r="2.4210061725959866" fill="#fff" opacity="0.568134849159308"/><circle cx="-41.184728102034455" cy="27.833538159731116" r="5.069126743019104" fill="#fff" opacity="0.5767734129371412"/>
  <!-- cells (polygons) -->
  <path d="M -60 30 L -30 35 L -20 50 L -50 60 Z" fill="none" stroke="#a78bfa" stroke-width="0.5" opacity="0.4"/>
  <path d="M 0 20 L 30 25 L 40 50 L 10 55 Z" fill="none" stroke="#a78bfa" stroke-width="0.5" opacity="0.4"/>
  <path d="M 30 -20 L 60 -10 L 65 20 L 35 30 Z" fill="none" stroke="#a78bfa" stroke-width="0.5" opacity="0.4"/>
</g>
<!-- charon in distance -->
<circle cx="650" cy="180" r="14" fill="#1e1b4b" opacity="0.8"/>
<circle cx="650" cy="180" r="14" fill="none" stroke="#a78bfa" stroke-width="0.5" opacity="0.5"/>
</svg>