<svg xmlns="http://www.w3.org/2000/svg" viewBox="0 0 800 500" preserveAspectRatio="xMidYMid slice" width="100%" height="100%">
<defs>
  <radialGradient id="sun" cx="50%" cy="50%" r="50%">
    <stop offset="0%" stop-color="#fff7d6"/>
    <stop offset="40%" stop-color="#fde68a"/>
    <stop offset="80%" stop-color="#fbbf24"/>
    <stop offset="100%" stop-color="#92400e" stop-opacity="0"/>
  </radialGradient>
  <linearGradient id="bg" x1="0" y1="0" x2="1" y2="1">
    <stop offset="0%" stop-color="#1a0b00"/>
    <stop offset="100%" stop-color="#000"/>
  </linearGradient>
</defs>
<rect width="800" height="500" fill="url(#bg)"/>
<circle cx="126.81119203279457" cy="189.68688376302367" r="0.7023829234662258" fill="#fff" opacity="0.5489252548005337"/><circle cx="70.3877286452757" cy="183.78727795858825" r="0.64800681465805" fill="#fff" opacity="0.543870463822314"/><circle cx="364.5089747739146" cy="12.652210987122103" r="0.8524280372017858" fill="#fff" opacity="0.5103157766178813"/><circle cx="168.1192580993967" cy="35.041071556555835" r="1.0850080623305036" fill="#fff" opacity="0.6589408445093953"/><circle cx="40.71541281773108" cy="468.52696715120265" r="0.7755934332355736" fill="#fff" opacity="0.5473904180506051"/><circle cx="619.2545148609842" cy="0.9550048090353758" r="1.2610926483089873" fill="#fff" opacity="0.5195158591728598"/><circle cx="401.5582072590808" cy="322.3835036946682" r="1.2409616602769793" fill="#fff" opacity="0.25691385188598004"/><circle cx="710.6528356971615" cy="488.7108209296654" r="1.2720256200138405" fill="#fff" opacity="0.7121103653771257"/><circle cx="37.70477123650471" cy="9.373654229566597" r="1.0912731550811745" fill="#fff" opacity="0.6124895169139886"/><circle cx="572.4490033245471" cy="127.61082349598341" r="0.5985496430669809" fill="#fff" opacity="0.4704212455939098"/><circle cx="138.3815196587695" cy="305.40572187514937" r="1.0731224601348353" fill="#fff" opacity="0.21417759502718528"/><circle cx="379.19023043471844" cy="401.08839841614633" r="0.9317610411780899" fill="#fff" opacity="0.4067727094908039"/><circle cx="702.2263705013171" cy="436.3574627542196" r="1.2305352741360824" fill="#fff" opacity="0.7594738149697999"/><circle cx="224.93174279029463" cy="172.04796926842786" r="0.5301020750006578" fill="#fff" opacity="0.7510653914972503"/><circle cx="413.7509623435731" cy="61.19379032821387" r="0.9582802440011668" fill="#fff" opacity="0.6190225029310045"/><circle cx="280.86886029343907" cy="270.7413662485642" r="1.147750523979921" fill="#fff" opacity="0.7131374491954641"/><circle cx="724.345884796134" cy="197.27161865830695" r="0.4306763752386397" fill="#fff" opacity="0.7772451836481076"/><circle cx="744.9661316590622" cy="463.91415355820277" r="1.1219030173629383" fill="#fff" opacity="0.6938152752008753"/><circle cx="493.5878284569112" cy="473.9292706121891" r="0.693432296684064" fill="#fff" opacity="0.22848939987705127"/><circle cx="247.2008765824663" cy="433.80842291070746" r="0.4000831019612583" fill="#fff" opacity="0.525705027467406"/><circle cx="407.35302294447564" cy="400.3780345262174" r="0.8037991896502522" fill="#fff" opacity="0.6596456153932622"/><circle cx="111.19666893962945" cy="205.49783454022847" r="1.004361974243702" fill="#fff" opacity="0.33970110228281847"/><circle cx="230.47636512716113" cy="32.44813596277296" r="0.9584745170436867" fill="#fff" opacity="0.4862924781759019"/><circle cx="541.8243682450826" cy="195.3498542425634" r="0.6648310730131777" fill="#fff" opacity="0.6392586883794291"/><circle cx="143.69801199854714" cy="26.31572538708188" r="0.6055531376327116" fill="#fff" opacity="0.6501246665639004"/><circle cx="293.6112074395032" cy="268.5561823830098" r="0.6619628380378503" fill="#fff" opacity="0.5224668472781278"/><circle cx="374.1268831049604" cy="130.50667871377735" r="1.144699980158634" fill="#fff" opacity="0.5548033970558239"/><circle cx="319.4669852150012" cy="18.798886095492573" r="0.6742484829558877" fill="#fff" opacity="0.37260015402699664"/><circle cx="411.4680782161746" cy="359.7711590668554" r="0.48422524406825074" fill="#fff" opacity="0.515133535590981"/><circle cx="651.8863920517356" cy="461.4854293554874" r="1.2153091276478283" fill="#fff" opacity="0.6248096045859355"/><circle cx="323.290654218953" cy="180.55650923906452" r="0.8158650602932995" fill="#fff" opacity="0.7672712453261221"/><circle cx="97.19263141921601" cy="107.04141013908858" r="0.4376714258679891" fill="#fff" opacity="0.5649354688274393"/><circle cx="326.01356430921413" cy="418.85058180435544" r="1.2373377301025985" fill="#fff" opacity="0.5202651041515134"/><circle cx="636.149757019666" cy="192.31552660045926" r="1.0987535823321086" fill="#fff" opacity="0.5333319306065446"/><circle cx="526.2457730703038" cy="133.89834082130508" r="1.2074084320713871" fill="#fff" opacity="0.6477244222894125"/><circle cx="417.8442832477396" cy="253.4487087892982" r="0.9643536901423093" fill="#fff" opacity="0.23497344395607161"/><circle cx="427.16342466245817" cy="62.60619459553962" r="0.6346564796813372" fill="#fff" opacity="0.39105755329481884"/><circle cx="526.6465886457314" cy="80.0116551010962" r="0.43091530569671876" fill="#fff" opacity="0.5838714253032279"/><circle cx="293.91450474356776" cy="250.38066458738538" r="0.5590668981463452" fill="#fff" opacity="0.5365148164163138"/><circle cx="165.96742559757996" cy="27.969938901290735" r="1.2343431535651708" fill="#fff" opacity="0.29803443853444767"/><circle cx="206.77657375888137" cy="332.66799190787907" r="0.5419645756903164" fill="#fff" opacity="0.3538701603873331"/><circle cx="656.6713079424829" cy="202.25435216850556" r="0.40592614803585503" fill="#fff" opacity="0.25996865025860566"/><circle cx="403.39389785604413" cy="245.88268375755146" r="0.7240118820096533" fill="#fff" opacity="0.5824798234710165"/><circle cx="532.167180375025" cy="314.7672210643094" r="0.8197559995703525" fill="#fff" opacity="0.5960678931404277"/><circle cx="794.1595203148473" cy="237.36483961275812" r="0.6985286644508961" fill="#fff" opacity="0.21764107949618272"/><circle cx="256.64730120399935" cy="198.1344932788891" r="1.2772298487589713" fill="#fff" opacity="0.6850068560174993"/><circle cx="631.2861432913295" cy="319.63739713942493" r="0.5794697545455142" fill="#fff" opacity="0.2945457021680773"/><circle cx="678.23598471499" cy="372.74690333939355" r="1.248355952444842" fill="#fff" opacity="0.22896580206168018"/><circle cx="262.4558384772859" cy="217.0677194212924" r="0.9099655760621265" fill="#fff" opacity="0.2958241586049457"/><circle cx="575.1739508968856" cy="152.2413410985674" r="1.1763028675014588" fill="#fff" opacity="0.33989613053503587"/><circle cx="179.2330616073003" cy="167.55648496047553" r="0.7571042694626231" fill="#fff" opacity="0.741936457731446"/><circle cx="244.95742797268622" cy="217.41812071761407" r="0.7629598791948033" fill="#fff" opacity="0.22015712287961764"/><circle cx="622.1590670570438" cy="298.52326757700365" r="0.5185748272631946" fill="#fff" opacity="0.4338885441402284"/><circle cx="201.74007527263268" cy="91.38614254917631" r="0.897465753644622" fill="#fff" opacity="0.33681287274275495"/><circle cx="593.7270202230195" cy="1.6444640844349157" r="0.7897891098475338" fill="#fff" opacity="0.5852712004668836"/><circle cx="753.6611778981363" cy="475.2803831632598" r="0.9106960913746377" fill="#fff" opacity="0.6600171315448735"/><circle cx="509.6896134725125" cy="379.8869042360466" r="0.4262493207291834" fill="#fff" opacity="0.28861366814686873"/><circle cx="412.86188611433704" cy="351.6270569193495" r="0.7820809276119034" fill="#fff" opacity="0.6054740757638947"/><circle cx="776.260397504648" cy="269.131950259491" r="0.48302921763559076" fill="#fff" opacity="0.7012073966348713"/><circle cx="119.05993385910571" cy="232.41070035023532" r="0.9392043482271711" fill="#fff" opacity="0.49653441192799747"/><circle cx="765.2294229791858" cy="35.253798667679135" r="0.5061753481573517" fill="#fff" opacity="0.3103973725293142"/><circle cx="255.59419426642708" cy="80.09173530618102" r="0.9200082214646645" fill="#fff" opacity="0.6251634641253399"/><circle cx="728.8168727279824" cy="232.35059777753887" r="0.7669408882092248" fill="#fff" opacity="0.7580797867954363"/><circle cx="714.6162401651953" cy="100.1199022744082" r="0.86857969648569" fill="#fff" opacity="0.23956963910930285"/><circle cx="711.3323033865355" cy="92.22677527865419" r="0.7237352857824633" fill="#fff" opacity="0.3732702896236724"/><circle cx="286.77313858123136" cy="338.7902824580727" r="1.292872302493574" fill="#fff" opacity="0.3718040776679308"/><circle cx="427.6938663469541" cy="414.9976423757754" r="0.8833280386758322" fill="#fff" opacity="0.7924236987994804"/><circle cx="759.4516302354635" cy="188.77490968332216" r="0.8102025523563586" fill="#fff" opacity="0.4584938152498068"/><circle cx="749.6899563862355" cy="313.6069852022689" r="0.9751458564967841" fill="#fff" opacity="0.63200543393101"/><circle cx="216.10015590662127" cy="404.6338913833445" r="0.5446858255467162" fill="#fff" opacity="0.633402445599091"/><circle cx="616.6571932269085" cy="64.4768692406723" r="0.9832344688133021" fill="#fff" opacity="0.5773704396259383"/><circle cx="631.8795974667241" cy="232.907718992359" r="1.0106728027919174" fill="#fff" opacity="0.31180555519261166"/><circle cx="84.20120215515645" cy="227.02296112552384" r="0.61631740246046" fill="#fff" opacity="0.5987529198455029"/><circle cx="358.0224891030145" cy="492.2284569387969" r="0.8306472135828529" fill="#fff" opacity="0.46069404443412615"/><circle cx="782.4836668114435" cy="289.27534848127794" r="0.7112967721475143" fill="#fff" opacity="0.7433123470985368"/><circle cx="605.5098051565512" cy="480.10401887886263" r="1.2070474907051159" fill="#fff" opacity="0.3904701176396397"/><circle cx="414.25067792332123" cy="230.10656985200268" r="0.5380527439971545" fill="#fff" opacity="0.6693535045261765"/><circle cx="580.0053919187549" cy="301.4993023878267" r="1.2503320144005157" fill="#fff" opacity="0.20526087854496508"/><circle cx="398.5219524816535" cy="72.09827595433794" r="1.240815417025332" fill="#fff" opacity="0.42916161996113256"/><circle cx="451.927863971522" cy="420.6581204740362" r="0.8574399942948728" fill="#fff" opacity="0.34810774912063586"/><circle cx="628.0903471985355" cy="118.73360558068624" r="1.0521352734214782" fill="#fff" opacity="0.7660063593070712"/><circle cx="750.1367300907148" cy="410.04269209663397" r="0.5998056994129054" fill="#fff" opacity="0.3776619174271202"/><circle cx="549.8787749299215" cy="174.73010655994048" r="0.8424114453637206" fill="#fff" opacity="0.4290367796365984"/><circle cx="395.42754996640184" cy="398.07968327712604" r="0.40187472572253097" fill="#fff" opacity="0.7274472593301022"/><circle cx="716.2105577710793" cy="48.20734926951181" r="1.060389822401895" fill="#fff" opacity="0.6632640887613772"/><circle cx="598.3488801988118" cy="124.8659652757329" r="0.7992500242424868" fill="#fff" opacity="0.7307187322686319"/><circle cx="478.6912958355139" cy="478.0150390875869" r="0.4587963271166154" fill="#fff" opacity="0.5503968079194308"/><circle cx="20.33639092761428" cy="16.584909401676782" r="0.7997750458131856" fill="#fff" opacity="0.22806623788503017"/><circle cx="325.95158294265667" cy="401.44000534005767" r="0.6462866426495295" fill="#fff" opacity="0.6400154010101878"/><circle cx="201.4915219641816" cy="479.4986281266381" r="0.7839112117453985" fill="#fff" opacity="0.272654642434774"/><circle cx="23.16145473891824" cy="439.509092031503" r="1.20998442174805" fill="#fff" opacity="0.3024136191645459"/><circle cx="256.556284355574" cy="459.6484645702947" r="0.5974803751547382" fill="#fff" opacity="0.4140586279852351"/><circle cx="536.3825592630301" cy="486.96685061746604" r="0.5672500539829713" fill="#fff" opacity="0.41233893977771996"/><circle cx="432.85474759847233" cy="439.54701374446137" r="1.2505000046237726" fill="#fff" opacity="0.2721274653820601"/><circle cx="200.46784246169346" cy="134.3737305550124" r="0.9372397719907283" fill="#fff" opacity="0.4530908621499163"/><circle cx="67.53710757477664" cy="161.863277840353" r="0.8249289898449655" fill="#fff" opacity="0.376325443730522"/><circle cx="563.1356291049345" cy="37.659921754109874" r="1.0163872991536698" fill="#fff" opacity="0.49650932026986666"/><circle cx="557.0989979731714" cy="275.56379181795006" r="0.562687571056288" fill="#fff" opacity="0.5487124359972203"/><circle cx="526.3587068317806" cy="296.2662975986255" r="0.4835814048019246" fill="#fff" opacity="0.5909237493030224"/><circle cx="548.6600036254034" cy="404.8775895693647" r="0.4467241269635969" fill="#fff" opacity="0.599917035732954"/><circle cx="477.8033491430941" cy="237.3596010175704" r="0.7993729364520409" fill="#fff" opacity="0.434173685672008"/><circle cx="566.7219784731378" cy="326.40143895481106" r="0.40459270083066523" fill="#fff" opacity="0.3987845859963842"/><circle cx="432.05984825690757" cy="134.8101262915336" r="0.47720898018453606" fill="#fff" opacity="0.3768122273067723"/><circle cx="530.2001920286968" cy="184.99301290872654" r="0.9663088801508868" fill="#fff" opacity="0.6988587739356339"/><circle cx="246.09701449159252" cy="346.5463620287942" r="0.9137061578779516" fill="#fff" opacity="0.6265470925407992"/><circle cx="667.3039385717618" cy="279.8148950569622" r="0.7201495416785302" fill="#fff" opacity="0.21121669875522964"/><circle cx="459.52165604913847" cy="136.76827069422032" r="0.6580549657265168" fill="#fff" opacity="0.531605256193843"/><circle cx="364.3974961739186" cy="242.3442317991853" r="0.9454237245501856" fill="#fff" opacity="0.5723526580069803"/><circle cx="68.23835975415689" cy="97.42353738145276" r="1.0716383988559188" fill="#fff" opacity="0.4749932992489516"/><circle cx="472.82098422686704" cy="188.22488241729252" r="0.5818347563037896" fill="#fff" opacity="0.2226042522849913"/><circle cx="738.3781277978619" cy="269.22752992988217" r="1.1012899008614636" fill="#fff" opacity="0.5177142943742272"/><circle cx="506.994522654516" cy="223.24218414631514" r="1.1020977239096783" fill="#fff" opacity="0.6050295184820804"/><circle cx="732.7525303893316" cy="229.30348884288264" r="1.2610166048455935" fill="#fff" opacity="0.6458385883966542"/><circle cx="489.30939073358246" cy="260.05295839510694" r="0.4735964950328125" fill="#fff" opacity="0.28120053059483674"/><circle cx="399.5266234782477" cy="472.748916465605" r="0.6701767419211062" fill="#fff" opacity="0.3336926363049627"/><circle cx="602.5720316944842" cy="234.05674427185247" r="1.0458273294585234" fill="#fff" opacity="0.38223990583164535"/><circle cx="231.88025364815593" cy="235.81466062605267" r="0.9316090682300526" fill="#fff" opacity="0.4295128743354295"/><circle cx="438.39373386467645" cy="132.87941591752983" r="0.7877824763978378" fill="#fff" opacity="0.4383555635716351"/><circle cx="404.5426884834974" cy="126.44652381550436" r="1.2615594608536589" fill="#fff" opacity="0.5915315680096735"/><circle cx="0.763160787424777" cy="200.14666050971852" r="0.9694781186792782" fill="#fff" opacity="0.3647222881588827"/>
<g transform="translate(400,260)">
  <line x1="100" y1="0" x2="83.33430505737411" y2="0" stroke="#fde68a" stroke-width="2.001847072249718" opacity="0.7575028081328979"/><line x1="99.14448613738104" y1="13.052619222005157" x2="131.1439749786029" y2="17.265431849472016" stroke="#fde68a" stroke-width="1.862241007164015" opacity="0.572903382666379"/><line x1="96.59258262890683" y1="25.881904510252074" x2="229.51643756773356" y2="61.49874409594239" stroke="#fde68a" stroke-width="2.0438310055990865" opacity="0.642292589049789"/><line x1="92.38795325112868" y1="38.268343236508976" x2="156.98310339082278" y2="65.0245304878966" stroke="#fde68a" stroke-width="2.0420799286669844" opacity="0.6847367027731299"/><line x1="86.60254037844388" y1="49.99999999999999" x2="75.94876882238165" y2="43.84904212422269" stroke="#fde68a" stroke-width="2.347764137593448" opacity="0.41909818125953036"/><line x1="79.33533402912352" y1="60.87614290087207" x2="198.86062389078316" y2="152.59112355773152" stroke="#fde68a" stroke-width="1.4404751565723495" opacity="0.44119489397918116"/><line x1="70.71067811865476" y1="70.71067811865474" x2="56.628767273611004" y2="56.628767273611" stroke="#fde68a" stroke-width="1.4365170562332659" opacity="0.42937280398911515"/><line x1="60.87614290087207" y1="79.33533402912352" x2="69.46080802961615" y2="90.52308744224791" stroke="#fde68a" stroke-width="1.261897340774568" opacity="0.6031214011683353"/><line x1="50.000000000000014" y1="86.60254037844386" x2="113.30591785221513" y2="196.25160651826204" stroke="#fde68a" stroke-width="1.339189830033868" opacity="0.4012518649047252"/><line x1="38.26834323650898" y1="92.38795325112868" x2="106.11226720359161" y2="256.1776746170686" stroke="#fde68a" stroke-width="1.3650337620848603" opacity="0.5464715777833316"/><line x1="25.881904510252074" y1="96.59258262890683" x2="58.49766440969079" y2="218.3162557010797" stroke="#fde68a" stroke-width="1.01871464710142" opacity="0.4445427891738478"/><line x1="13.052619222005172" y1="99.14448613738104" x2="20.595996740499302" y2="156.4421269473212" stroke="#fde68a" stroke-width="1.6675455078913386" opacity="0.6025807179232258"/><line x1="6.123233995736766e-15" y1="100" x2="1.252744571556725e-14" y2="204.58871446509062" stroke="#fde68a" stroke-width="1.483112388760853" opacity="0.6289958178098016"/><line x1="-13.052619222005138" y1="99.14448613738105" x2="-26.669465245892017" y2="202.57470032566508" stroke="#fde68a" stroke-width="1.0916650309454528" opacity="0.434078146012274"/><line x1="-25.881904510252085" y1="96.59258262890683" x2="-50.25067725993476" y2="187.5380806488225" stroke="#fde68a" stroke-width="2.1390707383659375" opacity="0.5400409716846114"/><line x1="-38.268343236508976" y1="92.38795325112868" x2="-105.91361838141586" y2="255.69809393642254" stroke="#fde68a" stroke-width="2.123379787735188" opacity="0.6746371231287163"/><line x1="-49.99999999999998" y1="86.60254037844388" x2="-40.430596685242655" y2="70.02784763916615" stroke="#fde68a" stroke-width="2.3317373936912986" opacity="0.48665503657517206"/><line x1="-60.87614290087207" y1="79.33533402912352" x2="-162.87015785471777" y2="212.25652219492062" stroke="#fde68a" stroke-width="1.337448178971431" opacity="0.6930230353155524"/><line x1="-70.71067811865474" y1="70.71067811865476" x2="-168.4357072607774" y2="168.43570726077743" stroke="#fde68a" stroke-width="1.1525841506720207" opacity="0.44506596557129574"/><line x1="-79.3353340291235" y1="60.87614290087209" x2="-148.3450688072247" y2="113.8291748293794" stroke="#fde68a" stroke-width="2.3519135322051916" opacity="0.4267000912429924"/><line x1="-86.60254037844388" y1="49.99999999999999" x2="-187.58614225193884" y2="108.3029097254003" stroke="#fde68a" stroke-width="1.1568680366294841" opacity="0.43936026938010475"/><line x1="-92.38795325112868" y1="38.26834323650899" x2="-216.89143271952224" y2="89.8393729949578" stroke="#fde68a" stroke-width="2.4399319588614126" opacity="0.7534829530147749"/><line x1="-96.59258262890683" y1="25.881904510252102" x2="-187.76452916368285" y2="50.311353956618866" stroke="#fde68a" stroke-width="2.06607933735801" opacity="0.7851359758349553"/><line x1="-99.14448613738104" y1="13.052619222005157" x2="-271.31718342110776" y2="35.719584835766426" stroke="#fde68a" stroke-width="2.1241098183208384" opacity="0.7677131957250123"/><line x1="-100" y1="1.2246467991473532e-14" x2="-192.94915118350815" y2="2.3629456039508198e-14" stroke="#fde68a" stroke-width="1.7222033742711713" opacity="0.6607206964972161"/><line x1="-99.14448613738104" y1="-13.052619222005177" x2="-117.2946282563152" y2="-15.442130763529052" stroke="#fde68a" stroke-width="1.6576381157450948" opacity="0.45176779629363273"/><line x1="-96.59258262890684" y1="-25.881904510252035" x2="-77.28819046173535" y2="-20.709308218684754" stroke="#fde68a" stroke-width="1.527538743228391" opacity="0.6914458216241444"/><line x1="-92.38795325112868" y1="-38.26834323650897" x2="-148.55885741055855" y2="-61.5350935501041" stroke="#fde68a" stroke-width="2.2502852737995855" opacity="0.7995606090332464"/><line x1="-86.60254037844386" y1="-50.000000000000014" x2="-157.66294811449117" y2="-91.0267455351315" stroke="#fde68a" stroke-width="1.0919424500294088" opacity="0.4660716368529803"/><line x1="-79.33533402912354" y1="-60.87614290087203" x2="-70.43228837297085" y2="-54.044595693697225" stroke="#fde68a" stroke-width="2.322219923743768" opacity="0.5305409299437596"/><line x1="-70.71067811865477" y1="-70.71067811865474" x2="-107.36161321254498" y2="-107.36161321254495" stroke="#fde68a" stroke-width="1.2023195924629795" opacity="0.6249883157264289"/><line x1="-60.87614290087209" y1="-79.33533402912349" x2="-118.57675897151763" y2="-154.53224092095775" stroke="#fde68a" stroke-width="1.6583109069261812" opacity="0.6850351014829849"/><line x1="-50.00000000000004" y1="-86.60254037844385" x2="-127.11803983966423" y2="-220.17490356086293" stroke="#fde68a" stroke-width="2.0540018141360856" opacity="0.7825432584071292"/><line x1="-38.26834323650903" y1="-92.38795325112865" x2="-49.67904368189261" y2="-119.93582102255034" stroke="#fde68a" stroke-width="2.001149961115507" opacity="0.7741257895543537"/><line x1="-25.881904510252063" y1="-96.59258262890683" x2="-35.0999289397417" y2="-130.9947181451733" stroke="#fde68a" stroke-width="1.1451446454897751" opacity="0.7211658750650762"/><line x1="-13.052619222005163" y1="-99.14448613738104" x2="-26.672794810797196" y2="-202.5999908819868" stroke="#fde68a" stroke-width="2.3261965557248665" opacity="0.7352948985837775"/><line x1="-1.8369701987210297e-14" y1="-100" x2="-4.43653048981805e-14" y2="-241.51347108989225" stroke="#fde68a" stroke-width="1.822018130945768" opacity="0.5185154931965701"/><line x1="13.052619222005127" y1="-99.14448613738105" x2="31.84508138964235" y2="-241.88740793544363" stroke="#fde68a" stroke-width="1.2377284225015235" opacity="0.40540504344118644"/><line x1="25.881904510252028" y1="-96.59258262890684" x2="26.038495308667844" y2="-97.17698744459244" stroke="#fde68a" stroke-width="1.2004066522470052" opacity="0.4139048189929164"/><line x1="38.268343236509" y1="-92.38795325112866" x2="54.957447907038066" y2="-132.67901609058407" stroke="#fde68a" stroke-width="1.6383051649082692" opacity="0.7929663075101752"/><line x1="50.000000000000014" y1="-86.60254037844386" x2="119.33215333745714" y2="-206.68935255707567" stroke="#fde68a" stroke-width="2.103778102457875" opacity="0.5048406698616883"/><line x1="60.876142900872054" y1="-79.33533402912352" x2="136.18178126627407" y2="-177.47555266491958" stroke="#fde68a" stroke-width="1.7291319728367152" opacity="0.7113246464634935"/><line x1="70.71067811865474" y1="-70.71067811865477" x2="79.42052280085704" y2="-79.42052280085707" stroke="#fde68a" stroke-width="2.3829732554016942" opacity="0.5820943209931182"/><line x1="79.33533402912349" y1="-60.87614290087209" x2="165.0523951077264" y2="-126.64915719672507" stroke="#fde68a" stroke-width="1.557849323626729" opacity="0.7003186339322878"/><line x1="86.60254037844383" y1="-50.00000000000004" x2="229.2625473570964" y2="-132.36479343171908" stroke="#fde68a" stroke-width="1.429239343623944" opacity="0.5221337756373243"/><line x1="92.38795325112865" y1="-38.26834323650904" x2="228.16796056380858" y2="-94.51026376453919" stroke="#fde68a" stroke-width="1.6665913311539706" opacity="0.7383217567482936"/><line x1="96.59258262890683" y1="-25.881904510252067" x2="100.19379044060588" y2="-26.84684523517348" stroke="#fde68a" stroke-width="1.3887787790832316" opacity="0.508189778257458"/><line x1="99.14448613738104" y1="-13.052619222005168" x2="212.40012629502843" y2="-27.963007114618826" stroke="#fde68a" stroke-width="2.237682504935886" opacity="0.6736268445772249"/>
  <circle r="120" fill="url(#sun)"/>
  <circle r="60" fill="#fff7d6"/>
</g>
<circle cx="103.93155716304436" cy="19.752473630146095" r="2.3210626837295187" fill="#fde68a" opacity="0.5"/><line x1="99.28943179558533" y1="19.752473630146095" x2="117.85793326542148" y2="19.752473630146095" stroke="#fde68a" stroke-width="1" opacity="0.4"/><circle cx="209.06222926984412" cy="257.7618857788916" r="2.798896763926744" fill="#fde68a" opacity="0.5"/><line x1="203.46443574199063" y1="257.7618857788916" x2="225.8556098534046" y2="257.7618857788916" stroke="#fde68a" stroke-width="1" opacity="0.4"/><circle cx="506.7129205882681" cy="323.79080093535254" r="3.2311083248968377" fill="#fde68a" opacity="0.5"/><line x1="500.25070393847443" y1="323.79080093535254" x2="526.0995705376491" y2="323.79080093535254" stroke="#fde68a" stroke-width="1" opacity="0.4"/><circle cx="118.07392193801967" cy="476.0029075445889" r="2.8250355174764197" fill="#fde68a" opacity="0.5"/><line x1="112.42385090306682" y1="476.0029075445889" x2="135.02413504287819" y2="476.0029075445889" stroke="#fde68a" stroke-width="1" opacity="0.4"/><circle cx="33.59516178566571" cy="160.718883450377" r="5.612402319384911" fill="#fde68a" opacity="0.5"/><line x1="22.370357146895888" y1="160.718883450377" x2="67.26957570197517" y2="160.718883450377" stroke="#fde68a" stroke-width="1" opacity="0.4"/><circle cx="18.063992540830043" cy="141.3264821813953" r="4.606329530294457" fill="#fde68a" opacity="0.5"/><line x1="8.851333480241129" y1="141.3264821813953" x2="45.701969722596786" y2="141.3264821813953" stroke="#fde68a" stroke-width="1" opacity="0.4"/><circle cx="416.28631786980026" cy="291.52922116505744" r="3.712108846566632" fill="#fde68a" opacity="0.5"/><line x1="408.862100176667" y1="291.52922116505744" x2="438.55897094920005" y2="291.52922116505744" stroke="#fde68a" stroke-width="1" opacity="0.4"/><circle cx="40.105529137395294" cy="231.92674479780212" r="4.129702065426472" fill="#fde68a" opacity="0.5"/><line x1="31.84612500654235" y1="231.92674479780212" x2="64.88374152995414" y2="231.92674479780212" stroke="#fde68a" stroke-width="1" opacity="0.4"/>
</svg>