<svg xmlns="http://www.w3.org/2000/svg" viewBox="0 0 800 500" preserveAspectRatio="xMidYMid slice" width="100%" height="100%">
<defs>
  <linearGradient id="bg" x1="0" y1="0" x2="0" y2="1">
    <stop offset="0%" stop-color="#3a2c10"/>
    <stop offset="50%" stop-color="#92400e"/>
    <stop offset="100%" stop-color="#1a0b00"/>
  </linearGradient>
  <radialGradient id="haze" cx="50%" cy="50%" r="50%">
    <stop offset="0%" stop-color="#fde68a" stop-opacity="0.5"/>
    <stop offset="100%" stop-color="#fde68a" stop-opacity="0"/>
  </radialGradient>
</defs>
<rect width="800" height="500" fill="url(#bg)"/>
<circle cx="621.8341161844619" cy="104.67482781824478" r="0.7333367226397323" fill="#fde68a" opacity="0.2661271983080534"/><circle cx="344.7662822589084" cy="263.17712040246613" r="0.5975879623350464" fill="#fde68a" opacity="0.3747315526152468"/><circle cx="75.40069763435531" cy="243.6232899604997" r="0.5373168632559387" fill="#fde68a" opacity="0.3860242915888745"/><circle cx="300.78818894760985" cy="445.65280910929386" r="0.43467103187940664" fill="#fde68a" opacity="0.3191281951363335"/><circle cx="399.1003945630477" cy="159.1049777901597" r="0.7447671513468468" fill="#fde68a" opacity="0.13289160502281197"/><circle cx="657.0120262086406" cy="33.12467757039739" r="0.6450558563160629" fill="#fde68a" opacity="0.14636024068480785"/><circle cx="495.01598173670055" cy="52.85624482313456" r="0.4059942182939641" fill="#fde68a" opacity="0.26136458057348516"/><circle cx="494.8301498457217" cy="310.3018722515208" r="0.4669184766176712" fill="#fde68a" opacity="0.1326309580424265"/><circle cx="521.3630199507486" cy="365.21619743470814" r="0.4305483986202796" fill="#fde68a" opacity="0.23015440623158243"/><circle cx="719.3188333887551" cy="67.8314369913312" r="0.8445972454837349" fill="#fde68a" opacity="0.2628529108229887"/><circle cx="240.88525801265678" cy="196.2918423548049" r="0.7357608675712077" fill="#fde68a" opacity="0.3600831561967546"/><circle cx="235.56394942044284" cy="114.43469953341307" r="0.7303070720572924" fill="#fde68a" opacity="0.2429253650243943"/><circle cx="25.47263374847235" cy="67.33723442634754" r="0.7044570812954589" fill="#fde68a" opacity="0.21302967619459692"/><circle cx="598.0143420581384" cy="91.38947293557287" r="0.7839316477053346" fill="#fde68a" opacity="0.3665964301641814"/><circle cx="732.9669688035107" cy="268.7462867282814" r="0.42861703731081546" fill="#fde68a" opacity="0.3260563397497821"/><circle cx="604.4029409174743" cy="23.316981851417175" r="0.4573532300780443" fill="#fde68a" opacity="0.2655628471498227"/><circle cx="623.4040691299141" cy="154.181183499932" r="0.8352107885983164" fill="#fde68a" opacity="0.39657386918747817"/><circle cx="530.9218970323524" cy="447.0190219954766" r="0.91245415226002" fill="#fde68a" opacity="0.1056453436554327"/><circle cx="569.8353221437064" cy="295.8399145735325" r="0.4301335740381287" fill="#fde68a" opacity="0.26101312137324784"/><circle cx="3.900113628403723" cy="429.4083908912812" r="0.5046185486636281" fill="#fde68a" opacity="0.35312518902054857"/><circle cx="445.57267288025076" cy="218.07338138945087" r="0.4515136344589846" fill="#fde68a" opacity="0.20112407410309954"/><circle cx="318.9581897851509" cy="203.62355376225088" r="0.36607403295793217" fill="#fde68a" opacity="0.38243076225041006"/><circle cx="626.682294023884" cy="76.9876909642574" r="0.4528870809962551" fill="#fde68a" opacity="0.2567061513522153"/><circle cx="673.6475369895705" cy="365.4745764130107" r="0.513686811304166" fill="#fde68a" opacity="0.352644853668187"/><circle cx="428.07713199688806" cy="65.21609380356725" r="0.35821083978431545" fill="#fde68a" opacity="0.3610266417140655"/><circle cx="631.9212920052756" cy="368.8612376169791" r="0.9765025084212846" fill="#fde68a" opacity="0.10923753850946662"/><circle cx="269.54695239083185" cy="277.71573503591424" r="0.6963034032073503" fill="#fde68a" opacity="0.12622431638831086"/><circle cx="411.5607281165113" cy="264.8551506650526" r="0.617397738324164" fill="#fde68a" opacity="0.1434214891662322"/><circle cx="740.6640753574077" cy="329.4458614290298" r="0.4312209118289082" fill="#fde68a" opacity="0.15254757416355363"/><circle cx="628.1685615464269" cy="39.73567989002491" r="0.8114235377066963" fill="#fde68a" opacity="0.20840658971351866"/><circle cx="271.16639066467536" cy="111.78613907416174" r="0.6001470573097283" fill="#fde68a" opacity="0.23402408901374716"/><circle cx="564.8578328481267" cy="439.8781749559369" r="0.9961842142029764" fill="#fde68a" opacity="0.1726280379571194"/><circle cx="387.21558770015383" cy="329.60855560960306" r="0.333729232684046" fill="#fde68a" opacity="0.2002356150823739"/><circle cx="404.08361873663284" cy="381.63561179282453" r="0.3421469344212929" fill="#fde68a" opacity="0.15953359586500815"/><circle cx="467.62329639028" cy="81.96172458001216" r="0.5798307414211386" fill="#fde68a" opacity="0.33651188106006436"/><circle cx="157.3194138058991" cy="287.7496725038965" r="0.9949959946006015" fill="#fde68a" opacity="0.351968922440121"/><circle cx="792.5399618983349" cy="29.8698036537029" r="0.9805404457946183" fill="#fde68a" opacity="0.2446639973003073"/><circle cx="617.5630830445944" cy="359.2492362979938" r="0.8868741334291779" fill="#fde68a" opacity="0.37129448151298183"/><circle cx="55.84861077220849" cy="476.21923814338777" r="0.383231793688216" fill="#fde68a" opacity="0.3770606758741105"/><circle cx="604.421062567989" cy="275.375344320372" r="0.6340161743492583" fill="#fde68a" opacity="0.3710396910425824"/><circle cx="124.1632203880255" cy="132.90247436940976" r="0.5792128342999945" fill="#fde68a" opacity="0.3079957810344379"/><circle cx="87.1526526316936" cy="82.24269759849872" r="0.5031497166446941" fill="#fde68a" opacity="0.22987914288195516"/><circle cx="487.1793506584581" cy="32.46044499967865" r="0.38415634744737087" fill="#fde68a" opacity="0.3508967582493451"/><circle cx="26.229834828821197" cy="308.8189513368304" r="0.9248125689490925" fill="#fde68a" opacity="0.35184192682792237"/><circle cx="19.014950263435892" cy="208.58459040204107" r="0.3812050831491765" fill="#fde68a" opacity="0.24635316295588627"/><circle cx="646.7261204194225" cy="463.5293167832238" r="0.6901912299689006" fill="#fde68a" opacity="0.2917414934140367"/><circle cx="586.7539014415756" cy="362.666942633069" r="0.6865439404888667" fill="#fde68a" opacity="0.2828987476712072"/><circle cx="351.28797335494284" cy="476.58026788255194" r="0.4399746419627185" fill="#fde68a" opacity="0.36305726123428705"/><circle cx="270.4102060772567" cy="70.24917496012861" r="0.6523876513994837" fill="#fde68a" opacity="0.12018772467116051"/><circle cx="66.82086159147183" cy="168.2478381548651" r="0.7140442586098017" fill="#fde68a" opacity="0.12463297233506866"/><circle cx="439.23788625866774" cy="79.20269319443274" r="0.33935960125346076" fill="#fde68a" opacity="0.37534208764960264"/><circle cx="229.84749567254931" cy="345.52705743477674" r="0.9178894838456235" fill="#fde68a" opacity="0.33009360729969806"/><circle cx="656.2424616412503" cy="189.9723682761973" r="0.31430629447609076" fill="#fde68a" opacity="0.12999315828597688"/><circle cx="20.743665844406323" cy="358.05968391002096" r="0.42511039103182047" fill="#fde68a" opacity="0.11796817487764884"/><circle cx="698.0205527648799" cy="499.977897843169" r="0.35307324428433284" fill="#fde68a" opacity="0.2392878867181933"/><circle cx="243.26192454181958" cy="311.64626138698185" r="0.43723519012733114" fill="#fde68a" opacity="0.25417255808401656"/><circle cx="593.5616539079175" cy="272.8676027129575" r="0.3754664451365067" fill="#fde68a" opacity="0.15787347424416193"/><circle cx="292.1719042663001" cy="410.1236904749143" r="0.7738900294792922" fill="#fde68a" opacity="0.20920693150578779"/><circle cx="246.19834375120791" cy="237.6827249040972" r="0.44746632660438923" fill="#fde68a" opacity="0.34582190331151375"/><circle cx="585.1922390635401" cy="5.619669426601415" r="0.6962005034531789" fill="#fde68a" opacity="0.24514394689391947"/><circle cx="301.82319122167814" cy="425.59997799096647" r="0.8452335649518987" fill="#fde68a" opacity="0.3352860869309032"/><circle cx="251.6896869052225" cy="322.8849757359397" r="0.792776904136648" fill="#fde68a" opacity="0.1543826191297418"/><circle cx="779.3280971207258" cy="295.8794386281323" r="0.40008083627038626" fill="#fde68a" opacity="0.10979198455993625"/><circle cx="31.603160078826686" cy="107.24641119210942" r="0.8055980636042146" fill="#fde68a" opacity="0.3001991561866177"/><circle cx="189.18372941008198" cy="240.04631785721003" r="0.5262297340559154" fill="#fde68a" opacity="0.2938020307430935"/><circle cx="44.55642462490354" cy="230.85831782546063" r="0.889053592542959" fill="#fde68a" opacity="0.3084519528893289"/><circle cx="7.166518560193591" cy="267.51799772531115" r="0.8749627880170607" fill="#fde68a" opacity="0.3189104512945997"/><circle cx="301.282504528689" cy="153.2962668789668" r="0.8687836283179216" fill="#fde68a" opacity="0.34594970861757146"/><circle cx="608.719898448863" cy="100.51686325109793" r="0.8109340317471652" fill="#fde68a" opacity="0.18718408697025307"/><circle cx="523.7079945057186" cy="276.03640422545516" r="0.44696423841811095" fill="#fde68a" opacity="0.22481605369778163"/><circle cx="166.62525326911907" cy="245.73016958673867" r="0.5073809992221182" fill="#fde68a" opacity="0.18116416157279866"/><circle cx="291.0331084224203" cy="248.6222030498718" r="0.7638538697037562" fill="#fde68a" opacity="0.14986652085525837"/><circle cx="719.0541644442062" cy="296.5290758944759" r="0.31646887393099815" fill="#fde68a" opacity="0.3121215394932271"/><circle cx="784.9277765175748" cy="290.2938040339374" r="0.35643123827385725" fill="#fde68a" opacity="0.3969564970669617"/><circle cx="251.66146505515385" cy="423.1527720767954" r="0.9049509564179399" fill="#fde68a" opacity="0.2500995822568378"/><circle cx="190.2612096788393" cy="472.51798517600156" r="0.688108870672814" fill="#fde68a" opacity="0.17004275132589025"/><circle cx="601.3555013656512" cy="477.114979150484" r="0.6265288572353542" fill="#fde68a" opacity="0.2077485864258221"/><circle cx="758.7181750002732" cy="234.52833636326136" r="0.4726199981746978" fill="#fde68a" opacity="0.3599758483834211"/><circle cx="767.9456797542526" cy="109.66343066258305" r="0.9708641714112396" fill="#fde68a" opacity="0.31096609143770193"/><circle cx="639.1053728259357" cy="26.793387997136044" r="0.7224011361199623" fill="#fde68a" opacity="0.38987481751060926"/>
<!-- titan haze layers -->
<ellipse cx="400" cy="280" rx="220" ry="60" fill="url(#haze)" opacity="0.7"/>
<ellipse cx="400" cy="250" rx="200" ry="50" fill="url(#haze)" opacity="0.5"/>
<ellipse cx="400" cy="220" rx="180" ry="40" fill="url(#haze)" opacity="0.4"/>
<ellipse cx="400" cy="280" rx="200" ry="200" fill="none" stroke="#fde68a" stroke-width="1" opacity="0.3"/>
<!-- methane lakes (dark) -->
<ellipse cx="340" cy="320" rx="40" ry="12" fill="#1a0b00" opacity="0.8"/>
<ellipse cx="460" cy="290" rx="25" ry="8" fill="#1a0b00" opacity="0.7"/>
<ellipse cx="380" cy="250" rx="15" ry="5" fill="#1a0b00" opacity="0.6"/>
<!-- saturn ring slice at top -->
<ellipse cx="400" cy="100" rx="280" ry="14" fill="none" stroke="#e7c98a" stroke-width="2" opacity="0.4"/>
<ellipse cx="400" cy="100" rx="240" ry="10" fill="none" stroke="#e7c98a" stroke-width="1" opacity="0.3"/>
</svg>